<svg xmlns="http://www.w3.org/2000/svg" viewBox="0 0 235.41 235.41"><title>circle</title><g id="b33df049-2af1-437c-9f64-adc5a7e15244" data-name="Capa 2"><g id="b991fbe9-59a6-46ec-a7b6-1987343576eb" data-name="Capa 1"><path d="M117.71,0a118.09,118.09,0,0,0-12,.61Q99.79,1.21,94,2.39c-3.79.78-7.58,1.75-11.28,2.9s-7.29,2.47-10.81,4-7,3.15-10.29,5S55,18,51.9,20.11s-6.16,4.38-9.06,6.77-5.7,4.95-8.36,7.6-5.21,5.47-7.6,8.36-4.67,5.95-6.77,9.06-4.1,6.39-5.9,9.7-3.48,6.8-5,10.29-2.82,7.16-4,10.82S3.17,90.19,2.39,94,1,101.75.61,105.67a119,119,0,0,0,0,24.07q.6,5.88,1.78,11.69c.78,3.79,1.75,7.58,2.9,11.28s2.47,7.29,4,10.81,3.14,6.95,5,10.29,3.78,6.58,5.9,9.7,4.38,6.16,6.77,9.06,4.95,5.71,7.6,8.36,5.47,5.21,8.36,7.6,5.95,4.67,9.06,6.77,6.39,4.1,9.7,5.9,6.8,3.48,10.29,5,7.16,2.82,10.81,4S90.19,232.24,94,233s7.78,1.38,11.69,1.78a119,119,0,0,0,24.07,0c3.91-.4,7.85-1,11.69-1.78s7.58-1.75,11.28-2.9,7.29-2.47,10.81-4,6.95-3.14,10.29-5,6.58-3.78,9.7-5.9,6.16-4.38,9.06-6.77,5.7-4.95,8.36-7.6,5.21-5.47,7.6-8.36,4.67-5.95,6.77-9.06,4.1-6.39,5.9-9.7,3.48-6.8,5-10.29,2.82-7.16,4-10.81,2.12-7.49,2.9-11.28,1.38-7.77,1.78-11.69A118.79,118.79,0,0,0,233,94c-.78-3.8-1.75-7.59-2.9-11.28s-2.47-7.29-4-10.82-3.14-7-5-10.29-3.78-6.57-5.9-9.7-4.38-6.16-6.77-9.06-4.94-5.7-7.6-8.36-5.47-5.21-8.36-7.6-5.95-4.67-9.06-6.77-6.39-4.1-9.7-5.9-6.8-3.48-10.29-5-7.16-2.82-10.81-4-7.49-2.12-11.28-2.9S133.66,1,129.74.61A118,118,0,0,0,117.71,0Zm-1.33,194.47a76.28,76.28,0,0,1-7.85-.4q-3.84-.39-7.62-1.16a76.35,76.35,0,0,1-14.41-4.47A76.7,76.7,0,0,1,62.09,172a76.48,76.48,0,0,1-20.92-38.81A75.36,75.36,0,0,1,40,125.55c-.26-2.61-.4-5.23-.4-7.85s.14-5.24.4-7.85a75.55,75.55,0,0,1,1.17-7.63,76.72,76.72,0,0,1,59.74-59.73c2.5-.52,5.07-.9,7.62-1.17s5.23-.4,7.85-.4,5.24.14,7.85.4a75.36,75.36,0,0,1,7.62,1.17,76.73,76.73,0,0,1,38.81,20.92,76.8,76.8,0,0,1,16.46,24.4,76.8,76.8,0,0,1,4.47,14.41c.51,2.52.9,5.07,1.16,7.63a77.23,77.23,0,0,1,0,15.7q-.39,3.84-1.16,7.62a76.35,76.35,0,0,1-4.47,14.41,77,77,0,0,1-40.86,40.86,76.35,76.35,0,0,1-14.41,4.47q-3.78.76-7.62,1.16a76.28,76.28,0,0,1-7.85.4Z" fill="#a5afc1"/></g></g></svg>