<svg xmlns="http://www.w3.org/2000/svg" width="111.606" height="86.711" viewBox="0 0 111.606 86.711"><path d="M122.206,69.009V93.764a12.475,12.475,0,0,1-12.447,12.447H85A12.475,12.475,0,0,1,72.557,93.764V69.009A49.511,49.511,0,0,1,122.066,19.5V36.982A34.393,34.393,0,0,0,93.256,56.7h16.5A12.356,12.356,0,0,1,122.206,69.009Zm-74.4,37.2H23.047A12.475,12.475,0,0,1,10.6,93.764V69.009A49.511,49.511,0,0,1,60.109,19.5V36.982A34.393,34.393,0,0,0,31.3,56.7H47.8A12.475,12.475,0,0,1,60.249,69.149V93.9A12.446,12.446,0,0,1,47.8,106.211Z" transform="translate(-10.6 -19.5)" fill="#7786a3" fill-rule="evenodd"/></svg>