<svg xmlns="http://www.w3.org/2000/svg" width="346.257" height="346.258" viewBox="0 0 346.257 346.258"><defs><style>.a{fill:#eba7ae;}</style></defs><path class="a" d="M-968.3,10398a119.826,119.826,0,0,0-12.034.607,117.934,117.934,0,0,0-11.687,1.784c-3.791.775-7.586,1.751-11.28,2.9-3.652,1.137-7.291,2.469-10.814,3.959-3.492,1.477-6.954,3.145-10.289,4.956-3.311,1.8-6.576,3.782-9.7,5.9-3.113,2.1-6.161,4.383-9.061,6.775s-5.7,4.943-8.358,7.6-5.209,5.465-7.6,8.357-4.673,5.949-6.776,9.062-4.1,6.392-5.9,9.7c-1.812,3.336-3.479,6.8-4.956,10.289-1.49,3.523-2.822,7.162-3.958,10.814-1.149,3.692-2.124,7.487-2.9,11.279a117.994,117.994,0,0,0-1.784,11.688,119.569,119.569,0,0,0-.608,12.033,119.589,119.589,0,0,0,.608,12.034,118.018,118.018,0,0,0,1.784,11.687c.776,3.792,1.752,7.587,2.9,11.28,1.136,3.651,2.468,7.29,3.958,10.813,1.477,3.491,3.144,6.953,4.956,10.289,1.8,3.312,3.783,6.577,5.9,9.7s4.382,6.161,6.776,9.062,4.943,5.705,7.6,8.357,5.466,5.21,8.358,7.6,5.948,4.672,9.061,6.775,6.393,4.1,9.7,5.9c3.335,1.813,6.8,3.479,10.289,4.956,3.523,1.49,7.162,2.822,10.814,3.958,3.694,1.149,7.489,2.126,11.28,2.9,3.841.785,7.773,1.386,11.687,1.783a119.826,119.826,0,0,0,12.034.607,119.827,119.827,0,0,0,12.034-.607c3.914-.4,7.846-1,11.687-1.783,3.791-.775,7.586-1.752,11.28-2.9,3.652-1.136,7.291-2.468,10.814-3.958,3.492-1.477,6.953-3.144,10.289-4.956,3.312-1.8,6.577-3.782,9.7-5.9s6.161-4.383,9.061-6.775,5.7-4.943,8.358-7.6,5.209-5.465,7.6-8.357,4.673-5.949,6.776-9.062,4.1-6.393,5.9-9.7c1.812-3.336,3.48-6.8,4.956-10.289,1.49-3.523,2.822-7.162,3.958-10.813,1.149-3.693,2.124-7.488,2.9-11.28a118.036,118.036,0,0,0,1.784-11.687,119.589,119.589,0,0,0,.608-12.034,119.569,119.569,0,0,0-.608-12.033,118.011,118.011,0,0,0-1.784-11.687c-.776-3.792-1.752-7.587-2.9-11.279-1.136-3.652-2.467-7.291-3.958-10.814-1.477-3.492-3.145-6.953-4.956-10.289-1.8-3.312-3.783-6.577-5.9-9.7s-4.382-6.161-6.776-9.062-4.943-5.7-7.6-8.357-5.466-5.21-8.358-7.6-5.948-4.672-9.061-6.775c-3.128-2.113-6.393-4.1-9.7-5.9-3.335-1.812-6.8-3.479-10.289-4.956-3.523-1.49-7.162-2.822-10.814-3.959-3.694-1.148-7.489-2.124-11.28-2.9a117.94,117.94,0,0,0-11.687-1.784A119.827,119.827,0,0,0-968.3,10398Zm-1.327,194.473a78.092,78.092,0,0,1-7.849-.4,76.9,76.9,0,0,1-7.623-1.164,76.384,76.384,0,0,1-14.411-4.473,76.814,76.814,0,0,1-13.041-7.078,77.323,77.323,0,0,1-11.362-9.375,77.261,77.261,0,0,1-9.375-11.362,76.73,76.73,0,0,1-7.078-13.04,76.378,76.378,0,0,1-4.473-14.41,76.97,76.97,0,0,1-1.163-7.623,77.986,77.986,0,0,1-.4-7.85,77.986,77.986,0,0,1,.4-7.85,76.97,76.97,0,0,1,1.163-7.623,76.378,76.378,0,0,1,4.473-14.41,76.813,76.813,0,0,1,7.078-13.041,77.355,77.355,0,0,1,9.375-11.361,77.323,77.323,0,0,1,11.362-9.375,76.883,76.883,0,0,1,13.041-7.078,76.374,76.374,0,0,1,14.411-4.473c2.506-.513,5.071-.9,7.623-1.164a78.1,78.1,0,0,1,7.849-.4,78.094,78.094,0,0,1,7.849.4c2.552.26,5.117.651,7.623,1.164a76.372,76.372,0,0,1,14.411,4.473,76.886,76.886,0,0,1,13.041,7.078,77.326,77.326,0,0,1,11.362,9.375,77.35,77.35,0,0,1,9.374,11.361,76.826,76.826,0,0,1,7.078,13.041,76.387,76.387,0,0,1,4.473,14.41,77.006,77.006,0,0,1,1.163,7.623,78,78,0,0,1,.4,7.85,78,78,0,0,1-.4,7.85,77.006,77.006,0,0,1-1.163,7.623,76.387,76.387,0,0,1-4.473,14.41,76.743,76.743,0,0,1-7.078,13.04,77.248,77.248,0,0,1-9.374,11.362,77.326,77.326,0,0,1-11.362,9.375,76.818,76.818,0,0,1-13.041,7.078,76.381,76.381,0,0,1-14.411,4.473,76.893,76.893,0,0,1-7.623,1.164A78.091,78.091,0,0,1-969.626,10592.473Z" transform="translate(1141.427 -10342.572)"/></svg>