<svg xmlns="http://www.w3.org/2000/svg" width="141.962" height="78.288" viewBox="0 0 141.962 78.288"><defs><style>.a{fill:#a5afc1;}</style></defs><path class="a" d="M-8903.4-2745.584c-3.364-2.364-6.022-4.233-11.806-4.233s-8.44,1.869-11.8,4.233c-3.832,2.7-8.176,5.749-16.589,5.749s-12.757-3.052-16.589-5.749c-3.365-2.364-6.021-4.233-11.8-4.233s-8.441,1.869-11.8,4.233c-3.832,2.7-8.176,5.749-16.589,5.749s-12.755-3.052-16.589-5.749c-3.362-2.364-6.021-4.233-11.8-4.233v-8.318c8.413,0,12.757,3.052,16.589,5.749,3.362,2.366,6.022,4.233,11.8,4.233s8.438-1.867,11.8-4.233c3.831-2.7,8.173-5.749,16.589-5.749s12.757,3.052,16.586,5.749c3.365,2.366,6.023,4.233,11.806,4.233s8.44-1.867,11.806-4.233c3.829-2.7,8.173-5.749,16.586-5.749s12.758,3.052,16.589,5.749c3.365,2.366,6.023,4.233,11.806,4.233v8.318C-8895.229-2739.835-8899.57-2742.887-8903.4-2745.584Zm0-29.994c-3.364-2.365-6.022-4.233-11.806-4.233s-8.44,1.867-11.8,4.233c-3.832,2.7-8.176,5.749-16.589,5.749s-12.757-3.052-16.589-5.749c-3.365-2.365-6.021-4.233-11.8-4.233s-8.441,1.867-11.8,4.233c-3.832,2.7-8.176,5.749-16.589,5.749s-12.755-3.052-16.589-5.749c-3.362-2.365-6.021-4.233-11.8-4.233v-8.318c8.413,0,12.757,3.052,16.589,5.749,3.362,2.366,6.022,4.233,11.8,4.233s8.438-1.867,11.8-4.233c3.831-2.7,8.173-5.749,16.589-5.749s12.757,3.052,16.586,5.749c3.365,2.366,6.023,4.233,11.806,4.233s8.44-1.867,11.806-4.233c3.829-2.7,8.173-5.749,16.586-5.749s12.758,3.052,16.589,5.749c3.365,2.366,6.023,4.233,11.806,4.233v8.318C-8895.229-2769.829-8899.57-2772.881-8903.4-2775.578Zm0-29.994c-3.364-2.366-6.022-4.233-11.806-4.233s-8.44,1.867-11.8,4.233c-3.832,2.7-8.176,5.749-16.589,5.749s-12.757-3.052-16.589-5.749c-3.365-2.366-6.021-4.233-11.8-4.233s-8.441,1.867-11.8,4.233c-3.832,2.7-8.176,5.749-16.589,5.749s-12.755-3.052-16.589-5.749c-3.362-2.366-6.021-4.233-11.8-4.233v-8.318c8.413,0,12.757,3.052,16.589,5.749,3.362,2.364,6.022,4.233,11.8,4.233s8.438-1.869,11.8-4.233c3.831-2.7,8.173-5.749,16.589-5.749s12.757,3.052,16.586,5.749c3.365,2.364,6.023,4.233,11.806,4.233s8.44-1.869,11.806-4.233c3.829-2.7,8.173-5.749,16.586-5.749s12.758,3.052,16.589,5.749c3.365,2.364,6.023,4.233,11.806,4.233v8.318C-8895.229-2799.823-8899.57-2802.875-8903.4-2805.572Z" transform="translate(9028.775 2818.123)"/></svg>