<svg xmlns="http://www.w3.org/2000/svg" xmlns:xlink="http://www.w3.org/1999/xlink" width="792.563" height="792.564" viewBox="0 0 792.563 792.564"><defs><style>.a,.c{fill:#cd2434;}.b{clip-path:url(#a);}.c{stroke:#707070;}.d{stroke:none;}.e{fill:none;}</style><clipPath id="a"><path class="a" d="M-689.719,10398a403.192,403.192,0,0,0-40.518,2.045,395.925,395.925,0,0,0-39.347,6.008c-12.764,2.609-25.542,5.895-37.978,9.764-12.3,3.822-24.546,8.3-36.408,13.33-11.757,4.969-23.412,10.584-34.641,16.682-11.148,6.051-22.141,12.734-32.673,19.852-10.481,7.082-20.746,14.754-30.507,22.813-9.739,8.037-19.207,16.641-28.142,25.578s-17.538,18.4-25.576,28.141c-8.059,9.764-15.734,20.029-22.812,30.508-7.114,10.527-13.793,21.516-19.85,32.676-6.1,11.223-11.715,22.879-16.687,34.635-5.018,11.867-9.5,24.113-13.326,36.408-3.867,12.436-7.153,25.213-9.765,37.982a397.255,397.255,0,0,0-6.005,39.348,402.431,402.431,0,0,0-2.046,40.514,402.344,402.344,0,0,0,2.046,40.514,397.635,397.635,0,0,0,6.005,39.354c2.612,12.764,5.9,25.541,9.765,37.977,3.824,12.295,8.308,24.543,13.326,36.4,4.97,11.762,10.585,23.414,16.687,34.646,6.057,11.15,12.736,22.143,19.85,32.674,7.079,10.477,14.754,20.742,22.812,30.506,8.039,9.742,16.644,19.213,25.576,28.145s18.4,17.535,28.142,25.572c9.761,8.059,20.026,15.73,30.507,22.813,10.531,7.117,21.524,13.795,32.673,19.852,11.23,6.1,22.885,11.713,34.641,16.688,11.862,5.016,24.111,9.5,36.408,13.324,12.436,3.871,25.213,7.154,37.978,9.77a397.7,397.7,0,0,0,39.347,6,403.769,403.769,0,0,0,40.518,2.045,403.766,403.766,0,0,0,40.518-2.045,397.718,397.718,0,0,0,39.347-6c12.764-2.615,25.541-5.9,37.978-9.77,12.3-3.822,24.546-8.309,36.409-13.324,11.756-4.975,23.411-10.586,34.641-16.687,11.149-6.057,22.143-12.734,32.674-19.852,10.481-7.082,20.745-14.754,30.507-22.812,9.74-8.037,19.208-16.641,28.142-25.572s17.538-18.4,25.577-28.145c8.057-9.764,15.732-20.029,22.813-30.506,7.114-10.531,13.792-21.523,19.849-32.674,6.1-11.232,11.716-22.885,16.687-34.646,5.018-11.859,9.5-24.107,13.326-36.4,3.867-12.436,7.152-25.213,9.765-37.977a397.707,397.707,0,0,0,6.005-39.354,402.488,402.488,0,0,0,2.046-40.514,402.575,402.575,0,0,0-2.046-40.514,397.327,397.327,0,0,0-6.005-39.348c-2.613-12.77-5.9-25.547-9.765-37.982-3.824-12.295-8.308-24.541-13.326-36.408-4.973-11.756-10.587-23.412-16.687-34.635-6.058-11.16-12.736-22.148-19.849-32.676-7.08-10.479-14.755-20.744-22.813-30.508-8.038-9.744-16.643-19.209-25.577-28.141s-18.4-17.541-28.142-25.578c-9.762-8.059-20.026-15.73-30.507-22.812-10.532-7.117-21.525-13.795-32.674-19.852-11.229-6.1-22.884-11.713-34.641-16.682-11.862-5.025-24.112-9.508-36.409-13.33-12.436-3.869-25.213-7.154-37.978-9.764a395.928,395.928,0,0,0-39.347-6.008A403.188,403.188,0,0,0-689.719,10398Zm-4.468,654.76a261.688,261.688,0,0,1-26.428-1.34,257.559,257.559,0,0,1-25.665-3.912,257.7,257.7,0,0,1-48.519-15.061,258.8,258.8,0,0,1-43.906-23.832,260.47,260.47,0,0,1-38.254-31.564,259.732,259.732,0,0,1-31.562-38.256,258.469,258.469,0,0,1-23.832-43.9,257.14,257.14,0,0,1-15.061-48.52,259.067,259.067,0,0,1-3.917-25.662,262.546,262.546,0,0,1-1.334-26.43,262.584,262.584,0,0,1,1.334-26.426,259.056,259.056,0,0,1,3.917-25.666,257.272,257.272,0,0,1,15.061-48.52,258.745,258.745,0,0,1,23.832-43.908,260.586,260.586,0,0,1,31.563-38.248,260.112,260.112,0,0,1,38.254-31.566,258.5,258.5,0,0,1,43.906-23.826,256.981,256.981,0,0,1,48.519-15.066c8.438-1.727,17.073-3.043,25.665-3.918a263.423,263.423,0,0,1,26.428-1.328,263.409,263.409,0,0,1,26.427,1.328c8.592.875,17.227,2.191,25.664,3.918a256.974,256.974,0,0,1,48.519,15.066,258.494,258.494,0,0,1,43.906,23.826,260.112,260.112,0,0,1,38.254,31.566,260.521,260.521,0,0,1,31.562,38.248,258.782,258.782,0,0,1,23.832,43.908,257.272,257.272,0,0,1,15.061,48.52,259.056,259.056,0,0,1,3.917,25.666,262.512,262.512,0,0,1,1.334,26.426,262.474,262.474,0,0,1-1.334,26.43,259.067,259.067,0,0,1-3.917,25.662,257.139,257.139,0,0,1-15.061,48.52,258.506,258.506,0,0,1-23.832,43.9,259.652,259.652,0,0,1-31.562,38.256,260.47,260.47,0,0,1-38.254,31.564,258.8,258.8,0,0,1-43.906,23.832,257.7,257.7,0,0,1-48.519,15.061,257.532,257.532,0,0,1-25.664,3.912A261.678,261.678,0,0,1-694.187,11052.76Z" transform="translate(813.999 1932)"/></clipPath></defs><g class="b" transform="translate(272 -12330)"><g class="c" transform="translate(0 12567)"><rect class="d" width="1440" height="866"/><rect class="e" x="0.5" y="0.5" width="1439" height="865"/></g></g></svg>