<svg xmlns="http://www.w3.org/2000/svg" width="196.243" height="46.957" viewBox="0 0 196.243 46.957"><defs><style>.a{fill:#11203d;}</style></defs><g transform="translate(0 0.002)"><path class="a" d="M16070.754,23046.953a1.638,1.638,0,0,1-1.521-1.5v-6.1a1.59,1.59,0,0,1,3.176,0c0,.016-.006.428,0,.422.643-.879,1.11-1.58,2.054-1.625,2.5-.1,2.278,3.754.156,3.754-1.476,0-.811-1.557-1.458-1.562-.457,0-.7.705-.752,1.273l.006,3.863h-.012a1.645,1.645,0,0,1-1.581,1.477Zm-29.256-.012a1.638,1.638,0,0,1-1.526-1.5c-.006-.115,0-9.643,0-9.723a4.324,4.324,0,0,0-.122-.8,1.438,1.438,0,0,0-.786-.844,1.989,1.989,0,0,1,1.486-.74,2.558,2.558,0,0,1,2.319,1.3,4.528,4.528,0,0,1,.277,2.117s.006,8.578,0,8.693a1.643,1.643,0,0,1-1.581,1.5C16041.543,23046.943,16041.521,23046.943,16041.5,23046.941Zm96.056-1.3a4.565,4.565,0,0,1-.277-2.123s-.006-8.578,0-8.687a1.59,1.59,0,0,1,3.176,0c0,.115,0,9.641,0,9.723a4.206,4.206,0,0,0,.121.8,1.441,1.441,0,0,0,.786.85,1.982,1.982,0,0,1-1.48.74A2.561,2.561,0,0,1,16137.554,23045.641Zm-13.447,1.289a1.638,1.638,0,0,1-1.527-1.492l.012-4.217c-.006,0-.047-.787-.752-.787-.55,0-.914.66-1.053,1.3l-.012.006v3.7a1.591,1.591,0,0,1-3.176,0c-.006-.086-.006-6.057,0-6.166a1.6,1.6,0,0,1,3.176,0v.84l.012-.006a3.616,3.616,0,0,1,2.9-1.84c2.3-.012,2.065,2.7,2.065,4.969l0,2.2a1.643,1.643,0,0,1-1.587,1.494C16124.15,23046.932,16124.128,23046.932,16124.106,23046.93Zm-40.6,0a1.628,1.628,0,0,1-1.527-1.492l.006-4.217s-.04-.787-.752-.787c-.549,0-.907.66-1.047,1.3l-.011.006c0,1.682,0,3.631-.006,3.7a1.591,1.591,0,0,1-3.176,0v-6.166a1.591,1.591,0,0,1,1.654-1.434,1.572,1.572,0,0,1,1.521,1.434c0,.018.006.383.006.84l0-.006a3.622,3.622,0,0,1,2.91-1.84c2.3-.012,2.059,2.7,2.059,4.969l.006,2.2a1.638,1.638,0,0,1-1.581,1.494C16083.547,23046.932,16083.524,23046.932,16083.5,23046.93Zm-32.258,0a1.626,1.626,0,0,1-1.521-1.492l.006-4.217s-.041-.787-.752-.787c-.55,0-.914.66-1.047,1.3l-.018.006c.006,1.682,0,3.631,0,3.7a1.591,1.591,0,0,1-3.176,0c-.006-.086-.006-6.057,0-6.166a1.59,1.59,0,0,1,1.648-1.434,1.573,1.573,0,0,1,1.527,1.434v.84l.012-.006a3.618,3.618,0,0,1,2.909-1.84c2.3-.012,2.059,2.7,2.059,4.969l.006,2.2a1.639,1.639,0,0,1-1.586,1.494C16051.29,23046.932,16051.267,23046.932,16051.244,23046.93Zm82.88-.018a1.751,1.751,0,0,1-1.539-1.215,2.778,2.778,0,0,1-1.5,1.053,3.661,3.661,0,0,1-2.7-.381c-2.62-1.684-2.377-8.492,1.446-8.492a3.355,3.355,0,0,1,2.673,1.5c0-.021,0-.15,0-.213a1.675,1.675,0,0,1,3.344,0c0,.074.006,6.066,0,6.178a1.722,1.722,0,0,1-1.662,1.574C16134.169,23046.914,16134.146,23046.914,16134.124,23046.912Zm-4.425-4.535c0,1.395.428,2.256,1.284,2.268h.018c.85-.012,1.283-.873,1.283-2.268s-.543-2.256-1.283-2.271h-.018C16130.243,23040.121,16129.7,23040.979,16129.7,23042.377Zm-36.15,4.535a1.749,1.749,0,0,1-1.538-1.215,2.785,2.785,0,0,1-1.5,1.053,3.66,3.66,0,0,1-2.7-.381c-2.62-1.684-2.378-8.492,1.445-8.492a3.355,3.355,0,0,1,2.673,1.5c0-.021.006-.15.012-.213a1.672,1.672,0,0,1,3.337,0c.006.074.006,6.066,0,6.178a1.72,1.72,0,0,1-1.662,1.574C16093.594,23046.914,16093.571,23046.914,16093.549,23046.912Zm-4.425-4.535c0,1.395.428,2.256,1.284,2.268h.018c.855-.012,1.284-.873,1.284-2.268s-.544-2.256-1.284-2.271h-.018C16089.668,23040.121,16089.124,23040.979,16089.124,23042.377Zm18.526.012a4.526,4.526,0,1,1,4.523,4.523A4.526,4.526,0,0,1,16107.65,23042.389Zm3.257,0c0,1.6.428,2.586,1.283,2.6h.018c.856-.018,1.284-1,1.284-2.6s-.544-2.584-1.284-2.6h-.018C16111.45,23039.8,16110.907,23040.787,16110.907,23042.389Zm-5.987,4.512a1.565,1.565,0,0,1-1.439-1.475c0-.023.011-1.672,0-2.586h.006l-.006-2.932a1.62,1.62,0,0,1,1.6-1.383,1.137,1.137,0,0,1,.14.018,1.558,1.558,0,0,1,1.439,1.475c0,.018-.012,2.146,0,3.061h-.006l.006,2.451a1.62,1.62,0,0,1-1.6,1.383A1.122,1.122,0,0,1,16104.92,23046.9Zm-7.773-2.707c0-.012-.006-2.324-.012-4.256h-.428a.624.624,0,0,1-.619-.713.65.65,0,0,1,.665-.705h.376v-1.168a1.6,1.6,0,0,1,3.188,0v1.168h1.342a.713.713,0,0,1-.046,1.418h-1.3v3.551a1.848,1.848,0,0,0,2.053,1.752,2.715,2.715,0,0,1-5.223-1.047Zm-37.087-1.705a4.326,4.326,0,0,1,4.286-4.582c1.5,0,4.031.734,4.031,2.973s-2.319,2.424-5.084,2.424a2.243,2.243,0,0,0,2.308,1.475c1.892,0,2.383-.67,2.383-.67s-.168,2.8-3.609,2.8A4.312,4.312,0,0,1,16060.06,23042.488Zm3.968-2.65a2.76,2.76,0,0,0-.914,2.031,4.937,4.937,0,0,0,1.128,0,1.284,1.284,0,0,0,1.076-1.318.862.862,0,0,0-.855-.844A.782.782,0,0,0,16064.027,23039.838Zm-9.382,4.355-.012-4.256h-.428a.627.627,0,0,1-.619-.713.65.65,0,0,1,.665-.705h.376v-1.168a1.6,1.6,0,0,1,3.188,0v1.168h1.348a.713.713,0,0,1-.053,1.418h-1.295v3.551a1.852,1.852,0,0,0,2.059,1.752h-.006a2.715,2.715,0,0,1-5.223-1.047Zm96.165-9.145a20.467,20.467,0,0,1-3.6-3.893,5.694,5.694,0,0,0,3.043,1.2,5.013,5.013,0,0,0,4.512-1.678c.907-1.092,1.376-2.5,2.261-3.625a6.183,6.183,0,1,1,9.989,7.287,9.181,9.181,0,0,1-7.789,3.7A13.318,13.318,0,0,1,16150.811,23035.049Zm-177.789-.705a6.183,6.183,0,1,1,9.989-7.287c.885,1.127,1.353,2.539,2.261,3.625a5.008,5.008,0,0,0,4.512,1.678,5.694,5.694,0,0,0,3.043-1.2,20.467,20.467,0,0,1-3.6,3.893,13.324,13.324,0,0,1-8.421,2.99A9.172,9.172,0,0,1,15973.021,23034.344Zm139.152,3.518h0Zm-99.942-23.611c0-.006-7.693,10.377-7.693,10.377l-6.79-10.418a43.877,43.877,0,0,1-2.03,11.152c-1.747,5.176-7.936,7.738-10.336,1.25,0,0,4.685-1.02,6.408-12.043.573-3.674.637-9.053-2-11.164,1.533-2.1,4.344-1.955,5.432-1.8,2.516.365,3.95,2.488,4.72,3.645.549.838,5.055,7.814,5.055,7.814s5.362-7.393,5.721-7.9c1.087-1.521,2.626-3.645,5.813-3.645a5.608,5.608,0,0,1,4.229,1.666c-2.822,1.811-3.02,8.021-2.834,11.607.208,4.148,1.278,10.395,4.7,14.148a11.2,11.2,0,0,0,7.56,3.834,8.11,8.11,0,0,1-7.4,5.051C16017.27,23037.826,16010.965,23032.615,16012.231,23014.25Zm91.26,21.8a1.576,1.576,0,1,1,1.579,1.578A1.58,1.58,0,0,1,16103.491,23036.051Zm43.8-6.49a10.553,10.553,0,0,0-3.262-1.4,11.384,11.384,0,0,0-8.381,1.979c-.44-2.129.717-4.9,1.793-6.7,1.886-3.141,5.6-5.189,8.711-6.924l-6.71-.047a2.724,2.724,0,0,1-2.788-2.7,2.865,2.865,0,0,1,2.881-2.725s11.5.006,11.834,0a6.9,6.9,0,0,0,1.231-.2,2.228,2.228,0,0,0,1.3-1.215,3.158,3.158,0,0,1,1.053,1.619v-.029c1.423,4.314-3.471,7.646-6.188,9.955a44,44,0,0,1-4.483,3.521h4.234c3.522,0,5.044-1.48,5.044-1.48,2.15,2.42.4,7.316-3.28,7.316A5.675,5.675,0,0,1,16147.288,23029.561Zm-30.383-9.023c0-5.812,4.037-10.215,9.561-10.215,3.343,0,8.982,1.648,8.982,6.635s-5.171,5.4-11.337,5.4c0,0,.908,3.291,5.137,3.291s5.321-1.5,5.321-1.5-.37,6.252-8.046,6.252A9.623,9.623,0,0,1,16116.905,23020.537Zm8.838-5.906c-1.429.926-1.811,2.934-2.03,4.529a11.3,11.3,0,0,0,2.51.006,2.874,2.874,0,0,0,2.406-2.943,1.926,1.926,0,0,0-1.918-1.879A1.764,1.764,0,0,0,16125.743,23014.631Zm-17.555,12.727c-.8-1.545-.631-3.264-.653-4.951v-18.689a3.716,3.716,0,1,1,7.432,0l0,21.105a10.286,10.286,0,0,0,.277,1.875,3.4,3.4,0,0,0,1.839,1.979,4.641,4.641,0,0,1-3.465,1.729A5.971,5.971,0,0,1,16108.188,23027.357Zm-21.014-6.82c0-5.812,4.031-10.215,9.556-10.215,3.337,0,8.982,1.648,8.982,6.635s-5.171,5.4-11.337,5.4c0,0,.908,3.291,5.137,3.291s5.321-1.5,5.321-1.5-.37,6.252-8.046,6.252A9.62,9.62,0,0,1,16087.175,23020.537Zm8.832-5.906c-1.429.926-1.811,2.934-2.03,4.529a11.308,11.308,0,0,0,2.511.006,2.874,2.874,0,0,0,2.406-2.943,1.926,1.926,0,0,0-1.918-1.879A1.767,1.767,0,0,0,16096.007,23014.631Zm-17.565,12.727c-.053-.105-.1-.221-.15-.33-.33,1.527-2.384,2.8-3.679,3.141a8.2,8.2,0,0,1-6.027-.84c-5.854-3.764-5.31-18.965,3.222-18.965a7.48,7.48,0,0,1,5.969,3.35l.012-10a3.719,3.719,0,0,1,7.438,0l-.006,21.105a10.3,10.3,0,0,0,.278,1.875,3.4,3.4,0,0,0,1.845,1.979,4.66,4.66,0,0,1-3.471,1.729A5.986,5.986,0,0,1,16078.441,23027.357Zm-6.93-6.947c0,3.117.954,5.031,2.863,5.061h.04v-.006c1.909-.023,2.863-1.937,2.863-5.061s-1.209-5.021-2.863-5.061h-.04C16072.727,23015.383,16071.512,23017.287,16071.512,23020.41Zm-15.576,7.154a4.41,4.41,0,0,1-.411-1.238,5.219,5.219,0,0,1-.087-.8l.006-8.525c-.006,0-.1-1.766-1.683-1.766-1.221,0-2.03,1.471-2.337,2.91v8.809a3.542,3.542,0,0,1-7.08.006c0-.045.023-9.977,0-12.014a3.6,3.6,0,0,0-2.116-3.586,4.653,4.653,0,0,1,3.464-1.729c3.407,0,5.634,2.047,5.721,4.875.625-1.012,2.806-4.111,6.49-4.111,5.46,0,4.708,7.074,4.592,11.1,0,1.162,0,2.43.012,3.33a10.812,10.812,0,0,0,.272,1.875,3.4,3.4,0,0,0,1.845,1.979,4.656,4.656,0,0,1-3.465,1.729A5.514,5.514,0,0,1,16055.936,23027.564Zm-33.854-7.258a10.1,10.1,0,1,1,10.1,10.1A10.094,10.094,0,0,1,16022.081,23020.307Zm10.175,5.813v-.006c1.9-.035,2.857-2.227,2.857-5.807s-1.209-5.773-2.857-5.814h-.047c-1.648.041-2.863,2.234-2.863,5.814s.961,5.771,2.863,5.807v.006c.006,0,.012-.006.023-.006S16032.244,23026.119,16032.256,23026.119Zm88.692-18.318a2.372,2.372,0,0,1,0-4.736c.1-.006,10.978-.006,11.094,0a2.372,2.372,0,0,1,0,4.736c-.053,0-2.8,0-5.543,0S16121.006,23007.8,16120.948,23007.8Z" transform="translate(-15971.896 -23000)"/></g></svg>