<svg xmlns="http://www.w3.org/2000/svg" width="116.639" height="61.477" viewBox="0 0 116.639 61.477"><defs><style>.a{fill:#172b51;}</style></defs><g transform="translate(-2.524 -2.524)"><path class="a" d="M15708.537,23080.443v-4.668a19,19,0,0,0,4.825.76c2.549,0,3.719-.748,3.719-1.895,0-1.025-1.014-1.617-2.282-2.016-.307-.105-.776-.25-1.095-.354-2.844-.9-5.219-2.578-5.219-5.932,0-3.789,2.838-6.338,7.554-6.338a21.89,21.89,0,0,1,4.981.648v4.328a17.156,17.156,0,0,0-4-.621c-2.051,0-3.163.689-3.163,1.658,0,1.238,1.5,1.668,2.341,1.934l1.413.447c3.319,1.059,4.831,3.33,4.831,5.8,0,5.092-4.478,6.807-8.388,6.807A30.443,30.443,0,0,1,15708.537,23080.443Zm39.714-9.945a10.707,10.707,0,1,1,10.705,10.5A10.4,10.4,0,0,1,15748.251,23070.5Zm5.41.006a5.292,5.292,0,1,0,5.289-5.334A5.242,5.242,0,0,0,15753.661,23070.5Zm-26.258-.006c0-6.053,4.564-10.49,10.8-10.49a15.536,15.536,0,0,1,4.657.73v5.439a8.959,8.959,0,0,0-4.3-1.084,5.413,5.413,0,1,0,0,10.82,9.134,9.134,0,0,0,4.3-1.076v5.438a16.377,16.377,0,0,1-4.657.719C15732.449,23080.994,15727.4,23077.033,15727.4,23070.5Zm-53.378,0c0-6.053,4.57-10.49,10.791-10.49a15.414,15.414,0,0,1,4.663.73v5.439a8.86,8.86,0,0,0-4.292-1.084,5.414,5.414,0,1,0,0,10.82,9.033,9.033,0,0,0,4.292-1.076v5.438a16.257,16.257,0,0,1-4.663.719C15679.07,23080.994,15674.025,23077.033,15674.025,23070.5Zm105.755,10.137v-2.189h-.012l-.812,2.189h-.353l-.788-2.189h-.018v2.189h-.376v-2.67h.585l.8,2.189h.012l.771-2.184h.573v2.664Zm-3.823,0v-2.352h-.9v-.318h2.184v.318h-.909v2.352Zm-79.445,0v-20.268h5.115v20.268Zm51.942-29.385a2.532,2.532,0,0,1-1.234-2.283v-26.912a2.532,2.532,0,0,1,5.063,0v26.912a2.532,2.532,0,0,1-1.234,2.283,2.521,2.521,0,0,1-2.595,0Zm-57.034-2.283v-26.912a2.537,2.537,0,0,1,5.074,0v26.912a2.538,2.538,0,0,1-5.074,0Zm83.674-5.057v-5.322a2.534,2.534,0,0,1,5.068,0v5.322a2.534,2.534,0,1,1-5.068,0Zm-13.948,0v-12.3a2.546,2.546,0,0,1,5.092,0v12.3a2.546,2.546,0,0,1-5.092,0Zm-55.782,0v-12.3a2.54,2.54,0,0,1,5.08,0v12.3a2.54,2.54,0,0,1-5.08,0Zm-27.892,0v-12.3a2.537,2.537,0,0,1,5.074,0v12.3a2.537,2.537,0,0,1-5.074,0Zm55.794,0v-12.3a2.532,2.532,0,0,1,5.063,0v12.3a2.531,2.531,0,0,1-5.062,0Zm-13.954,0v-5.322a2.531,2.531,0,0,1,5.063,0v5.322a2.531,2.531,0,0,1-5.062,0Zm-55.788,0v-5.322a2.54,2.54,0,0,1,5.08,0v5.322a2.541,2.541,0,0,1-5.08,0Z" transform="translate(-15661 -23017)"/></g></svg>