<svg xmlns="http://www.w3.org/2000/svg" width="160.236" height="29.857" viewBox="0 0 160.236 29.857"><defs><style>.a{fill:#11203d;}</style></defs><g transform="translate(-0.002 0.002)"><path class="a" d="M15561.207,23017.453a3.946,3.946,0,1,1,3.946,3.951A3.944,3.944,0,0,1,15561.207,23017.453Zm-22.578-6.963c0-6.02,3.646-11.393,10.5-11.393,7.049,0,9.816,5.1,9.816,10.654a15.132,15.132,0,0,1-.271,2.8h-13.155c.393,2.445,2.808,3.473,5.887,3.473a14.411,14.411,0,0,0,2.8-.283,19.3,19.3,0,0,0,2.288-.641l1.063,4.9a16.115,16.115,0,0,1-3.275,1.023,19.637,19.637,0,0,1-4.027.369C15543.476,23021.4,15538.629,23017.424,15538.629,23010.49Zm6.742-2.721h7.031a3.491,3.491,0,0,0-3.4-3.691A3.564,3.564,0,0,0,15545.371,23007.77Zm-75.011,2.646c0-5.211,3.039-11.283,11.37-11.283,8.089,0,10.851,6.262,10.851,10.924,0,7.836-5.634,11.342-11.2,11.342C15474.9,23021.4,15470.36,23016.951,15470.36,23010.416Zm7.273-.145c0,3.541,1.52,5.83,3.843,5.83,2.259,0,3.743-2.307,3.743-5.865,0-2.68-.976-5.8-3.721-5.8C15478.657,23004.436,15477.634,23007.445,15477.634,23010.271Zm-41.159.219c0-6.02,3.646-11.393,10.5-11.393,7.049,0,9.815,5.1,9.815,10.654a15.132,15.132,0,0,1-.271,2.8h-13.161c.393,2.445,2.813,3.473,5.894,3.473a14.4,14.4,0,0,0,2.8-.283,19.246,19.246,0,0,0,2.288-.641l1.063,4.9a16.143,16.143,0,0,1-3.276,1.023,19.681,19.681,0,0,1-4.027.369C15441.322,23021.4,15436.475,23017.424,15436.475,23010.49Zm6.742-2.721h7.031a3.49,3.49,0,0,0-3.4-3.691A3.564,3.564,0,0,0,15443.217,23007.77Zm81.765,5.859v-8.742h-2.744v-5.287h2.744v-5.8l6.985-.791v6.592h4.61v5.287h-4.61v7.551a3.222,3.222,0,0,0,.745,2.346,2.769,2.769,0,0,0,2.034.693,15.253,15.253,0,0,0,2.438-.352c0,.023.059,5.586.053,5.592a15.466,15.466,0,0,1-2.058.416,20.413,20.413,0,0,1-2.98.242C15527.177,23021.375,15524.981,23018.436,15524.981,23013.629Zm-16.512,0v-8.742h-2.739v-5.287h2.739v-5.8l6.984-.791v6.592h4.616v5.287h-4.616v7.551a3.218,3.218,0,0,0,.746,2.346,2.78,2.78,0,0,0,2.039.693,15.388,15.388,0,0,0,2.438-.352c0,.023.058,5.586.052,5.592a15.374,15.374,0,0,1-2.062.416,20.307,20.307,0,0,1-2.981.242C15510.671,23021.375,15508.47,23018.436,15508.47,23013.629Zm-99.606,7.342v-29.09c2.779-.236,5.286-.334,8.106-.334,10.977,0,17.344,5.285,17.344,14.721,0,7.551-4.6,14.092-15.651,14.664-.52.023-1.179.039-1.728.039Zm7.031-23.5v17.771h2.259c.347,0,.688-.012,1.028-.035,3.565-.295,7.72-2.461,7.72-8.943,0-6.217-4.42-8.908-8.568-8.908C15417.668,22997.359,15416.675,22997.4,15415.895,22997.475Zm79.789,23.463V22999.6h7.135v21.338Zm-35.671,0v-28.912h7.129v28.912Zm35.671-23.365v-5.541h7.135v5.541Z" transform="translate(-15408.861 -22991.549)"/></g></svg>