<svg xmlns="http://www.w3.org/2000/svg" width="157" height="46.776" viewBox="0 0 157 46.776"><defs><style>.a{fill:#FFFFFF;}</style></defs><g transform="translate(-302 -802.447)"><path class="a" d="M106.694,2.783H91.537l.023,14.46L70.109,30.617,65.7,28.037l21.452-13.51-9.572-6.11L55.987,21.927l-3.665-2.445L73.706,6.04,64.066,0,39.689,15.269c-3.447-8.8-12.32-12.484-23.171-12.484H0V44.493H20.282c9.6,0,17.016-4.971,19.772-13.054L64.406,46.776,91.553,29.721l-.014,14.771H120.1V31.1H106.7V2.783ZM17.182,31.99H15.157V15.838h2.026c5.532,0,8.906,2.489,8.906,8.354,0,5.475-3.872,7.8-8.906,7.8ZM138.6,2.783H123.446V44.493H152V31.105H138.6Zm11.331-.257h1.191v3.1h.475v-3.1h1.191V2.1h-2.858ZM156.32,2.1l-1,2.974h-.01l-1-2.974h-.682V5.623h.462V3.545c0-.1-.01-.548-.01-.873h.01l.991,2.951h.471l.991-2.956h.01c0,.328-.01.774-.01.879V5.623H157V2.1h-.68Z" transform="translate(302 802.447)"/></g></svg>