<svg xmlns="http://www.w3.org/2000/svg" width="111" height="111" viewBox="0 0 111 111"><rect width="111" height="111" fill="rgba(255,255,255,0)"/><path d="M90.317,92.318l-2.906-4.561a1.457,1.457,0,0,1-.18-1.164c.021-.1,2.543-9.469,2.863-15.6.209-4.043-.768-10.666-1.541-15.98-.426-2.867-.783-5.344-.91-7.008-.355-4.8-1.477-6.25-3.061-6.977a5.87,5.87,0,0,0-2.18-.539,31.674,31.674,0,0,1,.486,8.715,1.443,1.443,0,0,1-1.453,1.309H81.3a1.446,1.446,0,0,1-1.3-1.584,30.366,30.366,0,0,0-.771-9.4v-.109c-.354-1.887-1.225-4.916-2.061-5.738a5.8,5.8,0,0,0-4.631-1.277c.328,3.5,1.2,12.764,1.344,15.307a1.446,1.446,0,0,1-1.365,1.531h-.088a1.452,1.452,0,0,1-1.453-1.373c-.162-3.039-1.453-16.41-1.453-16.537,0-.08-.223-2.111-1.82-2.623a5.172,5.172,0,0,0-4.115.525,1.929,1.929,0,0,0-.727,1.59c.5,8.416.818,16.6.928,19.508a1.451,1.451,0,1,1-2.9.109c-.246-6.3-.547-12.887-.9-18.887V31.3c-.639-11.307-1.43-20.5-2.1-21.848-.42-.848-.885-.928-1.064-.928a3.73,3.73,0,0,0-2.311.889c-.428,3.414-.289,28.648-.057,32.055.2,2.748-.67,17.383-.67,18a1.46,1.46,0,0,1-1.457,1.361h-.061A1.447,1.447,0,0,1,50.9,59.3c.047-.854.1-2.025.178-3.348a11.939,11.939,0,0,1-3.369-4.592c-.779-1.742-2.832-4.854-8-6.824-2.223-.844-3.7-.469-4.359.17A1.4,1.4,0,0,0,35,46.24a16.456,16.456,0,0,0,2.8,3.951,35.638,35.638,0,0,1,3.926,5.375,41.414,41.414,0,0,1,2.607,6.094,34.549,34.549,0,0,0,2.631,5.975c.539.893,1.129,1.834,1.729,2.807A90.779,90.779,0,0,1,54,79.672c1.174,2.561,6.01,5.4,7.773,6.281a1.453,1.453,0,0,1,.211,2.535,1.482,1.482,0,0,1-1.48.084c-.738-.412-7.3-3.727-9.111-7.674A91.645,91.645,0,0,0,46.306,72c-.609-.977-1.209-1.926-1.752-2.828a36.76,36.76,0,0,1-2.906-6.539,39.894,39.894,0,0,0-2.424-5.682,32.965,32.965,0,0,0-3.629-4.934A17.692,17.692,0,0,1,32.3,47.189,4.292,4.292,0,0,1,33.35,42.6c1.68-1.645,4.451-1.947,7.418-.814,4.512,1.734,7.953,4.707,9.6,8.336a11.989,11.989,0,0,0,.92,1.736c.205-4.363.377-8.9.285-10.172-.109-1.492-.236-9.889-.236-17.291-.035-15.787.3-16.174.766-16.711a6.651,6.651,0,0,1,5.09-2.062,4.226,4.226,0,0,1,3.3,2.5c.826,1.637,1.553,9.621,2.117,18.3a8.432,8.432,0,0,1,6-.486,5.5,5.5,0,0,1,3.467,3.594,8.66,8.66,0,0,1,7.152,2.08c1.3,1.291,2.166,4.162,2.586,5.936a8.773,8.773,0,0,1,4.027.818c2.928,1.4,4.336,4.176,4.717,9.393.123,1.563.473,4,.889,6.811.8,5.445,1.8,12.234,1.541,16.582-.289,5.572-2.215,13.328-2.8,15.582l2.578,4.027a1.453,1.453,0,0,1-.469,1.957,1.432,1.432,0,0,1-.783.227A1.455,1.455,0,0,1,90.317,92.318ZM21.93,84.242H1.462a1.455,1.455,0,0,1,0-2.91H21.93a10.171,10.171,0,0,1,20.107,0h5.2a1.455,1.455,0,0,1,0,2.91h-5.2a10.17,10.17,0,0,1-20.107,0Zm2.789-1.457a7.265,7.265,0,1,0,7.26-7.262A7.263,7.263,0,0,0,24.72,82.785ZM.013,46.957a10.172,10.172,0,0,1,20.229-1.943h7.385a1.453,1.453,0,0,1,0,2.906H20.241A10.173,10.173,0,0,1,.013,46.957Zm2.906-.49a7.268,7.268,0,1,0,7.27-7.266A7.264,7.264,0,0,0,2.919,46.467Zm43.6-29.611A9.8,9.8,0,0,1,43.766,11.6H1.462a1.453,1.453,0,0,1,0-2.906H43.688A9.873,9.873,0,0,1,57.237.738a1.454,1.454,0,0,1-1.1,2.691A6.968,6.968,0,0,0,48.571,14.8a1.454,1.454,0,0,1-2.057,2.057ZM65.409,11.6a1.453,1.453,0,0,1,0-2.906H91.563a1.453,1.453,0,1,1,0,2.906Z" transform="translate(9.001 9.002)" fill="#172b51" stroke="#172b51" stroke-width="1"/></svg>