<svg xmlns="http://www.w3.org/2000/svg" width="140" height="140" viewBox="0 0 140 140"><defs><style>.a{fill:rgba(255,255,255,0);}.b,.c{fill:#1d3665;}.c{stroke:#1d3665;stroke-width:2px;}</style></defs><g transform="translate(-299 -1413)"><rect class="a" width="140" height="140" transform="translate(299 1413)"/><path class="b" d="M16576.818,24087.617a1.971,1.971,0,1,1,0-3.941h.121a1.971,1.971,0,1,1,0,3.941Zm-84.119,0a1.971,1.971,0,1,1,0-3.941h4.754l2.3-4.551c1.021-2.02,3.783-3.32,7.029-3.32h3.869v-5.912a1.979,1.979,0,0,1,1.99-1.971h13.787l3.039-34.516a11.306,11.306,0,0,1-8.785-8.8h-12.963l8.865,19.963h4.041a1.979,1.979,0,0,1,1.99,1.971,17.7,17.7,0,0,1-35.389,0,1.989,1.989,0,0,1,2-1.971h4.242l8.229-19.963h-11.516a1.971,1.971,0,1,1,0-3.941h12.49v-3.934a1.994,1.994,0,0,1,3.988,0v3.934h13.975a11.313,11.313,0,0,1,9.168-9.141v-5.549a1.994,1.994,0,0,1,3.988,0v5.52a11.3,11.3,0,0,1,9.318,9.17h15.414v-3.934a2,2,0,0,1,3.99,0v3.934h11.963a1.971,1.971,0,1,1,0,3.941h-10.592l8.23,19.963h4.24a1.983,1.983,0,0,1,2,1.965,17.693,17.693,0,0,1-35.383,0,1.983,1.983,0,0,1,1.994-1.965H16549l8.863-19.963h-14.8a11.287,11.287,0,0,1-8.785,8.809l4.561,34.523,11.863.037a2.032,2.032,0,0,1,1.42.592,1.954,1.954,0,0,1,.568,1.416l-.113,5.826h5.82c3.246,0,6.008,1.3,7.029,3.32l2.307,4.551h3.164a1.971,1.971,0,1,1,0,3.941Zm70.574-3.941-1.418-2.793c-.193-.387-1.445-1.143-3.457-1.143h-51.615c-2.012,0-3.264.756-3.457,1.143l-1.418,2.793Zm-48.631-7.877h33.943l.08-3.893-9.3-.031a1.916,1.916,0,0,1,.016.211,1.956,1.956,0,0,1-.5,1.344,2,2,0,0,1-1.494.67h-9.328a1.994,1.994,0,0,1-1.469-.641,1.959,1.959,0,0,1-.521-1.293c0-.068,0-.137.008-.205l.006-.1h-11.437Zm20.469-5.641-.006-.006q-.009-.073-.012-.146l-2.908-21.984-1.945,22.137Zm16.559-13.437a13.814,13.814,0,0,0,17.99,0,13.444,13.444,0,0,0,4.559-8.215h-3.252v-.01c-.064.006-.127.01-.187.01a2,2,0,0,1-1.852-1.229l-8.076-19.586-8.717,19.635a2.005,2.005,0,0,1-2.164,1.146v.033h-2.865A13.443,13.443,0,0,0,16551.67,24056.721Zm-55.742.006a13.84,13.84,0,0,0,18,0,13.482,13.482,0,0,0,4.564-8.221h-3.018v-.014a2.007,2.007,0,0,1-2.02-1.172l-8.717-19.629-8.076,19.586a2,2,0,0,1-2.187,1.193v.035h-3.1A13.493,13.493,0,0,0,16495.928,24056.727Zm35.955-27a7.226,7.226,0,1,0-7.416-7.219A7.311,7.311,0,0,0,16531.883,24029.723Zm-44.891,57.895a1.971,1.971,0,1,1,0-3.941h.127a1.971,1.971,0,1,1,0,3.941Zm39.529-65.113a5.355,5.355,0,1,1,5.355,5.248A5.311,5.311,0,0,1,16526.521,24022.5Zm3.99,0a1.364,1.364,0,1,0,1.365-1.322A1.341,1.341,0,0,0,16530.512,24022.5Z" transform="translate(-16163.469 -22556)"/><path class="c" d="M16491.826,24016.768c-.283-.156-6.828-3.857-6.828-7.545a3.826,3.826,0,0,1,3.8-4.1,4.165,4.165,0,0,0,6.424,0,3.828,3.828,0,0,1,3.8,4.1c0,3.682-6.547,7.389-6.824,7.545a.393.393,0,0,1-.186.049A.361.361,0,0,1,16491.826,24016.768Zm-6.076-7.545c0,2.959,5.334,6.238,6.258,6.781.922-.549,6.256-3.828,6.256-6.781a3.1,3.1,0,0,0-3.045-3.346,4.23,4.23,0,0,0-2.916,1.561.4.4,0,0,1-.592,0,4.23,4.23,0,0,0-2.916-1.561A3.1,3.1,0,0,0,16485.75,24009.223Zm55.67,6.207a.749.749,0,0,1-.783-.711v-7.859a.75.75,0,0,1,.783-.717h3.895v-1.43a.749.749,0,0,1,.777-.711h3.121a.749.749,0,0,1,.777.711v1.43h3.895a.75.75,0,0,1,.783.717v7.859a.749.749,0,0,1-.783.711Zm0-.711h12.465v-3.477h-4.672v.711h-3.121v-.711h-4.672Zm7.793-4.906v.711h4.672v-3.664h-12.465v3.664h4.672v-.711Zm-3.121-3.67h3.121v-1.43h-3.121Z" transform="translate(-16150.639 -22515)"/></g></svg>