<svg xmlns="http://www.w3.org/2000/svg" width="140" height="140" viewBox="0 0 140 140"><g transform="translate(14 19.561)"><rect width="140" height="140" transform="translate(-14 -19.561)" fill="rgba(255,255,255,0)"/><path d="M16010,22067.111a30.535,30.535,0,0,1,21.084-29,44.973,44.973,0,0,1,8.461-1.332,36.948,36.948,0,0,1,8.023.676,30.166,30.166,0,0,1,6.793,2.5l41.045-41.047-6.652-6.652,31.045-4.441-4.43,31.047-6.654-6.656-41.045,41.055a31.662,31.662,0,0,1,3.377,14.789,37.713,37.713,0,0,1-1.529,8.488,30.506,30.506,0,0,1-59.518-9.434Zm32.307,23.238v3.586a26.721,26.721,0,0,0,15.91-6.594l-2.543-2.535A23.206,23.206,0,0,1,16042.306,22090.35Zm-19.5-3.008a26.7,26.7,0,0,0,15.912,6.594v-3.586a23.2,23.2,0,0,1-13.369-5.543Zm-2.035-20.23a19.738,19.738,0,1,0,19.732-19.742A19.76,19.76,0,0,0,16020.774,22067.111Zm37.441,15.156,2.531,2.539a26.822,26.822,0,0,0,6.594-15.9h-3.586A23.315,23.315,0,0,1,16058.216,22082.268Zm-37.937,2.539,2.531-2.539a23.33,23.33,0,0,1-5.541-13.359h-3.584A26.69,26.69,0,0,0,16020.278,22084.807Zm37.938-32.859a23.3,23.3,0,0,1,5.539,13.367h3.586a26.8,26.8,0,0,0-6.594-15.9Zm-44.531,13.367h3.584a23.32,23.32,0,0,1,5.541-13.367l-2.531-2.531A26.73,26.73,0,0,0,16013.685,22065.314Zm82.676-70.52,4.121,4.121-42.912,42.91a30.872,30.872,0,0,1,8.232,8.223l42.912-42.91,4.111,4.121,2.742-19.207Zm-54.055,49.078a23.154,23.154,0,0,1,13.367,5.543l2.543-2.543a26.866,26.866,0,0,0-15.91-6.594Zm-19.5,3,2.543,2.543a23.149,23.149,0,0,1,13.369-5.543v-3.594A26.841,26.841,0,0,0,16022.81,22046.873Zm46.945,36.91,3.586-3.582,2.541,2.531-3.594,3.6Zm-31.234-.523v-3.457a15.633,15.633,0,0,1-9.275-3.91l3.994-5.711a11.841,11.841,0,0,0,8.172,3.277c1.449,0,2.811-.5,2.811-1.488s-1.062-1.48-3.566-1.941c-4.189-.754-10.574-1.746-10.574-8.094,0-3.84,2.859-7.379,8.439-8.094v-3.574h4.867v3.645a15.872,15.872,0,0,1,7.984,3.348l-4.1,5.434a12.675,12.675,0,0,0-7.07-2.5c-1.906,0-2.324.684-2.324,1.332,0,.984,1.023,1.332,3.725,1.785,4.18.715,10.377,1.938,10.377,7.789,0,4.9-3.187,7.98-8.59,8.668v3.5Zm36.617-4.855,15.2-15.2,2.531,2.543-15.184,15.2Zm-53.836-43.074,3.584-3.59,2.533,2.539-3.586,3.586Zm5.383-5.379,19-19,2.531,2.531-19,19Z" transform="translate(-16009.001 -21986.002)" fill="#1d3665" stroke="#1d3665" stroke-width="1"/><g transform="translate(65.666 2.085) rotate(45)" fill="none"><path d="M49.5,58.41v-42.8H44.879L55.307,1.793l10.842,13.82H60.842V71.688ZM5.318,13.816H0L10.854,0,21.281,13.816H16.658v42.8L5.318,69.891Z" stroke="none"/><path d="M 57.24179458618164 61.92921829223633 L 57.24179458618164 15.61328792572021 L 57.24179458618164 12.01328754425049 L 58.74874496459961 12.01328754425049 L 55.3621940612793 7.696364879608154 L 52.10497665405273 12.01328754425049 L 53.10195541381836 12.01328754425049 L 53.10195541381836 15.61328792572021 L 53.10195541381836 57.08205795288086 L 57.24179458618164 61.92921829223633 M 8.918355941772461 60.13454055786133 L 13.05820655822754 55.28879547119141 L 13.05820655822754 13.81641292572021 L 13.05820655822754 10.21641254425049 L 14.05396366119385 10.21641254425049 L 10.79645442962646 5.900319576263428 L 7.405938625335693 10.21641254425049 L 8.918355941772461 10.21641254425049 L 8.918355941772461 13.81641292572021 L 8.918355941772461 60.13454055786133 M 60.84179306030273 71.6875 L 49.50195693969727 58.41016387939453 L 49.50195693969727 15.61328792572021 L 44.87890625 15.61328792572021 L 55.30664443969727 1.792974948883057 L 66.14844512939453 15.61328792572021 L 60.84179306030273 15.61328792572021 L 60.84179306030273 71.6875 Z M 5.318356037139893 69.890625 L 5.318356037139893 13.81641292572021 L 6.24999984211172e-06 13.81641292572021 L 10.85351848602295 0 L 21.2812557220459 13.81641292572021 L 16.65820693969727 13.81641292572021 L 16.65820693969727 56.6171875 L 5.318356037139893 69.890625 Z" stroke="none" fill="#1d3665"/></g></g></svg>