<svg xmlns="http://www.w3.org/2000/svg" width="266.304" height="48.461" viewBox="0 0 266.304 48.461"><defs><style>.a{fill:#fff;}</style></defs><g transform="translate(-38 -39.189)"><g transform="translate(38 39.189)"><g transform="translate(83.818 11.912)"><path class="a" d="M192.021,310.685c.351,0,.514.124.514.5v1.3c0,.373-.163.519-.514.519H189.1v11.238c0,.373-.144.539-.5.539h-1.813c-.349,0-.494-.166-.494-.539V313.007h-2.925c-.371,0-.515-.145-.515-.519v-1.3c0-.375.144-.5.515-.5Z" transform="translate(-182.71 -310.518)"/><path class="a" d="M192.343,324.783c-.371,0-.5-.166-.5-.539v-13.02c0-.373.124-.539.5-.539h7.045c.351,0,.515.124.515.5v1.3c0,.373-.165.519-.515.519H194.63v3.359h4.409c.371,0,.536.124.536.5v1.244c0,.353-.165.5-.536.5H194.63v3.856h4.965c.371,0,.515.125.515.5v1.308c0,.372-.144.517-.515.517Z" transform="translate(-180.315 -310.518)"/><path class="a" d="M205.223,317.216a24.455,24.455,0,0,1-.6-3.8,28.3,28.3,0,0,1-.638,3.773l-.7,2.322H205.9Zm.351-6.531a.592.592,0,0,1,.638.517l3.853,13.064c.1.331-.022.517-.372.517h-1.854c-.37,0-.494-.186-.6-.517l-.741-2.531h-3.832l-.722,2.531c-.1.331-.227.517-.6.517h-1.688c-.351,0-.475-.186-.372-.517l3.853-13.064a.592.592,0,0,1,.638-.517Z" transform="translate(-178.343 -310.518)"/><path class="a" d="M221.694,324.265c0,.352-.123.517-.494.517h-1.709c-.371,0-.5-.166-.5-.517v-7.9a18.03,18.03,0,0,1-.6,1.908l-1.565,3.856a.7.7,0,0,1-.68.517h-1.463a.681.681,0,0,1-.66-.517l-1.751-4.167a15.476,15.476,0,0,1-.474-1.556v7.859c0,.352-.124.517-.494.517h-1.628c-.371,0-.494-.166-.494-.517V311.2c0-.352.123-.519.494-.519h1.628a.424.424,0,0,1,.453.291l3.152,7.236c.165.373.349.933.515,1.452.163-.5.37-1.058.536-1.431l3.048-7.3c.084-.187.227-.25.475-.25H221.2c.371,0,.494.167.494.519Z" transform="translate(-175.697 -310.518)"/><path class="a" d="M227.262,313.007v4.458H229.3c1.38,0,2.225-.519,2.225-1.534v-1.369c0-1.037-.845-1.555-2.225-1.555Zm0,6.78v4.458c0,.372-.124.539-.5.539h-1.792c-.371,0-.5-.167-.5-.539v-13.02c0-.373.124-.539.5-.539H229.3c3.729,0,4.987,1.638,4.987,3.378v2.344c0,1.742-1.257,3.38-4.987,3.38Z" transform="translate(-171.626 -310.518)"/><path class="a" d="M234.41,324.783c-.371,0-.5-.166-.5-.539v-13.02c0-.373.124-.539.5-.539h7.045c.351,0,.515.124.515.5v1.3c0,.373-.165.519-.515.519H236.7v3.359h4.409c.371,0,.536.124.536.5v1.244c0,.353-.165.5-.536.5H236.7v3.856h4.965c.371,0,.515.125.515.5v1.308c0,.372-.144.517-.515.517Z" transform="translate(-169.114 -310.518)"/><path class="a" d="M245.01,313.007v4.084h2.04c1.379,0,2.225-.519,2.225-1.555v-.975c0-1.036-.846-1.555-2.225-1.555Zm-2.287,11.777c-.371,0-.5-.166-.5-.539v-13.02c0-.373.124-.539.5-.539h4.327c3.728,0,4.985,1.639,4.985,3.38v1.969A3.032,3.032,0,0,1,249.79,319l2.2,5.245c.146.331-.1.539-.474.539h-1.936c-.329,0-.433-.208-.576-.539l-2-4.831h-2v4.831c0,.373-.124.539-.494.539Z" transform="translate(-166.901 -310.518)"/><path class="a" d="M259.927,310.685c.351,0,.514.124.514.5v1.3c0,.373-.163.519-.514.519h-5.254v3.359h4.9c.372,0,.515.124.515.5v1.327c0,.375-.143.519-.515.519h-4.9v5.536c0,.373-.124.539-.494.539h-1.793c-.371,0-.5-.166-.5-.539v-13.02c0-.373.124-.539.5-.539Z" transform="translate(-164.328 -310.518)"/><path class="a" d="M267.306,314.432c0-1.037-.846-1.555-2.225-1.555s-2.2.517-2.2,1.555v6.677c0,1.036.824,1.555,2.2,1.555s2.225-.519,2.225-1.555Zm-7.232-.5c0-1.741,1.278-3.38,5.007-3.38s5.005,1.639,5.005,3.38v7.672c0,1.742-1.278,3.38-5.005,3.38s-5.007-1.638-5.007-3.38Z" transform="translate(-162.149 -310.554)"/><path class="a" d="M272.876,313.007v4.084h2.04c1.38,0,2.225-.519,2.225-1.555v-.975c0-1.036-.845-1.555-2.225-1.555Zm-2.287,11.777c-.371,0-.5-.166-.5-.539v-13.02c0-.373.124-.539.5-.539h4.327c3.728,0,4.985,1.639,4.985,3.38v1.969A3.032,3.032,0,0,1,277.656,319l2.2,5.245c.146.331-.1.539-.474.539H277.45c-.329,0-.433-.208-.576-.539l-2-4.831h-2v4.831c0,.373-.124.539-.494.539Z" transform="translate(-159.481 -310.518)"/><path class="a" d="M292.262,324.265c0,.352-.123.517-.494.517h-1.71c-.371,0-.5-.166-.5-.517v-7.9a18.029,18.029,0,0,1-.6,1.908l-1.565,3.856a.7.7,0,0,1-.68.517h-1.463a.681.681,0,0,1-.66-.517l-1.751-4.167a15.146,15.146,0,0,1-.474-1.556v7.859c0,.352-.124.517-.494.517h-1.628c-.371,0-.494-.166-.494-.517V311.2c0-.352.123-.519.494-.519h1.628a.424.424,0,0,1,.453.291l3.152,7.236c.165.373.35.933.515,1.452.163-.5.37-1.058.536-1.431l3.048-7.3c.084-.187.227-.25.475-.25h1.71c.371,0,.494.167.494.519Z" transform="translate(-156.908 -310.518)"/><path class="a" d="M296.955,317.216a24.457,24.457,0,0,1-.6-3.8,28.308,28.308,0,0,1-.638,3.773l-.7,2.322h2.616Zm.351-6.531a.592.592,0,0,1,.638.517l3.853,13.064c.1.331-.022.517-.372.517h-1.854c-.37,0-.494-.186-.6-.517l-.741-2.531H294.4l-.722,2.531c-.1.331-.227.517-.6.517h-1.688c-.351,0-.475-.186-.372-.517l3.853-13.064a.592.592,0,0,1,.638-.517Z" transform="translate(-153.919 -310.518)"/><path class="a" d="M310.934,324.265c0,.352-.123.517-.494.517h-1.627c-.268,0-.372-.063-.474-.249l-3.977-6.863a12.89,12.89,0,0,1-.823-1.7v8.294c0,.352-.124.517-.5.517h-1.627c-.371,0-.5-.166-.5-.517V311.2c0-.352.124-.519.5-.519h1.627a.43.43,0,0,1,.433.208l4.141,7.153a15.335,15.335,0,0,1,.7,1.452V311.2c0-.352.123-.519.5-.519h1.627c.371,0,.494.167.494.519Z" transform="translate(-151.273 -310.518)"/><path class="a" d="M320.593,321.605c0,1.742-1.112,3.38-4.841,3.38s-4.842-1.638-4.842-3.38v-7.672c0-1.741,1.113-3.378,4.842-3.378s4.841,1.638,4.841,3.378v1c0,.375-.124.52-.474.52H318.41c-.372,0-.515-.145-.515-.52v-.5c0-1.037-.722-1.555-2.1-1.555s-2.08.517-2.08,1.555v6.677c0,1.036.7,1.555,2.08,1.555s2.1-.519,2.1-1.555v-.788c0-.373.143-.519.515-.519h1.709c.349,0,.474.145.474.519Z" transform="translate(-148.614 -310.554)"/><path class="a" d="M320.824,324.783c-.371,0-.5-.166-.5-.539v-13.02c0-.373.124-.539.5-.539h7.045c.351,0,.515.124.515.5v1.3c0,.373-.165.519-.515.519h-4.759v3.359h4.409c.371,0,.536.124.536.5v1.244c0,.353-.165.5-.536.5h-4.409v3.856h4.965c.371,0,.515.125.515.5v1.308c0,.372-.144.517-.515.517Z" transform="translate(-146.106 -310.518)"/><g transform="translate(0 19.927)"><path class="a" d="M223.6,340.512c0,.373-.124.539-.5.539h-1.792c-.371,0-.5-.166-.5-.539v-13.02c0-.373.124-.539.5-.539h1.792c.371,0,.5.166.5.539Z" transform="translate(-220.822 -326.786)"/><path class="a" d="M235.29,340.533c0,.352-.123.517-.494.517h-1.627c-.268,0-.372-.062-.474-.249l-3.977-6.863a12.9,12.9,0,0,1-.823-1.7v8.294c0,.352-.124.517-.5.517h-1.627c-.371,0-.5-.166-.5-.517V327.469c0-.352.124-.517.5-.517H227.4a.43.43,0,0,1,.433.208l4.141,7.153a15.346,15.346,0,0,1,.7,1.451v-8.3c0-.352.123-.517.5-.517H234.8c.371,0,.494.166.494.517Z" transform="translate(-219.636 -326.786)"/><path class="a" d="M241.99,330.575c0-1.016-.66-1.494-2-1.494s-2.02.478-2.02,1.494v.311a1.148,1.148,0,0,0,.846,1.12l3.583,1.286a3.162,3.162,0,0,1,2.431,2.985v1.6c0,1.742-1.236,3.38-4.9,3.38s-4.923-1.638-4.923-3.38v-1.306c0-.372.144-.539.514-.539h1.731c.351,0,.474.167.474.539v.933c0,1.016.8,1.494,2.183,1.494s2.2-.478,2.2-1.494v-.664c0-.891-.967-1.243-1.75-1.533l-3.194-1.223a2.978,2.978,0,0,1-1.9-2.675v-1.2c0-1.742,1.071-3.38,4.718-3.38,3.584,0,4.717,1.638,4.717,3.38v.85c0,.353-.144.519-.494.519h-1.73c-.372,0-.5-.166-.5-.519Z" transform="translate(-217.045 -326.822)"/><path class="a" d="M252.781,326.952c.351,0,.514.124.514.5v1.3c0,.373-.163.519-.514.519h-2.925v11.238c0,.373-.144.539-.5.539h-1.813c-.349,0-.494-.166-.494-.539V329.274h-2.925c-.371,0-.515-.145-.515-.519v-1.3c0-.375.144-.5.515-.5Z" transform="translate(-214.754 -326.786)"/><path class="a" d="M255.389,340.512c0,.373-.124.539-.494.539H253.1c-.371,0-.5-.166-.5-.539v-13.02c0-.373.124-.539.5-.539H254.9c.37,0,.494.166.494.539Z" transform="translate(-212.359 -326.786)"/><path class="a" d="M265.306,326.952c.351,0,.514.124.514.5v1.3c0,.373-.163.519-.514.519h-2.925v11.238c0,.373-.144.539-.5.539h-1.813c-.35,0-.494-.166-.494-.539V329.274h-2.925c-.371,0-.515-.145-.515-.519v-1.3c0-.375.144-.5.515-.5Z" transform="translate(-211.419 -326.786)"/><path class="a" d="M267.866,337.341c0,1.036.845,1.555,2.2,1.555,1.4,0,2.245-.519,2.245-1.555v-9.849c0-.373.144-.539.5-.539H274.6c.371,0,.5.166.5.539v10.345c0,1.742-1.3,3.38-5.027,3.38-3.709,0-4.985-1.638-4.985-3.38V327.492c0-.373.144-.539.494-.539h1.792c.371,0,.5.166.5.539Z" transform="translate(-209.037 -326.786)"/><path class="a" d="M283.46,326.952c.351,0,.514.124.514.5v1.3c0,.373-.163.519-.514.519h-2.925v11.238c0,.373-.144.539-.5.539h-1.813c-.349,0-.494-.166-.494-.539V329.274h-2.925c-.371,0-.515-.145-.515-.519v-1.3c0-.375.144-.5.515-.5Z" transform="translate(-206.585 -326.786)"/><path class="a" d="M283.782,341.051c-.371,0-.5-.166-.5-.539v-13.02c0-.373.124-.539.5-.539h7.045c.351,0,.515.124.515.5v1.306c0,.373-.165.519-.515.519h-4.759v3.359h4.409c.371,0,.536.124.536.5v1.244c0,.353-.165.5-.536.5h-4.409v3.856h4.965c.371,0,.515.125.515.5v1.307c0,.372-.144.517-.515.517Z" transform="translate(-204.19 -326.786)"/></g></g><g transform="translate(0 8.701)"><path class="a" d="M315.121,352.265l16.654-.024c-.36.485-.752.958-1.152,1.417-.2.231-.408.455-.617.68l-20.569.114h-.068l-.053.04-1.632,1.19h0l-2.156,1.573-.109.08-4.028,2.938-.076.056-.022.094-1.052,4.354-.087.359-.957,3.961-4.134,3.375-4.132-3.375-.956-3.961-.087-.359-1.051-4.354-.022-.094-.076-.056-4.028-2.938-.109-.08-2.156-1.573h0l-1.632-1.19-.055-.04h-.066l-20.57-.114c-.209-.225-.415-.449-.616-.68-.4-.459-.791-.931-1.152-1.417l16.652.024,4.3.006,2.148,0h.451c.048.017.127.053.2.088l.233.12c.31.164.622.338.933.517,2.458,1.415,4.892,2.9,7.319,4.384l4.482,5.8,4.485-5.8c2.427-1.483,4.859-2.969,7.319-4.384.31-.179.622-.353.933-.517l.233-.12c.068-.035.15-.071.2-.088h.453l2.148,0Z" transform="translate(-258.348 -349.556)"/><path class="a" d="M326.355,355.632l20.291-.309c-.26.277-.525.552-.795.82a40.937,40.937,0,0,1-3.359,2.979l-17.346-2.588Z" transform="translate(-275.194 -350.316)"/><path class="a" d="M323.688,357.679l17.8,2.222a46.311,46.311,0,0,1-5.27,3.565l-14.061-4.689Z" transform="translate(-274.441 -350.897)"/><path class="a" d="M320.934,359.769l14.443,4.363q-1.182.68-2.4,1.294-1.086.547-2.193,1.042l-10.941-5.888Z" transform="translate(-273.857 -351.412)"/><path class="a" d="M318.793,361.5l11.152,5.516q-2.258.991-4.6,1.771l-7.746-6.53Z" transform="translate(-273.292 -351.838)"/><path class="a" d="M316.67,363.059l8.013,6.2q-2.323.766-4.7,1.332l-3.984-5.8.31-1.484Z" transform="translate(-272.887 -352.224)"/><path class="a" d="M316.569,387.19,320,393.011l-2.3,1.062-2.876-4.977.485.114.255.063-.117-.238c-.259-.525-.5-1.059-.75-1.588.147-.166.292-.332.44-.5.091.17.185.341.278.512.169.31.342.619.505.933l.129.253.1-.267Z" transform="translate(-272.559 -358.113)"/><path class="a" d="M315.544,366.4l3.953,5.069c-1.175.277-2.358.515-3.549.723l-.885-3.713Z" transform="translate(-272.651 -353.048)"/><path class="a" d="M319.385,384.236c.221.425.435.851.648,1.28l-.449,1.194c-.115-.234-.227-.467-.34-.7-.153-.318-.312-.635-.457-.958l-.036-.078-.1-.017-.284-.048c-.074-.154-.15-.308-.223-.463l.054-.174c.4-.014.793-.028,1.189-.036" transform="translate(-273.428 -357.444)"/><path class="a" d="M313.379,375.2l4.434,6.546-1.044-.032-.1,0-.046.1-.057,0c-.125,0-.252-.006-.378-.01l-3.218-6.255Z" transform="translate(-272.123 -355.217)"/><path class="a" d="M318.634,386.013c.105.191.209.38.313.569.168.31.342.619.5.934l.129.252.095-.266.52-1.451,3.651,5.34-2.631,1.215-3.228-4.785.1-.264.541-1.515Z" transform="translate(-273.389 -357.882)"/><path class="a" d="M317.253,387.079c.138.25.274.5.405.753l.126.243-.58-.86Z" transform="translate(-273.191 -358.145)"/><path class="a" d="M315.729,385.095q.329.637.646,1.28l-.449,1.192c-.115-.232-.227-.466-.339-.7-.153-.318-.313-.635-.458-.958l-.036-.078-.1-.018-.636-.106c.062-.193.123-.387.183-.579.4-.012.793-.026,1.191-.034" transform="translate(-272.473 -357.656)"/><path class="a" d="M311.579,376.224l3.218,5.814c-.165-.006-.332-.012-.5-.016l-.105,0-.05.11c-.075.17-.149.341-.222.509l-.579-.018-3.854-4.654Z" transform="translate(-271.246 -355.469)"/><path class="a" d="M316.052,384.342c.4-.012.793-.026,1.189-.034.221.425.436.851.648,1.28l-.451,1.194c-.114-.234-.227-.467-.34-.7-.153-.319-.31-.635-.458-.958l-.034-.078-.1-.018-.04-.006c-.049-.1-.1-.2-.147-.3l-.032-.068-.08,0-.251-.006c.032-.1.064-.2.1-.3" transform="translate(-272.876 -357.462)"/><path class="a" d="M314.485,370.68l.9,2.611q-.78.132-1.564.246Z" transform="translate(-272.338 -354.102)"/><path class="a" d="M313.963,387.19l-.066.088.046.09c.247.472.5.943.746,1.419l-.885-.2c-.254-.289-.5-.583-.753-.878.173-.3.349-.6.529-.891l.23-.38c.225.014.449.032.674.05l-.521.7" transform="translate(-272.144 -357.988)"/><path class="a" d="M309.316,384.606l.087,0-.141.267c-.042.078-.085.154-.129.232l-2.184-3.779,2.1,3.937q-.16.295-.322.589l-.041.07.053.06c.279.322.559.643.832.972l.022.028.038.008.387.092,2.786,5.229-1.064.491-2.018.932-3.53-10.036,3.132,10.218-1.113.515c-1.078.5-2.16.994-3.235,1.5l-.024-2.557q-.009-1.443-.04-2.883c-.031-1.923-.073-3.845-.141-5.768-.066,1.924-.108,3.846-.139,5.768-.022.96-.034,1.921-.042,2.883l-.024,2.557c-1.076-.5-2.156-1-3.234-1.5l-1.014-.469,3.032-10.264-3.629,9.989-1.919-.885-.966-.445,2.76-5.294.314-.074.037-.008.024-.028c.272-.329.553-.65.832-.972l.052-.06-.04-.07c-.1-.182-.2-.365-.3-.547l2.074-3.979-2.205,3.741c-.036-.066-.072-.13-.108-.194l-.141-.267.087,0-.131-.28c-.117-.249-.225-.5-.334-.753l3.981-4.486,1.032.787,1.032-.787,3.983,4.486c-.109.252-.217.5-.334.753Z" transform="translate(-268.054 -356.174)"/><path class="a" d="M302.116,356.219l3.9,5.51,3.888-5.492c-.267-.529-.515-1.06-.746-1.6a13.749,13.749,0,0,1-.663-1.874,3.54,3.54,0,0,1-.135-1.03,1.141,1.141,0,0,1,.177-.555,1.084,1.084,0,0,1,.434-.377,2.308,2.308,0,0,1,1.014-.2,4.764,4.764,0,0,1,.809.072,2.08,2.08,0,0,0-.254-.475,4.33,4.33,0,0,0-.489-.569c-.179-.179-.368-.347-.563-.507s-.384-.308-.586-.445c-.624.008-1.249,0-1.872.02l-1.821.047-1.3,1.817-.906,2.9-.46,1.461c-.139.435-.272.873-.429,1.3" transform="translate(-269.386 -348.678)"/><path class="a" d="M303.607,377.965l-3.854,4.654-.578.018c-.076-.168-.15-.338-.225-.509l-.048-.11-.1,0c-.165,0-.333.01-.5.016l3.217-5.814Z" transform="translate(-268.424 -355.469)"/><path class="a" d="M300.755,386.821c.179.295.354.593.529.891-.248.295-.5.589-.753.878l-.885.2c.245-.475.5-.946.746-1.419l.046-.09-.065-.088c-.175-.232-.348-.466-.521-.7.225-.018.447-.036.672-.05Z" transform="translate(-268.763 -357.988)"/><path class="a" d="M299.873,370.68l.66,2.857q-.782-.114-1.563-.246Z" transform="translate(-268.593 -354.102)"/><path class="a" d="M299.664,385.129c.061.194.123.387.183.579-.211.035-.424.072-.636.106l-.1.018-.036.078c-.147.322-.3.639-.458.958-.113.233-.224.467-.34.7l-.449-1.192q.32-.643.647-1.28c.4.008.793.022,1.189.034" transform="translate(-268.305 -357.656)"/><path class="a" d="M297.993,386.949l.44.5c-.25.529-.491,1.062-.75,1.587l-.117.239.255-.063.408-.1-2.9,4.913-2.112-.973,3.341-5.86.425,1.186.1.266.129-.252c.163-.314.336-.623.505-.934.094-.17.185-.341.278-.511" transform="translate(-267.142 -358.113)"/><path class="a" d="M297.847,366.4l.481,2.08-.885,3.713c-1.191-.209-2.374-.447-3.549-.723Z" transform="translate(-267.313 -353.048)"/><path class="a" d="M295.647,363.3l.313,1.484-3.984,5.8q-2.38-.567-4.705-1.332l8.014-6.2Z" transform="translate(-265.642 -352.223)"/><path class="a" d="M296.993,384.308c.4.008.793.022,1.189.034.032.1.064.2.1.3l-.251.006-.079,0-.032.068c-.048.1-.1.2-.147.3l-.04.006-.1.018-.035.078c-.146.323-.3.64-.455.958-.114.235-.227.467-.342.7l-.449-1.194c.213-.429.428-.855.648-1.28" transform="translate(-267.931 -357.462)"/><path class="a" d="M297.052,387.832c.129-.255.268-.5.405-.753l.048.134-.519.745Z" transform="translate(-268.092 -358.145)"/><path class="a" d="M293.121,362.255l-7.746,6.53q-2.338-.781-4.6-1.771L291.93,361.5Z" transform="translate(-264.005 -351.838)"/><path class="a" d="M297.066,381.8c-.127,0-.253.008-.378.01l-.058,0-.046-.1-.106,0-1.042.032,4.435-6.546.411.343Z" transform="translate(-267.702 -355.217)"/><path class="a" d="M294.827,387.555l.087.244L291.6,392.56l-2.535-1.17,3.651-5.34.519,1.45.1.267.129-.252c.163-.315.336-.623.505-.934.1-.189.206-.379.312-.57l.01.029Z" transform="translate(-266.095 -357.882)"/><path class="a" d="M296.05,384.272c.02.058.038.116.056.174-.074.154-.15.309-.225.463l-.284.048-.1.017-.036.078c-.147.323-.3.64-.458.958-.113.235-.224.467-.339.7l-.449-1.194q.319-.643.646-1.28c.4.008.793.022,1.189.036" transform="translate(-267.393 -357.444)"/><path class="a" d="M289.8,360.58l-10.941,5.887q-1.109-.493-2.193-1.04-1.217-.613-2.4-1.294l14.443-4.364Z" transform="translate(-262.364 -351.412)"/><path class="a" d="M282.489,356.533l-17.346,2.589a41.064,41.064,0,0,1-3.358-2.98c-.271-.268-.535-.543-.8-.819l20.289.308Z" transform="translate(-259.014 -350.316)"/><path class="a" d="M286.207,358.777l-14.061,4.689a46.3,46.3,0,0,1-5.27-3.565l17.8-2.222Z" transform="translate(-260.499 -350.897)"/></g><path class="a" d="M297.963,340.114l.55,1.721,1.8,0-1.457,1.06.559,1.721-1.449-1.068-1.449,1.068.555-1.721-1.453-1.06,1.8,0Z" transform="translate(-267.747 -337.865)"/><path class="a" d="M290.164,343.99l.55,1.721,1.8,0-1.457,1.06.559,1.721-1.449-1.068-1.449,1.068.555-1.721-1.453-1.06,1.8,0Z" transform="translate(-265.78 -338.821)"/><path class="a" d="M307.1,337.129l-.551,1.721-1.8,0,1.453,1.061-.555,1.72,1.45-1.068,1.449,1.068-.559-1.72,1.457-1.061-1.8,0Z" transform="translate(-270.051 -337.129)"/><path class="a" d="M316.745,340.114l-.55,1.721-1.8,0,1.457,1.06-.559,1.721,1.449-1.068,1.449,1.068-.555-1.721,1.453-1.06-1.8,0Z" transform="translate(-272.483 -337.865)"/><path class="a" d="M324.524,343.99l-.55,1.721-1.8,0,1.457,1.06-.559,1.721,1.449-1.068,1.449,1.068-.555-1.721,1.453-1.06-1.8,0Z" transform="translate(-274.445 -338.821)"/></g></g></svg>