<svg xmlns="http://www.w3.org/2000/svg" width="36.93" height="36.931" viewBox="0 0 36.93 36.931"><defs><style>.a{fill:none;stroke:#fff;}.b{fill:#fff;}</style></defs><g transform="translate(-408.273 -6596.629)"><g transform="translate(408.773 6597.129)"><path class="a" d="M17.968,0A17.965,17.965,0,1,0,35.93,17.968,17.968,17.968,0,0,0,17.968,0Z"/><path class="b" d="M15749.585,17440.906h-13.223a1.985,1.985,0,0,1-2.136-1.9v-13.23a1.984,1.984,0,0,1,2.136-1.9h13.223a2.326,2.326,0,0,1,1.5.523,1.777,1.777,0,0,1,.647,1.377V17439a1.784,1.784,0,0,1-.647,1.379A2.323,2.323,0,0,1,15749.585,17440.906Zm-13.8-10.26h0v8.084c0,.283.04.609.354.609h13.275c.247,0,.372-.205.372-.609v-8.084h-2.035c.343,0,.434,1.008.434,1.6a5.213,5.213,0,0,1-1.579,3.756,5.465,5.465,0,0,1-7.613-.014,5.247,5.247,0,0,1-1.58-3.768c0-.494.1-1.576.386-1.576Zm7.012-1.93a3.4,3.4,0,1,0,3.405,3.4A3.4,3.4,0,0,0,15742.792,17428.717Zm4.167-3.375a.553.553,0,0,0-.556.551v1.791a.553.553,0,0,0,.556.551h1.786a.553.553,0,0,0,.556-.551v-1.791a.553.553,0,0,0-.556-.551Z" transform="translate(-15724.555 -17414.469)"/></g></g></svg>