<svg xmlns="http://www.w3.org/2000/svg" width="39.929" height="39.932" viewBox="0 0 39.929 39.932"><defs><style>.a{fill:none;stroke-miterlimit:10;}.b,.c{stroke:none;}.c{fill:#fff;}</style></defs><g transform="translate(-406.561 -6595.128)"><g class="a" transform="translate(3812.561 -3800.871)"><path class="b" d="M-3386.034,10433.931a17.851,17.851,0,0,1-6.993-1.412,17.908,17.908,0,0,1-5.711-3.85,17.9,17.9,0,0,1-3.85-5.71,17.851,17.851,0,0,1-1.412-6.991,17.853,17.853,0,0,1,1.412-6.993,17.922,17.922,0,0,1,3.85-5.712,17.919,17.919,0,0,1,5.711-3.852,17.869,17.869,0,0,1,6.993-1.412,17.861,17.861,0,0,1,6.991,1.412,17.916,17.916,0,0,1,5.71,3.852,17.918,17.918,0,0,1,3.85,5.712,17.853,17.853,0,0,1,1.412,6.993,17.851,17.851,0,0,1-1.412,6.991,17.914,17.914,0,0,1-3.85,5.71,17.91,17.91,0,0,1-5.71,3.85A17.844,17.844,0,0,1-3386.034,10433.931Zm4.713-27.732h-13.543a1.9,1.9,0,0,0-1.906,1.9v11.718a1.9,1.9,0,0,0,1.906,1.9h2.113v3.658a.529.529,0,0,0,.325.482.7.7,0,0,0,.1.008.72.72,0,0,0,.094-.008.556.556,0,0,0,.385-.191l3.794-3.949h11.228a1.91,1.91,0,0,0,1.872-1.891v-7.345a.521.521,0,0,0-.238-.506.525.525,0,0,0-.281-.082.525.525,0,0,0-.281.082.521.521,0,0,0-.238.506v7.413a.831.831,0,0,1-.833.827h-11.454a.516.516,0,0,0-.375.165l-3.056,3.105v-2.814a.524.524,0,0,0-.524-.521h-2.629a.832.832,0,0,1-.833-.83v-11.757a.832.832,0,0,1,.833-.83h13.543a.52.52,0,0,0,.458-.517A.524.524,0,0,0-3381.32,10406.2Zm-5.918,10.435a.468.468,0,0,0,.065,0,.52.52,0,0,0,.443-.241.533.533,0,0,0,0-.561.522.522,0,0,0-.439-.24.615.615,0,0,0-.069,0h-6.727a.52.52,0,0,0-.458.516.526.526,0,0,0,.458.519Zm9.954-10.649a.52.52,0,0,0-.367.149l-6.5,6.468a.522.522,0,0,0-.134.181l-1.283,3.132a.513.513,0,0,0,.044.492.522.522,0,0,0,.432.228h.039a.614.614,0,0,0,.167-.023l3.388-1.409a.465.465,0,0,0,.165-.115l6.334-6.295a.519.519,0,0,0,.16-.364.5.5,0,0,0-.16-.363l-1.922-1.93A.514.514,0,0,0-3377.284,10405.983Zm-9.954,7.518a.538.538,0,0,0,.065,0,.523.523,0,0,0,.443-.24.533.533,0,0,0,0-.561.526.526,0,0,0-.441-.243.579.579,0,0,0-.067,0h-6.727a.526.526,0,0,0-.458.519.52.52,0,0,0,.458.516Zm3.087-3.137c.021,0,.044,0,.065,0a.522.522,0,0,0,.442-.24.515.515,0,0,0,0-.561.529.529,0,0,0-.446-.242c-.021,0-.042,0-.062,0h-9.814a.526.526,0,0,0-.458.519.526.526,0,0,0,.458.519Zm0,4.794v0l.832-1.886,6.018-6.02,1.181,1.209-5.876,5.795-2.153.9Z"/><path class="c" d="M -3386.03369140625 10433.9306640625 C -3383.60791015625 10433.9306640625 -3381.255615234375 10433.455078125 -3379.042236328125 10432.5185546875 C -3376.904296875 10431.6142578125 -3374.983154296875 10430.3193359375 -3373.332275390625 10428.6689453125 C -3371.682373046875 10427.0185546875 -3370.386962890625 10425.09765625 -3369.482177734375 10422.958984375 C -3368.54541015625 10420.744140625 -3368.0703125 10418.3916015625 -3368.0703125 10415.9677734375 C -3368.0703125 10413.5419921875 -3368.54541015625 10411.189453125 -3369.482177734375 10408.974609375 C -3370.386474609375 10406.8359375 -3371.681884765625 10404.9140625 -3373.332275390625 10403.2626953125 C -3374.982421875 10401.6123046875 -3376.903564453125 10400.31640625 -3379.042236328125 10399.4111328125 C -3381.258056640625 10398.474609375 -3383.610107421875 10397.9990234375 -3386.03369140625 10397.9990234375 C -3388.457763671875 10397.9990234375 -3390.810546875 10398.474609375 -3393.02685546875 10399.4111328125 C -3395.165771484375 10400.31640625 -3397.087158203125 10401.6123046875 -3398.737548828125 10403.2626953125 C -3400.387939453125 10404.9140625 -3401.683349609375 10406.8359375 -3402.587890625 10408.974609375 C -3403.524658203125 10411.189453125 -3403.999755859375 10413.5419921875 -3403.999755859375 10415.9677734375 C -3403.999755859375 10418.3916015625 -3403.524658203125 10420.744140625 -3402.587890625 10422.958984375 C -3401.682861328125 10425.0986328125 -3400.387451171875 10427.01953125 -3398.737548828125 10428.6689453125 C -3397.0859375 10430.3193359375 -3395.16455078125 10431.615234375 -3393.02685546875 10432.5185546875 C -3390.81298828125 10433.455078125 -3388.460205078125 10433.9306640625 -3386.03369140625 10433.9306640625 M -3394.863525390625 10406.1982421875 L -3381.3203125 10406.1982421875 C -3381.05908203125 10406.2314453125 -3380.862060546875 10406.4541015625 -3380.862060546875 10406.7158203125 C -3380.862060546875 10406.9794921875 -3381.05908203125 10407.201171875 -3381.3203125 10407.232421875 L -3394.863525390625 10407.232421875 C -3395.32275390625 10407.232421875 -3395.6962890625 10407.6044921875 -3395.6962890625 10408.0625 L -3395.6962890625 10419.8193359375 C -3395.6962890625 10420.27734375 -3395.32275390625 10420.6494140625 -3394.863525390625 10420.6494140625 L -3392.234619140625 10420.6494140625 C -3391.94580078125 10420.6494140625 -3391.710693359375 10420.8837890625 -3391.710693359375 10421.1708984375 L -3391.710693359375 10423.9853515625 L -3388.655029296875 10420.8798828125 C -3388.557373046875 10420.775390625 -3388.4208984375 10420.71484375 -3388.280517578125 10420.71484375 L -3376.826904296875 10420.71484375 C -3376.36767578125 10420.71484375 -3375.994140625 10420.34375 -3375.994140625 10419.8876953125 L -3375.994140625 10412.474609375 C -3376.020263671875 10412.275390625 -3375.9267578125 10412.0771484375 -3375.755859375 10411.96875 C -3375.671142578125 10411.9150390625 -3375.57373046875 10411.88671875 -3375.474365234375 10411.88671875 C -3375.375 10411.88671875 -3375.277587890625 10411.9150390625 -3375.19287109375 10411.96875 C -3375.02197265625 10412.0771484375 -3374.928466796875 10412.275390625 -3374.95458984375 10412.474609375 L -3374.95458984375 10419.8193359375 C -3374.957275390625 10420.8447265625 -3375.797119140625 10421.6923828125 -3376.826904296875 10421.7099609375 L -3388.05517578125 10421.7099609375 L -3391.849609375 10425.6591796875 C -3391.947265625 10425.7724609375 -3392.083984375 10425.83984375 -3392.234619140625 10425.8505859375 C -3392.271240234375 10425.85546875 -3392.30126953125 10425.8583984375 -3392.328857421875 10425.8583984375 C -3392.357666015625 10425.8583984375 -3392.39208984375 10425.85546875 -3392.42578125 10425.8505859375 C -3392.620361328125 10425.76953125 -3392.747802734375 10425.580078125 -3392.75048828125 10425.3681640625 L -3392.75048828125 10421.7099609375 L -3394.863525390625 10421.7099609375 C -3395.91455078125 10421.7099609375 -3396.769775390625 10420.8583984375 -3396.769775390625 10419.8115234375 L -3396.769775390625 10408.09375 C -3396.769775390625 10407.048828125 -3395.91455078125 10406.1982421875 -3394.863525390625 10406.1982421875 M -3393.965576171875 10415.59765625 L -3393.96533203125 10415.5986328125 L -3387.23828125 10415.5986328125 C -3387.212646484375 10415.595703125 -3387.190185546875 10415.59375 -3387.169677734375 10415.59375 C -3386.991943359375 10415.59375 -3386.82763671875 10415.68359375 -3386.730224609375 10415.833984375 C -3386.6240234375 10416.005859375 -3386.6240234375 10416.2255859375 -3386.730224609375 10416.39453125 C -3386.826171875 10416.5458984375 -3386.991455078125 10416.6357421875 -3387.1728515625 10416.6357421875 C -3387.19677734375 10416.6357421875 -3387.21728515625 10416.6357421875 -3387.23828125 10416.6328125 L -3393.96533203125 10416.6328125 C -3394.2265625 10416.5986328125 -3394.423583984375 10416.3759765625 -3394.423583984375 10416.1142578125 C -3394.423583984375 10415.8515625 -3394.2265625 10415.6298828125 -3393.965576171875 10415.5986328125 L -3393.965576171875 10415.59765625 M -3377.2841796875 10405.9833984375 C -3377.1455078125 10405.9833984375 -3377.015625 10406.0361328125 -3376.91845703125 10406.1328125 L -3374.996337890625 10408.0625 C -3374.894775390625 10408.15625 -3374.836669921875 10408.2880859375 -3374.836669921875 10408.42578125 C -3374.83935546875 10408.5634765625 -3374.89599609375 10408.6923828125 -3374.996337890625 10408.7900390625 L -3381.330810546875 10415.0849609375 C -3381.373779296875 10415.1328125 -3381.430908203125 10415.1728515625 -3381.495849609375 10415.2001953125 L -3384.88427734375 10416.609375 C -3384.940185546875 10416.625 -3384.994873046875 10416.6328125 -3385.0517578125 10416.6328125 L -3385.083251953125 10416.6328125 L -3385.091064453125 10416.6328125 C -3385.264404296875 10416.6328125 -3385.429931640625 10416.5458984375 -3385.523193359375 10416.4052734375 C -3385.62109375 10416.2607421875 -3385.63818359375 10416.072265625 -3385.567626953125 10415.9130859375 L -3384.284423828125 10412.78125 C -3384.25244140625 10412.7109375 -3384.20751953125 10412.6494140625 -3384.15087890625 10412.6005859375 L -3377.651611328125 10406.1328125 C -3377.55322265625 10406.0361328125 -3377.4228515625 10405.9833984375 -3377.2841796875 10405.9833984375 M -3393.965576171875 10412.4658203125 L -3393.96533203125 10412.466796875 L -3387.23828125 10412.466796875 C -3387.21337890625 10412.4638671875 -3387.191650390625 10412.4619140625 -3387.17138671875 10412.4619140625 C -3386.994140625 10412.4619140625 -3386.829345703125 10412.552734375 -3386.730224609375 10412.705078125 C -3386.6240234375 10412.8740234375 -3386.6240234375 10413.09375 -3386.730224609375 10413.265625 C -3386.82666015625 10413.416015625 -3386.991943359375 10413.505859375 -3387.1728515625 10413.505859375 C -3387.193603515625 10413.505859375 -3387.214111328125 10413.50390625 -3387.23828125 10413.5009765625 L -3393.965576171875 10413.5009765625 C -3394.2265625 10413.4697265625 -3394.423583984375 10413.248046875 -3394.423583984375 10412.9853515625 C -3394.423583984375 10412.7236328125 -3394.2265625 10412.5009765625 -3393.96533203125 10412.466796875 L -3393.965576171875 10412.4658203125 M -3393.965576171875 10409.326171875 L -3393.96533203125 10409.3271484375 L -3384.15087890625 10409.3271484375 C -3384.13037109375 10409.3251953125 -3384.109375 10409.3232421875 -3384.088623046875 10409.3232421875 C -3383.90771484375 10409.3232421875 -3383.740966796875 10409.4140625 -3383.64306640625 10409.5654296875 C -3383.532470703125 10409.7392578125 -3383.532470703125 10409.9541015625 -3383.64306640625 10410.1259765625 C -3383.7392578125 10410.2763671875 -3383.904541015625 10410.3662109375 -3384.08544921875 10410.3662109375 C -3384.1064453125 10410.3662109375 -3384.130126953125 10410.3662109375 -3384.15087890625 10410.3642578125 L -3393.96533203125 10410.3642578125 C -3394.2265625 10410.330078125 -3394.423583984375 10410.107421875 -3394.423583984375 10409.845703125 C -3394.423583984375 10409.583984375 -3394.2265625 10409.361328125 -3393.96533203125 10409.3271484375 L -3393.965576171875 10409.326171875 M -3384.15087890625 10415.158203125 L -3384.1484375 10415.1572265625 L -3381.995849609375 10414.2548828125 L -3376.119873046875 10408.4599609375 L -3377.30078125 10407.2509765625 L -3383.318359375 10413.2705078125 L -3384.14990234375 10415.15625 L -3384.15087890625 10415.158203125 M -3386.03369140625 10435.9306640625 C -3388.728271484375 10435.9306640625 -3391.34326171875 10435.40234375 -3393.80615234375 10434.3603515625 C -3396.18017578125 10433.357421875 -3398.3154296875 10431.91796875 -3400.151123046875 10430.083984375 C -3401.984619140625 10428.2509765625 -3403.424072265625 10426.1162109375 -3404.429931640625 10423.73828125 C -3405.4716796875 10421.275390625 -3405.999755859375 10418.6611328125 -3405.999755859375 10415.9677734375 C -3405.999755859375 10413.2734375 -3405.4716796875 10410.658203125 -3404.429931640625 10408.1953125 C -3403.424560546875 10405.818359375 -3401.9853515625 10403.6826171875 -3400.152099609375 10401.8486328125 C -3398.318359375 10400.0146484375 -3396.18359375 10398.5751953125 -3393.806396484375 10397.5693359375 C -3391.340087890625 10396.52734375 -3388.725341796875 10395.9990234375 -3386.03369140625 10395.9990234375 C -3383.342529296875 10395.9990234375 -3380.728271484375 10396.52734375 -3378.263671875 10397.5693359375 C -3375.8857421875 10398.5751953125 -3373.7509765625 10400.015625 -3371.91796875 10401.8486328125 C -3370.08447265625 10403.68359375 -3368.645263671875 10405.818359375 -3367.64013671875 10408.1953125 C -3366.598388671875 10410.658203125 -3366.0703125 10413.2734375 -3366.0703125 10415.9677734375 C -3366.0703125 10418.6611328125 -3366.598388671875 10421.275390625 -3367.64013671875 10423.73828125 C -3368.6455078125 10426.1142578125 -3370.084716796875 10428.2490234375 -3371.91796875 10430.0830078125 C -3373.751708984375 10431.916015625 -3375.88623046875 10433.35546875 -3378.26318359375 10434.3603515625 C -3380.725341796875 10435.40234375 -3383.33984375 10435.9306640625 -3386.03369140625 10435.9306640625 Z"/></g></g></svg>