<?xml version="1.0" encoding="UTF-8" standalone="no"?>
<!DOCTYPE svg PUBLIC "-//W3C//DTD SVG 1.1//EN" "http://www.w3.org/Graphics/SVG/1.1/DTD/svg11.dtd">
<svg version="1.1" xmlns="http://www.w3.org/2000/svg" xmlns:xlink="http://www.w3.org/1999/xlink" preserveAspectRatio="xMidYMid meet" viewBox="0 0 111 111" width="111" height="111"><defs><path d="M112 0.02C112 0.02 112 0.02 112 0.02C112 66.6 112 103.58 112 110.98C112 110.98 112 110.98 112 110.98C45.42 110.98 8.44 110.98 1.04 110.98C1.04 110.98 1.04 110.98 1.04 110.98C1.04 44.4 1.04 7.42 1.04 0.02C1.04 0.02 1.04 0.02 1.04 0.02C67.62 0.02 104.6 0.02 112 0.02Z" id="f4MTMzAPyb"></path><path d="M1.68 99.75C1.68 99.14 1.68 98.81 1.68 98.74C1.67 92.09 6.09 86.22 12.59 84.27C8.79 81.81 7.75 76.8 10.27 73.08C12.79 69.36 17.91 68.34 21.71 70.81C25.51 73.27 26.55 78.28 24.03 82C23.42 82.9 22.63 83.67 21.71 84.27C28.2 86.22 32.63 92.09 32.62 98.74C32.62 98.81 32.62 99.14 32.62 99.75L1.68 99.75ZM30.46 97.73C29.89 90.51 23.45 85.11 16.08 85.66C9.48 86.16 4.25 91.28 3.74 97.73C3.74 97.73 27.78 97.73 30.46 97.73ZM17.16 83.61C20.57 83.61 23.35 80.9 23.35 77.56C23.35 74.21 20.57 71.5 17.16 71.5C17.15 71.5 17.15 71.5 17.15 71.5C13.73 71.51 10.97 74.22 10.96 77.56C10.96 80.9 13.74 83.61 17.16 83.61Z" id="aStp8mgu"></path><path d="M80.67 75.79L77.73 73.3L68.54 65.51L44.81 65.51L30.02 77.2L30.01 74.54L30.01 65.51C28.05 65.51 26.97 65.51 26.75 65.51C23.19 65.55 20.28 62.69 20.24 59.14C20.24 55.74 20.24 28.61 20.24 25.22C20.28 21.67 23.19 18.81 26.75 18.84C32.66 18.84 79.94 18.84 85.85 18.84C89.41 18.82 92.32 21.67 92.36 25.22C92.36 28.61 92.36 55.74 92.36 59.14C92.32 62.69 89.41 65.55 85.85 65.51C85.69 65.51 84.86 65.51 83.38 65.51L83.38 78.09L80.67 75.79Z" id="aAKuK2aUa"></path><path d="M79.37 69.45L79.37 65.51L79.37 61.52L83.37 61.52C84.86 61.52 85.68 61.52 85.85 61.52C87.23 61.52 88.36 60.45 88.36 59.14C88.36 55.74 88.36 28.61 88.36 25.22C88.36 23.91 87.23 22.84 85.85 22.84C79.94 22.84 32.65 22.84 26.74 22.84C25.36 22.84 24.23 23.91 24.23 25.22C24.23 28.61 24.23 55.74 24.23 59.14C24.23 60.45 25.36 61.52 26.74 61.52C26.96 61.52 28.05 61.52 30.01 61.52L34 61.52L34 65.51L34 68.95L42.33 62.38L43.42 61.52L44.81 61.52L68.54 61.52L70.01 61.52L71.12 62.46L79.37 69.45M80.67 75.79L77.73 73.3L68.54 65.51L44.81 65.51L30.01 77.2L30.01 74.54L30.01 74.53L30.01 70.68L30.01 65.51C28.05 65.51 26.96 65.51 26.74 65.51C23.16 65.51 20.24 62.65 20.24 59.14C20.24 55.74 20.24 28.61 20.24 25.22C20.24 21.71 23.16 18.84 26.74 18.84C32.65 18.84 79.94 18.84 85.85 18.84C89.43 18.84 92.36 21.71 92.36 25.22C92.36 28.61 92.36 55.74 92.36 59.14C92.36 62.65 89.43 65.51 85.85 65.51C85.68 65.51 84.86 65.51 83.37 65.51L83.37 70.68L83.37 74.53L83.37 78.09L80.67 75.79Z" id="a3mbNdUvhi"></path><path d="M48.3 55.48C47.14 54.99 46.5 53.74 46.78 52.5C47.05 51.33 48.41 45.46 50.84 34.9C47.05 34.9 44.94 34.9 44.52 34.9C43.56 34.9 42.69 34.38 42.23 33.54C41.78 32.71 41.82 31.69 42.33 30.89C44.09 28.17 58.16 6.43 59.92 3.71C60.41 2.97 61.22 2.52 62.11 2.52C62.46 2.52 62.8 2.59 63.12 2.73C64.28 3.22 64.92 4.47 64.64 5.71C64.37 6.88 63.01 12.75 60.57 23.31C64.37 23.31 66.48 23.31 66.9 23.31C67.85 23.31 68.73 23.83 69.18 24.66C69.64 25.5 69.6 26.52 69.08 27.32C67.32 30.04 53.25 51.78 51.49 54.5C51.01 55.24 50.2 55.69 49.31 55.69C48.96 55.69 48.62 55.62 48.3 55.48ZM54.11 29.7C54.91 29.7 55.65 30.06 56.14 30.69C56.64 31.31 56.82 32.11 56.64 32.89C56.54 33.31 56.06 35.43 55.17 39.25L62.12 28.51C59.23 28.51 57.63 28.51 57.31 28.51C56.51 28.51 55.77 28.15 55.27 27.53C54.78 26.9 54.6 26.1 54.77 25.32C54.87 24.9 55.36 22.78 56.24 18.96L49.29 29.7C52.18 29.7 53.79 29.7 54.11 29.7ZM75.18 43.35C74.62 43.03 70.19 40.47 69.64 40.15C68.4 39.43 67.97 37.84 68.69 36.6C69.15 35.8 70.01 35.3 70.94 35.3C71.4 35.3 71.85 35.42 72.24 35.65C72.8 35.97 77.22 38.53 77.78 38.85C78.38 39.19 78.81 39.75 78.99 40.42C79.17 41.1 79.08 41.8 78.73 42.4C78.27 43.2 77.4 43.69 76.48 43.69C76.02 43.69 75.57 43.57 75.18 43.35ZM32.69 42.4C32.34 41.79 32.25 41.09 32.43 40.42C32.61 39.75 33.04 39.19 33.64 38.85C34.21 38.52 38.74 35.9 39.3 35.57C39.7 35.35 40.15 35.23 40.6 35.23C41.53 35.23 42.39 35.72 42.85 36.53C43.57 37.77 43.14 39.36 41.9 40.08C41.33 40.4 36.8 43.02 36.24 43.35C35.85 43.57 35.4 43.69 34.94 43.69C34.01 43.69 33.15 43.2 32.69 42.4ZM73.3 31.7C71.86 31.7 70.7 30.54 70.7 29.1C70.7 27.67 71.86 26.51 73.3 26.51C73.94 26.51 79.05 26.51 79.69 26.51C81.12 26.51 82.29 27.67 82.29 29.1C82.29 30.54 81.12 31.7 79.69 31.7C78.41 31.7 73.94 31.7 73.3 31.7ZM31.72 31.7C30.29 31.7 29.13 30.54 29.13 29.1C29.13 27.67 30.29 26.51 31.72 26.51C32.36 26.51 37.48 26.51 38.12 26.51C39.55 26.51 40.72 27.67 40.72 29.1C40.72 30.54 39.55 31.7 38.12 31.7C36.84 31.7 32.36 31.7 31.72 31.7ZM39.3 22.63C38.73 22.31 34.21 19.69 33.64 19.36C33.04 19.02 32.61 18.46 32.43 17.79C32.25 17.11 32.34 16.41 32.69 15.81C33.15 15.01 34.01 14.51 34.94 14.51C35.39 14.51 35.84 14.63 36.24 14.86C36.8 15.19 41.33 17.81 41.9 18.13C42.5 18.48 42.93 19.04 43.11 19.71C43.29 20.38 43.2 21.08 42.85 21.68C42.39 22.48 41.53 22.98 40.6 22.98C40.14 22.98 39.69 22.86 39.3 22.63ZM68.69 21.61C68.34 21.01 68.25 20.31 68.43 19.64C68.61 18.97 69.04 18.41 69.64 18.06C70.19 17.74 74.62 15.18 75.18 14.86C75.57 14.63 76.02 14.51 76.48 14.51C77.4 14.51 78.27 15.01 78.73 15.81C79.44 17.05 79.02 18.65 77.78 19.36C77.22 19.68 72.79 22.24 72.24 22.56C71.85 22.79 71.4 22.91 70.94 22.91C70.01 22.91 69.15 22.41 68.69 21.61Z" id="d2wkAX31Cy"></path><path d="M49.31 54.69C49.84 54.69 50.35 54.42 50.66 53.96C52.41 51.24 66.48 29.49 68.24 26.78C68.56 26.28 68.59 25.66 68.31 25.14C68.02 24.63 67.49 24.31 66.9 24.31C66.39 24.31 63.87 24.31 59.32 24.31C61.92 13.01 63.37 6.74 63.66 5.48C63.84 4.73 63.44 3.95 62.73 3.65C62.53 3.56 62.32 3.52 62.11 3.52C61.58 3.52 61.07 3.79 60.76 4.25C59 6.97 44.93 28.72 43.17 31.43C42.86 31.93 42.83 32.55 43.11 33.07C43.39 33.58 43.93 33.9 44.52 33.9C45.02 33.9 47.55 33.9 52.1 33.9C49.49 45.2 48.04 51.47 47.75 52.73C47.58 53.48 47.97 54.26 48.69 54.56C48.89 54.65 49.1 54.69 49.31 54.69M58.5 13.64C56.85 20.78 55.93 24.75 55.75 25.55C55.64 26.02 55.75 26.52 56.05 26.9C56.36 27.28 56.82 27.51 57.31 27.51C57.75 27.51 59.97 27.51 63.96 27.51L52.92 44.57C54.57 37.43 55.48 33.46 55.67 32.66C55.78 32.19 55.66 31.69 55.36 31.31C55.06 30.93 54.6 30.7 54.11 30.7C53.67 30.7 51.45 30.7 47.45 30.7L58.5 13.64M76.48 42.7C77.03 42.7 77.57 42.41 77.86 41.9C78.3 41.13 78.04 40.15 77.28 39.71C76.72 39.39 72.29 36.83 71.74 36.51C71.49 36.37 71.21 36.3 70.94 36.3C70.39 36.3 69.85 36.59 69.55 37.1C69.11 37.87 69.38 38.84 70.14 39.28C70.69 39.6 75.12 42.16 75.68 42.48C75.93 42.63 76.2 42.7 76.48 42.7M34.94 42.7C35.21 42.7 35.49 42.63 35.74 42.48C36.3 42.15 40.83 39.54 41.4 39.21C42.17 38.77 42.43 37.79 41.99 37.03C41.69 36.51 41.15 36.23 40.6 36.23C40.33 36.23 40.05 36.3 39.8 36.44C39.24 36.77 34.71 39.38 34.14 39.71C33.37 40.15 33.11 41.13 33.55 41.9C33.85 42.41 34.39 42.7 34.94 42.7M79.69 30.7C80.58 30.7 81.29 29.99 81.29 29.1C81.29 28.22 80.58 27.51 79.69 27.51C79.05 27.51 73.94 27.51 73.3 27.51C72.41 27.51 71.7 28.22 71.7 29.1C71.7 29.99 72.41 30.7 73.3 30.7C73.72 30.7 75.85 30.7 79.69 30.7M38.12 30.7C39 30.7 39.72 29.99 39.72 29.1C39.72 28.22 39 27.51 38.12 27.51C37.48 27.51 32.36 27.51 31.72 27.51C30.84 27.51 30.13 28.22 30.13 29.1C30.13 29.99 30.84 30.7 31.72 30.7C32.15 30.7 34.28 30.7 38.12 30.7M40.6 21.98C41.15 21.98 41.69 21.7 41.99 21.18C42.43 20.42 42.17 19.44 41.4 19C40.83 18.67 36.3 16.06 35.74 15.73C35.49 15.58 35.21 15.51 34.94 15.51C34.39 15.51 33.85 15.8 33.55 16.31C33.11 17.08 33.37 18.06 34.14 18.5C34.71 18.82 39.24 21.44 39.8 21.77C40.05 21.91 40.33 21.98 40.6 21.98M70.94 21.91C71.21 21.91 71.49 21.84 71.74 21.7C72.29 21.38 76.72 18.82 77.28 18.5C78.04 18.06 78.3 17.08 77.86 16.31C77.57 15.8 77.03 15.51 76.48 15.51C76.2 15.51 75.93 15.58 75.68 15.73C75.12 16.05 70.69 18.61 70.14 18.93C69.38 19.37 69.11 20.35 69.55 21.11C69.85 21.62 70.39 21.91 70.94 21.91M47.91 56.4C46.3 55.72 45.41 53.99 45.81 52.28C46.06 51.19 47.32 45.73 49.59 35.9C46.54 35.9 44.85 35.9 44.52 35.9C44.19 35.9 43.86 35.86 43.56 35.77C43.61 35.85 43.67 35.94 43.72 36.02C44.71 37.75 44.12 39.95 42.4 40.94C41.83 41.27 37.3 43.89 36.74 44.21C36.19 44.53 35.57 44.69 34.94 44.69C33.66 44.69 32.46 44 31.82 42.89C31.34 42.06 31.21 41.09 31.46 40.17C31.71 39.24 32.31 38.46 33.14 37.98C33.71 37.65 38.24 35.04 38.8 34.71C39.35 34.39 39.97 34.23 40.6 34.23C40.93 34.23 41.25 34.27 41.56 34.36C41.49 34.25 41.42 34.14 41.36 34.02C40.85 33.1 40.79 32.02 41.14 31.06C40.5 32.05 39.38 32.7 38.12 32.7C37.48 32.7 32.36 32.7 31.72 32.7C29.74 32.7 28.13 31.09 28.13 29.1C28.13 27.12 29.74 25.51 31.72 25.51C32.36 25.51 37.48 25.51 38.12 25.51C40.1 25.51 41.72 27.12 41.72 29.1C41.72 29.54 41.64 29.96 41.5 30.34C43.26 27.63 57.32 5.88 59.08 3.17C59.75 2.14 60.88 1.52 62.11 1.52C62.59 1.52 63.06 1.62 63.51 1.81C65.12 2.49 66 4.23 65.61 5.93C65.36 7.02 64.1 12.48 61.83 22.31C64.87 22.31 66.56 22.31 66.9 22.31C67.31 22.31 67.72 22.38 68.09 22.51C67.99 22.38 67.9 22.25 67.82 22.11C67.34 21.28 67.21 20.31 67.46 19.38C67.71 18.45 68.31 17.68 69.14 17.19C69.69 16.88 74.12 14.32 74.68 14C75.22 13.68 75.85 13.51 76.48 13.51C77.76 13.51 78.95 14.2 79.59 15.32C80.59 17.03 79.99 19.24 78.28 20.23C77.72 20.55 73.29 23.11 72.74 23.43C72.19 23.74 71.57 23.91 70.94 23.91C70.53 23.91 70.12 23.84 69.75 23.7C69.86 23.85 69.97 24.01 70.06 24.18C70.56 25.11 70.63 26.18 70.28 27.14C70.92 26.16 72.03 25.51 73.3 25.51C73.94 25.51 79.05 25.51 79.69 25.51C81.68 25.51 83.29 27.12 83.29 29.1C83.29 31.09 81.68 32.7 79.69 32.7C79.05 32.7 73.94 32.7 73.3 32.7C71.31 32.7 69.7 31.09 69.7 29.1C69.7 28.67 69.77 28.26 69.92 27.87C68.16 30.59 54.09 52.33 52.33 55.04C51.67 56.07 50.54 56.69 49.31 56.69C48.83 56.69 48.35 56.59 47.91 56.4ZM56.93 30.06C57.61 30.93 57.86 32.04 57.62 33.11C57.6 33.16 57.54 33.43 57.43 33.92L60.29 29.51C58.5 29.51 57.51 29.51 57.31 29.51C56.88 29.51 56.47 29.43 56.08 29.29C56.4 29.5 56.68 29.76 56.93 30.06ZM54.11 28.7C54.53 28.7 54.94 28.78 55.33 28.92C55.02 28.71 54.73 28.45 54.49 28.15C54.49 28.15 54.49 28.15 54.49 28.15C54.49 28.15 54.49 28.15 54.49 28.15C53.81 27.29 53.55 26.18 53.8 25.1C53.81 25.05 53.87 24.78 53.99 24.29L51.13 28.7C52.92 28.7 53.91 28.7 54.11 28.7ZM74.68 44.21C74.12 43.89 69.69 41.33 69.14 41.01C67.42 40.02 66.83 37.82 67.82 36.1C68.46 34.99 69.66 34.3 70.94 34.3C71.57 34.3 72.19 34.47 72.74 34.78C73.29 35.1 77.72 37.66 78.28 37.98C79.11 38.46 79.71 39.24 79.95 40.17C80.2 41.1 80.07 42.07 79.59 42.9C78.95 44 77.76 44.69 76.48 44.69C75.84 44.69 75.22 44.53 74.68 44.21ZM38.8 23.5C38.23 23.17 33.71 20.56 33.14 20.23C32.31 19.75 31.71 18.97 31.46 18.04C31.21 17.12 31.34 16.15 31.82 15.31C32.46 14.2 33.66 13.51 34.94 13.51C35.57 13.51 36.19 13.68 36.74 14C37.3 14.32 41.83 16.94 42.4 17.27C43.23 17.75 43.83 18.52 44.08 19.45C44.33 20.38 44.2 21.35 43.72 22.18C43.08 23.29 41.88 23.98 40.6 23.98C39.97 23.98 39.35 23.81 38.8 23.5Z" id="a2jLjAQarK"></path><path d="M78.86 98.93C78.86 98.33 78.86 97.99 78.86 97.92C78.86 91.28 83.28 85.41 89.78 83.46C85.98 80.99 84.94 75.98 87.46 72.26C89.98 68.55 95.1 67.53 98.9 69.99C102.7 72.46 103.74 77.47 101.22 81.19C100.61 82.09 99.82 82.86 98.9 83.46C105.39 85.41 109.82 91.28 109.81 97.92C109.81 97.99 109.81 98.33 109.81 98.93L78.86 98.93ZM107.64 96.92C107.08 89.7 100.64 84.3 93.27 84.85C86.67 85.34 81.43 90.47 80.93 96.92C80.93 96.92 104.97 96.92 107.64 96.92ZM94.34 82.8C97.76 82.8 100.54 80.09 100.54 76.74C100.54 73.4 97.76 70.68 94.34 70.68C94.34 70.68 94.34 70.69 94.34 70.69C90.92 70.69 88.16 73.4 88.15 76.74C88.15 80.09 90.92 82.8 94.34 82.8Z" id="an1ahrcG5"></path></defs><g><g><g><use xlink:href="#f4MTMzAPyb" opacity="1" fill="#ffffff" fill-opacity="0"></use><g><use xlink:href="#f4MTMzAPyb" opacity="1" fill-opacity="0" stroke="#000000" stroke-width="1" stroke-opacity="0"></use></g></g><g><use xlink:href="#aStp8mgu" opacity="1" fill="#172b51" fill-opacity="1"></use><g><use xlink:href="#aStp8mgu" opacity="1" fill-opacity="0" stroke="#172b51" stroke-width="2" stroke-opacity="1"></use></g></g><g><use xlink:href="#aAKuK2aUa" opacity="1" fill="#000000" fill-opacity="0"></use><g><use xlink:href="#aAKuK2aUa" opacity="1" fill-opacity="0" stroke="#000000" stroke-width="1" stroke-opacity="0"></use></g></g><g><use xlink:href="#a3mbNdUvhi" opacity="1" fill="#172b51" fill-opacity="1"></use><g><use xlink:href="#a3mbNdUvhi" opacity="1" fill-opacity="0" stroke="#000000" stroke-width="1" stroke-opacity="0"></use></g></g><g><use xlink:href="#d2wkAX31Cy" opacity="1" fill="#172b51" fill-opacity="1"></use><g><use xlink:href="#d2wkAX31Cy" opacity="1" fill-opacity="0" stroke="#000000" stroke-width="1" stroke-opacity="0"></use></g></g><g><use xlink:href="#a2jLjAQarK" opacity="1" fill="#ffffff" fill-opacity="1"></use><g><use xlink:href="#a2jLjAQarK" opacity="1" fill-opacity="0" stroke="#000000" stroke-width="1" stroke-opacity="0"></use></g></g><g><use xlink:href="#an1ahrcG5" opacity="1" fill="#172b51" fill-opacity="1"></use><g><use xlink:href="#an1ahrcG5" opacity="1" fill-opacity="0" stroke="#172b51" stroke-width="2" stroke-opacity="1"></use></g></g></g></g></svg>