<svg xmlns="http://www.w3.org/2000/svg" width="111" height="111" viewBox="0 0 111 111"><defs><style>.a{fill:rgba(74,94,132,0);}.b{fill:#172b51;}</style></defs><rect class="a" width="111" height="111" rx="55.5"/><path class="b" d="M13343.116,21233.672a9.977,9.977,0,0,1-10.114-9.918v-1.418a1.91,1.91,0,0,1,2.02-2.02h2.024v-46.543a5.965,5.965,0,0,1,6.07-6.07h20.644l35.614-.2h20.639a5.957,5.957,0,0,1,6.069,6.068v46.543h2.025a1.913,1.913,0,0,1,2.024,2.025v1.412a10.024,10.024,0,0,1-10.119,10.121Zm0-4.051h76.9a6.127,6.127,0,0,0,6.069-5.463h-89.036A6.132,6.132,0,0,0,13343.116,21229.621Zm-2.021-56.051v46.543h80.941v-46.543a1.912,1.912,0,0,0-2.024-2.023h-76.9A1.908,1.908,0,0,0,13341.1,21173.57Zm34.8,42.83-1.924-2.771-3.7.873a1.039,1.039,0,0,1-1.184-1.422l5.223-11.861a2.172,2.172,0,0,1-.623-.4,2.022,2.022,0,0,1-.16-.213h-10.706a5.841,5.841,0,0,1-5.6-5.154h-.586a7.36,7.36,0,0,1-7.221-7.48v-.07a9.038,9.038,0,0,1-6.187-8.691v-.512a1.031,1.031,0,0,1,1.028-1.033h27.588a8.126,8.126,0,0,1,6.917,4.178c.021-.006.032-.021.049-.021a2.82,2.82,0,0,1,2.174.453,3.053,3.053,0,0,0,.661.283,3.232,3.232,0,0,0,.645-.283,3.2,3.2,0,0,1,1.993-.469,7.94,7.94,0,0,1,6.89-3.885h12.892a1.031,1.031,0,0,1,0,2.063h-12.892a5.957,5.957,0,0,0-5.185,3.059c.053.068.128.145.176.219a4.067,4.067,0,0,0,.688.762,2.664,2.664,0,0,0,.922.219,2.934,2.934,0,0,1,1.812.682,2.6,2.6,0,0,1,.64,1.5h21.315c3.2,0,5.927-2.9,6.172-6.441h-6.172a1.031,1.031,0,0,1,0-2.062h7.216a1.034,1.034,0,0,1,1.034,1.033v.512a9.069,9.069,0,0,1-5.937,8.6,7.35,7.35,0,0,1-7.21,7.385h-.869a5.848,5.848,0,0,1-5.574,5.154h-10.455a2.077,2.077,0,0,1-.133.176l4.582,11.824a1.012,1.012,0,0,1-.144,1.008,1.056,1.056,0,0,1-.933.389l-3.73-.437-1.716,2.787a1.051,1.051,0,0,1-.98.49,1.031,1.031,0,0,1-.863-.666l-4.162-11.041-3.954,11.025a1.013,1.013,0,0,1-.836.672.671.671,0,0,1-.139.016A1.025,1.025,0,0,1,13375.895,21216.4Zm-.624-4.525,1.173,1.7,3.469-9.668a2.035,2.035,0,0,1-1.183-.01,3.654,3.654,0,0,1-1.626-1.412,3.613,3.613,0,0,0-.677-.762c-.016-.016-.059-.016-.074-.027l-4.535,10.316,2.366-.559a1.135,1.135,0,0,1,.229-.021A1.041,1.041,0,0,1,13375.271,21211.875Zm11.745,1.605.959-1.562a1.024,1.024,0,0,1,1-.479l2.681.318-3.965-10.246a2.251,2.251,0,0,0-.848.213,2.611,2.611,0,0,0-.5.617,3.289,3.289,0,0,1-1.876,1.584,1.836,1.836,0,0,1-.528.084,1.92,1.92,0,0,1-.543-.111Zm-8.377-28.932a4.144,4.144,0,0,1-1.071,1.193,4.2,4.2,0,0,1-1.79.543,3.312,3.312,0,0,0-.666.129,3.809,3.809,0,0,1-.064.6,4.062,4.062,0,0,1-.544,1.785,5.119,5.119,0,0,1-1.23,1.178,3.135,3.135,0,0,0-.709.645,6.837,6.837,0,0,0,.314.656,2.729,2.729,0,0,1,0,3.182,2.812,2.812,0,0,0-.3.725c.064.219.314.4.735.688a3.89,3.89,0,0,1,1.193,1.066,4.085,4.085,0,0,1,.544,1.795,3.73,3.73,0,0,0,.133.666h.038c.1,0,.367.031.56.059a4.123,4.123,0,0,1,1.79.543,5.25,5.25,0,0,1,1.178,1.232,3.252,3.252,0,0,0,.645.709,6.706,6.706,0,0,0,.661-.314,3.582,3.582,0,0,1,1.562-.508.146.146,0,0,1,.021,0h0a3.555,3.555,0,0,1,1.583.512,2.927,2.927,0,0,0,.725.3c.219-.059.41-.314.688-.734a4.075,4.075,0,0,1,1.071-1.2,4.165,4.165,0,0,1,1.8-.543,3.438,3.438,0,0,0,.629-.123,1.366,1.366,0,0,1,.042-.176c.011-.127.032-.287.054-.426a4.1,4.1,0,0,1,.543-1.795,5.137,5.137,0,0,1,1.231-1.174,4.451,4.451,0,0,0,.7-.617.054.054,0,0,1-.011-.027.981.981,0,0,1-.271-.617c0-.012-.017-.027-.021-.043a2.75,2.75,0,0,1,0-3.182,2.91,2.91,0,0,0,.3-.719c-.064-.219-.314-.4-.735-.687a3.943,3.943,0,0,1-1.194-1.072,4.073,4.073,0,0,1-.543-1.785,3.237,3.237,0,0,0-.134-.676,5.857,5.857,0,0,1-.591-.055,4.22,4.22,0,0,1-1.8-.543,5.341,5.341,0,0,1-1.178-1.236,3.636,3.636,0,0,0-.64-.713c-.069.016-.437.207-.666.318a2.712,2.712,0,0,1-3.171,0,3.356,3.356,0,0,0-.73-.309C13379.107,21183.871,13378.921,21184.127,13378.639,21184.549Zm14.025,11.229a3.6,3.6,0,0,1-1.412,1.619,4.216,4.216,0,0,0-.768.682,1.5,1.5,0,0,0-.148.465h9.863a3.733,3.733,0,0,0,3.528-3.092h-11.01A1.4,1.4,0,0,1,13392.664,21195.777Zm-29.842,2.766h10.114a1.389,1.389,0,0,0-.149-.465,2.822,2.822,0,0,0-.623-.5,3.265,3.265,0,0,1-1.583-1.875,1.46,1.46,0,0,1-.032-.252h-11.26A3.738,3.738,0,0,0,13362.822,21198.543Zm29.869-8.5a2.887,2.887,0,0,1-.459,2.18,3.007,3.007,0,0,0-.287.656,2.645,2.645,0,0,0,.224.506h14.474a5.261,5.261,0,0,0,5.132-4.893h-20.2A2.806,2.806,0,0,1,13392.691,21190.043Zm-36.056,3.342h14.468a2.109,2.109,0,0,0,.219-.518,3.115,3.115,0,0,0-.283-.645,2.9,2.9,0,0,1-.432-2.254,3.205,3.205,0,0,1,1.242-1.477h-8a1.034,1.034,0,0,1,0-2.068h9.2a2.582,2.582,0,0,1,.635-1.5,2.931,2.931,0,0,1,1.812-.682,2.76,2.76,0,0,0,.927-.219,2.536,2.536,0,0,0,.5-.623c.054-.08.117-.172.176-.256a6.166,6.166,0,0,0-5.26-3.416H13345.3c.25,3.543,2.979,6.441,6.176,6.441h6.96a1.031,1.031,0,1,1,0,2.063h-6.96A5.287,5.287,0,0,0,13356.636,21193.385Zm27.577,4.758-2.574-1.5-2.579,1.5a1.031,1.031,0,0,1-1.54-1.033l.442-3.1-2.206-2.211a1.028,1.028,0,0,1-.24-1.094,1.039,1.039,0,0,1,.891-.666l3-.213,1.3-2.8a1.077,1.077,0,0,1,1.871,0l1.289,2.8,3,.213a1.033,1.033,0,0,1,.655,1.76l-2.211,2.211.442,3.1a1.033,1.033,0,0,1-.442,1,1.054,1.054,0,0,1-.581.182A1,1,0,0,1,13384.213,21198.143Zm-2.058-3.586,1.253.736-.213-1.5a1.031,1.031,0,0,1,.293-.869l.98-.984-1.359-.1a1.039,1.039,0,0,1-.857-.6l-.613-1.322-.612,1.322a1.043,1.043,0,0,1-.863.6l-1.359.1.98.984a1.017,1.017,0,0,1,.293.869l-.213,1.5,1.252-.736a1.043,1.043,0,0,1,1.039,0Zm-21.14-6.064a1.034,1.034,0,0,1,0-2.068h.262a1.034,1.034,0,0,1,0,2.068Zm46.66-8.51a1.031,1.031,0,1,1,0-2.062h.773a1.031,1.031,0,0,1,0,2.063Z" transform="translate(-13326.436 -21144.805)"/></svg>