<svg xmlns="http://www.w3.org/2000/svg" width="111" height="111" viewBox="0 0 111 111"><defs><style>.a{fill:rgba(74,94,132,0);}.b{fill:#172b51;}</style></defs><rect class="a" width="111" height="111" rx="55.5"/><path class="b" d="M13211.083,20972.668h-92.107v-14.055a1.556,1.556,0,0,1,1.559-1.555h6.25v-9.371a1.561,1.561,0,0,1,1.561-1.559h7.8a1.561,1.561,0,0,1,1.566,1.559v21.855h6.244v-15.613a1.554,1.554,0,0,1,1.557-1.555h6.244v-10.93a1.565,1.565,0,0,1,1.566-1.566h7.8a1.562,1.562,0,0,1,1.557,1.566v28.1h6.252v-6.246a1.559,1.559,0,0,1,1.559-1.559h6.242v-9.363a1.567,1.567,0,0,1,1.559-1.57h7.811a1.565,1.565,0,0,1,1.557,1.57v17.168h6.244v-21.855a1.561,1.561,0,0,1,1.566-1.559h6.242v-9.367a1.558,1.558,0,0,1,1.561-1.559h7.809a1.557,1.557,0,0,1,1.559,1.559v35.906Zm-6.252-24.98v21.855h4.686v-31.223h-4.686Zm-7.8,21.855h4.684v-20.293h-4.684Zm-17.17-6.246v6.246h4.686v-15.613h-4.686Zm-7.809,6.246h4.684v-4.684h-4.684Zm-17.17-15.613v15.613h4.684V20943h-4.684Zm-7.809,15.613h4.684v-14.055h-4.684Zm-17.17-10.93v10.93h4.684v-20.293h-4.684Zm-7.8,10.93h4.682v-9.371h-4.682Zm-4.1-27.754,23.422-18.734a1.567,1.567,0,0,1,1.771-.125l15.422,9.254,22.256,5.938,16.529-19.539a1.54,1.54,0,0,1,1.82-.418l14.053,6.246-1.271,2.852-12.977-5.77-16.414,19.406a1.562,1.562,0,0,1-1.592.5l-23.42-6.246a1.625,1.625,0,0,1-.4-.172l-14.684-8.809-22.566,18.055Zm60.295-25.324v-3.125h15.611v3.125Zm-21.854,0a1.535,1.535,0,0,1-1.1-.461l-4.725-4.715a18.728,18.728,0,1,1,3.953-21.7l10.133-10.133a1.548,1.548,0,0,1,1.105-.461h28.1v3.121h-27.449l-10.68,10.68a18.711,18.711,0,0,1,.664,4.93,18.1,18.1,0,0,1-.361,3.684,18.368,18.368,0,0,1-3.4,7.52l4.414,4.406h18.088v3.125Zm-22.846-3.672a15.833,15.833,0,0,0,4.117.547,15.543,15.543,0,0,0,11.715-5.309,15.29,15.29,0,0,0,3.191-5.723l-4.635-.918a10.821,10.821,0,0,1-12.691,6.988Zm-9.623-7.648a15.817,15.817,0,0,0,6.7,6.531l1.705-4.414a10.933,10.933,0,0,1-4.045-3.93Zm10.934-.129a7.646,7.646,0,0,0,2.807.523,7.8,7.8,0,0,0,7.646-6.266l1.533.3-1.533-.32a7.224,7.224,0,0,0,.154-1.523,7.8,7.8,0,0,0-15.609,0,7.727,7.727,0,0,0,.6,3l-1.443.605,1.443-.6A7.788,7.788,0,0,0,13134.905,20905.016Zm-12.8-7.285a15.594,15.594,0,0,0,.662,4.535l4.365-1.812a11.135,11.135,0,0,1-.346-2.723,10.932,10.932,0,0,1,9.361-10.8v-4.73A15.625,15.625,0,0,0,13122.1,20897.73Zm17.168-10.8a10.937,10.937,0,0,1,9.367,10.8c0,.2-.023.4-.031.6l4.643.926q.073-.75.074-1.523a15.572,15.572,0,0,0-14.053-15.523Zm39.023,23.293v-3.129h15.611v3.129Zm0-6.246v-3.125h15.611v3.125Zm31.223-3.125v-3.125h3.125v3.125Zm-6.242,0v-3.125h3.125v3.125Zm-6.244,0v-3.125h3.119v3.125Zm0-6.246v-3.125h15.611v3.125Zm0-6.238v-3.125h15.611v3.125Zm0-6.25V20879h15.611v3.121Z" transform="translate(-13110.625 -20871.164)"/></svg>