<svg xmlns="http://www.w3.org/2000/svg" width="111" height="111" viewBox="0 0 111 111"><defs><style>.a{fill:rgba(74,94,132,0);}.b{fill:#172b51;}</style></defs><rect class="a" width="111" height="111" rx="55.5"/><path class="b" d="M13323.259,20864.893a5.282,5.282,0,0,1-5.257-5.262v-59.375a5.281,5.281,0,0,1,5.257-5.258h71.637a5.286,5.286,0,0,1,5.264,5.258v9.795l3.092-3.094a3.8,3.8,0,0,1,5.463,0l6.082,6.086a3.975,3.975,0,0,1,1.133,2.777,3.707,3.707,0,0,1-1.235,2.787l-14.643,14.637v26.387a5.282,5.282,0,0,1-5.257,5.262Zm-1.236-5.154a1.254,1.254,0,0,0,1.236,1.236h71.535a1.257,1.257,0,0,0,1.241-1.236h-.21v-22.371l-13.914,13.914a4.08,4.08,0,0,1-1.857,1.031l-7.831,1.754a2.047,2.047,0,0,1-.826.1,3.98,3.98,0,0,1-2.784-1.133,3.845,3.845,0,0,1-1.031-3.605l1.754-7.836a4.1,4.1,0,0,1,1.03-1.857l24.741-24.734h-73.084Zm51.436-17.012-1.754,7.732,7.529-2.061,2.369-2.271-5.774-5.77Zm5.257-5.463,5.775,5.771,20.407-20.408-5.877-5.879Zm23.192-23.4,5.878,5.871,4.123-4.02-6.083-5.77Zm-79.782-13.51v10.52h73.91v-10.52a1.257,1.257,0,0,0-1.241-1.236h-71.535A1.237,1.237,0,0,0,13322.125,20800.357Zm31.132,51.027v-4.018h4.123v4.018a2.062,2.062,0,0,1-4.123,0Zm-16.91,0v-16.592h4.124v16.592a2.062,2.062,0,0,1-4.124,0Zm13.92-6.182a2.062,2.062,0,1,1,0-4.123h2.882v-16.6a2.062,2.062,0,1,1,4.124,0v16.6h2.888a1.922,1.922,0,0,1,1.959,2.061,2.068,2.068,0,0,1-2.062,2.063Zm-16.8-12.473a2.062,2.062,0,1,1,0-4.123h2.882v-4.021a2.062,2.062,0,0,1,4.124,0v4.021h2.888a1.982,1.982,0,0,1,1.958,2.061,2.068,2.068,0,0,1-2.062,2.063Zm7.21-27.732a2.373,2.373,0,1,1,2.375,2.371A2.371,2.371,0,0,1,13340.675,20805Zm-7.421,0a2.372,2.372,0,1,1,2.375,2.371A2.371,2.371,0,0,1,13333.254,20805Zm-7.318,0a2.372,2.372,0,1,1,2.375,2.371A2.371,2.371,0,0,1,13325.936,20805Z" transform="translate(-13311.5 -20774.59)"/></svg>