<svg xmlns="http://www.w3.org/2000/svg" width="36.93" height="36.93" viewBox="0 0 36.93 36.93"><defs><style>.a{fill:none;stroke:#fff;}.b{fill:#fff;}</style></defs><g transform="translate(-408.061 -6596.629)"><path class="a" d="M17.967,0A17.965,17.965,0,1,0,35.93,17.967,17.968,17.968,0,0,0,17.967,0Z" transform="translate(408.561 6597.129)"/><path class="b" d="M15.909,3.677c0,.161.009.322.009.483,0,4.926-3.658,10.609-10.344,10.609A10.129,10.129,0,0,1,0,13.093a7.465,7.465,0,0,0,.866.052,7.2,7.2,0,0,0,4.519-1.595,3.654,3.654,0,0,1-3.4-2.588,3.616,3.616,0,0,0,.681.066,3.824,3.824,0,0,0,1-.132A3.676,3.676,0,0,1,.786,5.238V5.2A3.412,3.412,0,0,0,2.4,5.659,3.8,3.8,0,0,1,1.245.681,10.226,10.226,0,0,0,8.735,4.576a3.606,3.606,0,0,1-.1-.847A3.682,3.682,0,0,1,12.272,0a3.587,3.587,0,0,1,2.654,1.174,7.084,7.084,0,0,0,2.309-.9,3.7,3.7,0,0,1-1.6,2.063,7.01,7.01,0,0,0,2.087-.587,7.414,7.414,0,0,1-1.812,1.931Z" transform="translate(417.447 6607.609)"/></g></svg>