<?xml version="1.0" encoding="UTF-8" standalone="no"?>
<!DOCTYPE svg PUBLIC "-//W3C//DTD SVG 1.1//EN" "http://www.w3.org/Graphics/SVG/1.1/DTD/svg11.dtd">
<svg version="1.1" xmlns="http://www.w3.org/2000/svg" xmlns:xlink="http://www.w3.org/1999/xlink" preserveAspectRatio="xMidYMid meet" viewBox="0 0 111 111" width="111" height="111"><defs><path d="M133.34 8C133.34 8 133.34 8 133.34 8C133.34 74.6 133.34 111.6 133.34 119C133.34 119 133.34 119 133.34 119C66.74 119 29.74 119 22.34 119C22.34 119 22.34 119 22.34 119C22.34 52.4 22.34 15.4 22.34 8C22.34 8 22.34 8 22.34 8C88.94 8 125.94 8 133.34 8Z" id="bTaKxl2CN"></path><path d="M18.5 111C17.8 111 17.16 110.6 16.84 109.98C16.47 109.24 13.52 103.32 13.15 102.58C12.86 102 12.89 101.32 13.23 100.77C13.57 100.23 14.16 99.9 14.81 99.9C15.96 99.9 21.75 99.9 32.16 99.9L37.71 88.8C20.63 88.8 11.14 88.8 9.25 88.8C4.14 88.8 0 84.66 0 79.55C0 72.52 0 16.29 0 9.26C0 4.15 4.14 0.01 9.25 0C18.5 0 92.51 0 101.76 0C106.86 0.01 111 4.15 111 9.26C111 16.29 111 72.52 111 79.55C110.99 84.66 106.86 88.79 101.76 88.8C99.86 88.8 90.37 88.8 73.3 88.8L78.85 99.9C89.26 99.9 95.05 99.9 96.2 99.9C97.22 99.9 98.05 100.73 98.06 101.75C98.06 102.04 97.99 102.32 97.86 102.58C97.49 103.32 94.52 109.24 94.15 109.98C93.84 110.6 93.2 111 92.51 111C77.7 111 33.3 111 18.5 111ZM19.64 107.3L91.36 107.3L93.21 103.6L17.8 103.6L19.64 107.3ZM36.29 99.9L74.71 99.9L69.16 88.8L41.84 88.8L36.29 99.9ZM3.71 79.55C3.71 82.61 6.19 85.1 9.25 85.1C18.5 85.1 92.51 85.1 101.76 85.1C104.82 85.1 107.3 82.61 107.3 79.55C107.3 79.31 107.3 78.07 107.3 75.86L3.71 75.86C3.71 77.83 3.71 79.06 3.71 79.55ZM36.34 42.56C36.41 42.56 36.94 42.56 37.01 42.56C44.15 42.56 49.94 48.35 49.95 55.5C49.95 55.87 49.95 57.72 49.95 61.05C58.83 61.05 63.76 61.05 64.75 61.05C65.77 61.05 66.6 61.88 66.6 62.9C66.6 62.9 66.6 62.9 66.6 62.9C66.6 63.52 66.6 66.6 66.6 72.15L107.3 72.15C107.3 34.41 107.3 13.45 107.3 9.26C107.3 6.19 104.82 3.71 101.76 3.7C92.51 3.7 18.5 3.7 9.25 3.7C6.18 3.71 3.71 6.19 3.71 9.26C3.71 12.98 3.71 42.74 3.71 46.46C6.13 43.96 9.47 42.55 12.96 42.56C13.21 42.56 15.21 42.56 15.46 42.56C8.3 36.79 7.18 26.31 12.95 19.15C18.72 12 29.2 10.87 36.35 16.64C40.27 19.8 42.55 24.57 42.55 29.6C42.55 34.64 40.27 39.4 36.34 42.56ZM38.85 59.2C38.85 63.64 38.85 66.11 38.85 66.6C38.86 69.66 41.34 72.14 44.4 72.15C45.63 72.15 51.8 72.15 62.9 72.15L62.9 64.76C54.02 64.76 49.09 64.76 48.11 64.76C47.08 64.75 46.26 63.92 46.26 62.9C46.26 62.16 46.26 56.24 46.26 55.5C46.25 50.39 42.11 46.26 37.01 46.25C34.6 46.25 15.36 46.25 12.96 46.25C7.85 46.26 3.71 50.39 3.71 55.5C3.71 56.61 3.71 62.16 3.71 72.15L11.1 72.15L11.1 59.2L14.81 59.2L14.81 72.15C28.15 72.15 35.56 72.15 37.05 72.15C35.83 70.55 35.16 68.61 35.16 66.6C35.16 66.11 35.16 63.64 35.16 59.2L38.85 59.2ZM25.91 42.54C33.06 42.54 38.86 36.74 38.85 29.59C38.85 22.44 33.05 16.65 25.91 16.65C18.76 16.66 12.96 22.45 12.96 29.6C12.96 36.75 18.76 42.55 25.91 42.54ZM49.95 42.56L49.95 38.85L68.46 38.85L68.46 42.56L49.95 42.56ZM49.95 35.15L49.95 31.46L94.35 31.46L94.35 35.15L49.95 35.15ZM79.56 27.75L79.56 24.05L94.35 24.05L94.35 27.75L79.56 27.75ZM64.75 27.75L64.75 24.05L75.85 24.05L75.85 27.75L64.75 27.75ZM49.95 27.75L49.95 24.05L61.05 24.05L61.05 27.75L49.95 27.75ZM49.95 20.36L49.95 16.65L94.35 16.65L94.35 20.36L49.95 20.36Z" id="a3aQkY2vnt"></path></defs><g><g><g><use xlink:href="#bTaKxl2CN" opacity="1" fill="#ffffff" fill-opacity="0"></use><g><use xlink:href="#bTaKxl2CN" opacity="1" fill-opacity="0" stroke="#000000" stroke-width="1" stroke-opacity="0"></use></g></g><g><use xlink:href="#a3aQkY2vnt" opacity="1" fill="#1d3665" fill-opacity="1"></use><g><use xlink:href="#a3aQkY2vnt" opacity="1" fill-opacity="0" stroke="#000000" stroke-width="1" stroke-opacity="0"></use></g></g></g></g></svg>