<?xml version="1.0" encoding="UTF-8" standalone="no"?>
<!DOCTYPE svg PUBLIC "-//W3C//DTD SVG 1.1//EN" "http://www.w3.org/Graphics/SVG/1.1/DTD/svg11.dtd">
<svg version="1.1" xmlns="http://www.w3.org/2000/svg" xmlns:xlink="http://www.w3.org/1999/xlink" preserveAspectRatio="xMidYMid meet" viewBox="0 0 111 111" width="111" height="111"><defs><path d="M70 0C70 0 70 0 70 0C70 42 70 65.33 70 70C70 70 70 70 70 70C28 70 4.67 70 0 70C0 70 0 70 0 70C0 28 0 4.67 0 0C0 0 0 0 0 0C42 0 65.33 0 70 0Z" id="d1fb2aBcin"></path><path d="M7.63 105.85C6.73 105.85 6 105.11 6 104.19C6 103.69 6 99.7 6 99.2C6 98.87 6.1 98.55 6.27 98.27C6.6 97.78 9.2 93.78 9.52 93.28C9.83 92.82 10.33 92.55 10.87 92.54C11.03 92.54 12.26 92.54 12.41 92.54C12.35 90.07 13.13 87.64 14.61 85.69C15.37 84.78 16.31 84.05 17.38 83.55C15.02 80.81 15.28 76.63 17.95 74.22C19.14 73.15 20.68 72.56 22.26 72.57C25.83 72.54 28.75 75.48 28.78 79.14C28.79 80.77 28.21 82.35 27.16 83.57C28.22 84.06 29.17 84.79 29.93 85.69C31.41 87.65 32.18 90.07 32.13 92.54C32.43 92.54 34.88 92.54 35.18 92.54C35.12 90.06 35.9 87.64 37.38 85.68C38.14 84.78 39.08 84.05 40.14 83.56C39.11 82.36 38.54 80.82 38.54 79.23C38.54 75.55 41.45 72.57 45.04 72.57C48.63 72.57 51.54 75.55 51.54 79.23C51.53 80.83 50.96 82.37 49.93 83.57C50.99 84.06 51.93 84.79 52.69 85.69C54.17 87.65 54.95 90.07 54.89 92.54C55.2 92.54 57.65 92.54 57.96 92.54C57.9 90.07 58.67 87.65 60.14 85.68C60.9 84.78 61.85 84.05 62.91 83.55C60.55 80.78 60.83 76.57 63.53 74.15C66.24 71.72 70.35 72.01 72.71 74.78C74.86 77.3 74.85 81.05 72.7 83.56C73.76 84.06 74.7 84.78 75.46 85.69C76.94 87.65 77.72 90.07 77.67 92.54C77.98 92.54 80.5 92.54 80.82 92.54C80.76 90.07 81.54 87.65 83.01 85.68C83.77 84.78 84.72 84.05 85.78 83.56C84.31 81.89 83.81 79.55 84.45 77.4C83.93 77.4 79.72 77.4 79.19 77.4C78.29 77.4 77.57 76.65 77.57 75.73C77.57 75.41 77.57 73.8 77.57 70.9C47.32 70.9 30.51 70.9 27.15 70.9C26.26 70.9 25.53 70.16 25.53 69.24C25.53 68.58 25.53 65.25 25.53 59.26C20.65 59.26 17.94 59.26 17.39 59.26C13.8 59.26 10.89 56.28 10.88 52.6C10.88 49.27 10.88 22.64 10.88 19.31C10.89 15.63 13.8 12.65 17.39 12.66C17.93 12.66 20.64 12.66 25.52 12.66C25.52 9.66 25.52 8 25.52 7.66C25.53 6.75 26.25 6 27.14 6C33 6 79.84 6 85.69 6C86.59 6 87.32 6.74 87.33 7.66C87.33 8 87.33 9.66 87.33 12.66C92.2 12.66 94.91 12.66 95.45 12.66C99.04 12.66 101.95 15.64 101.96 19.31C101.96 22.64 101.96 49.27 101.96 52.6C102.53 52.6 103.05 52.9 103.35 53.39C103.65 53.88 103.68 54.49 103.42 55.01C103.1 55.68 100.5 61 100.17 61.67C99.9 62.24 99.33 62.59 98.71 62.59C98.38 62.59 96.76 62.59 93.83 62.59C93.83 69.1 93.83 72.73 93.83 73.45C96.94 75.18 98.1 79.17 96.41 82.36C96.18 82.8 95.9 83.21 95.57 83.58C96.63 84.07 97.57 84.8 98.33 85.71C99.81 87.66 100.59 90.07 100.54 92.54C100.68 92.54 101.82 92.54 101.96 92.54C102.5 92.54 103.01 92.82 103.32 93.28C103.64 93.78 106.24 97.77 106.56 98.27C106.74 98.55 106.84 98.87 106.84 99.2C106.84 99.7 106.84 103.69 106.84 104.19C106.84 105.11 106.11 105.86 105.21 105.86C105.21 105.86 105.21 105.86 105.21 105.86C85.7 105.86 27.15 105.86 7.63 105.85ZM9.26 99.7L9.26 102.53L103.59 102.53L103.59 99.7L101.09 95.87L11.75 95.87L9.26 99.7ZM84.07 92.54C85.39 92.54 95.97 92.54 97.29 92.54C97.34 90.85 96.83 89.18 95.83 87.83C94.48 86.43 92.59 85.72 90.68 85.88C90.49 85.87 90.3 85.86 90.12 85.86C88.38 85.86 86.72 86.57 85.51 87.84C84.52 89.19 84.02 90.85 84.07 92.54ZM61.2 92.54C62.52 92.54 73.09 92.54 74.41 92.54C74.47 90.85 73.96 89.18 72.97 87.83C71.62 86.43 69.73 85.72 67.81 85.88C67.62 85.87 67.43 85.86 67.25 85.86C65.51 85.86 63.85 86.57 62.64 87.84C61.65 89.19 61.15 90.85 61.2 92.54ZM38.44 92.54C39.76 92.54 50.32 92.54 51.64 92.54C51.7 90.84 51.19 89.18 50.2 87.82C48.85 86.42 46.95 85.71 45.04 85.88C44.85 85.87 44.66 85.86 44.47 85.86C42.74 85.86 41.08 86.57 39.86 87.84C38.88 89.19 38.38 90.85 38.44 92.54ZM15.66 92.54C16.98 92.54 27.55 92.54 28.87 92.54C28.92 90.85 28.42 89.19 27.43 87.83C26.08 86.43 24.18 85.72 22.26 85.88C22.07 85.87 21.89 85.86 21.7 85.86C19.97 85.86 18.31 86.57 17.09 87.84C16.11 89.2 15.61 90.85 15.66 92.54ZM90.67 82.56C92.47 82.56 93.92 81.07 93.92 79.23C93.92 77.39 92.47 75.9 90.67 75.9C90.67 75.9 90.67 75.9 90.67 75.9C88.88 75.9 87.43 77.39 87.43 79.23C87.43 81.07 88.88 82.56 90.67 82.56ZM67.8 82.56C69.59 82.56 71.05 81.07 71.05 79.23C71.05 77.39 69.6 75.9 67.81 75.9C66.02 75.89 64.56 77.38 64.55 79.22C64.55 79.22 64.55 79.22 64.55 79.23C64.55 81.07 66.01 82.56 67.8 82.56ZM45.03 82.57C46.83 82.58 48.29 81.09 48.29 79.24C48.3 77.4 46.84 75.9 45.05 75.9C45.04 75.9 45.04 75.9 45.04 75.9C43.25 75.89 41.79 77.38 41.78 79.22C41.78 79.22 41.78 79.22 41.78 79.23C41.78 81.07 43.23 82.57 45.03 82.57ZM22.26 82.56C24.06 82.56 25.51 81.07 25.51 79.23C25.51 77.39 24.06 75.9 22.26 75.9C22.26 75.9 22.26 75.9 22.26 75.9C20.47 75.9 19.02 77.39 19.01 79.23C19.01 79.23 19.01 79.23 19.01 79.23C19.02 81.07 20.47 82.56 22.26 82.56ZM80.82 69.24L80.82 74.07C84.29 74.07 86.23 74.07 86.61 74.07C87.73 73.13 89.13 72.6 90.57 72.57C90.57 71.9 90.57 68.58 90.57 62.58L80.82 62.58L80.82 69.24ZM74.32 67.57L77.57 67.57L77.57 62.58L74.32 62.58L74.32 67.57ZM67.83 67.57L71.08 67.57L71.08 61.31L70.06 59.26L67.81 59.26L67.83 67.57ZM61.31 67.57L64.56 67.57L64.56 59.26L61.31 59.26L61.31 67.57ZM54.82 67.57L58.07 67.57L58.07 59.26L54.82 59.26L54.82 67.57ZM48.33 67.57L51.57 67.57L51.57 59.26L48.33 59.26L48.33 67.57ZM41.81 67.57L45.07 67.57L45.07 59.26L41.78 59.26L41.81 67.57ZM35.32 67.57L38.58 67.57L38.58 59.26L35.28 59.26L35.32 67.57ZM28.82 67.57L32.07 67.57L32.07 59.26L28.82 59.26L28.82 67.57ZM73.68 59.26L97.7 59.26L99.33 55.93L72.06 55.93L73.68 59.26ZM14.14 52.6C14.14 54.44 15.59 55.93 17.38 55.93C17.39 55.93 17.39 55.93 17.39 55.93C20.79 55.93 37.8 55.93 68.42 55.93C68.15 55.38 68 55.07 67.97 55.01C67.72 54.49 67.74 53.88 68.04 53.38C68.34 52.89 68.87 52.6 69.43 52.6C70.25 52.6 76.77 52.6 77.59 52.6C77.59 50.68 78.23 48.82 79.38 47.32C79.84 46.78 80.39 46.32 80.99 45.95C78.51 43.29 78.6 39.07 81.2 36.53C83.79 33.99 87.91 34.08 90.39 36.74C92.79 39.32 92.79 43.38 90.39 45.95C90.99 46.32 91.53 46.78 91.99 47.32C93.15 48.82 93.79 50.68 93.8 52.6C94.13 52.6 95.77 52.6 98.71 52.6C98.71 32.63 98.71 21.53 98.71 19.31C98.71 17.48 97.25 15.99 95.46 15.99C87.65 15.99 25.2 15.99 17.39 15.99C15.6 15.98 14.14 17.47 14.14 19.3C14.14 19.31 14.14 19.31 14.14 19.31C14.14 19.31 14.14 49.27 14.14 52.6ZM80.83 52.6C81.8 52.6 89.59 52.6 90.57 52.6C90.56 51.46 90.19 50.35 89.52 49.45C88.51 48.42 87.11 47.91 85.7 48.04C85.55 48.03 85.4 48.02 85.26 48.02C83.99 48.03 82.78 48.54 81.88 49.45C81.22 50.36 80.85 51.46 80.83 52.6ZM85.7 44.72C87.49 44.72 88.95 43.23 88.95 41.39C88.95 39.55 87.49 38.06 85.7 38.06C85.7 38.06 85.7 38.06 85.7 38.06C83.91 38.06 82.45 39.55 82.45 41.38C82.45 41.38 82.45 41.39 82.45 41.39C82.45 43.23 83.91 44.72 85.7 44.72ZM28.78 12.66L84.07 12.66L84.07 9.33L28.78 9.33L28.78 12.66ZM20.64 49.27C19.74 49.27 19.01 48.52 19.01 47.6C19.01 47.6 19.01 47.6 19.01 47.6C19.01 45.6 19.01 29.63 19.01 27.63C19.02 26.71 19.74 25.97 20.64 25.97C20.64 25.97 20.64 25.97 20.64 25.97C21.94 25.97 32.35 25.97 33.65 25.97C34.55 25.97 35.27 26.71 35.28 27.63C35.28 29.63 35.28 45.6 35.28 47.6C35.28 48.52 34.55 49.27 33.65 49.27C33.65 49.27 33.65 49.27 33.65 49.27C31.05 49.27 23.24 49.27 20.64 49.27ZM22.26 45.94L32.02 45.94L32.02 29.3L22.26 29.3L22.26 45.94ZM54.79 45.94C53.9 45.94 53.17 45.2 53.17 44.28C53.17 44.28 53.17 44.28 53.17 44.28C53.17 43.45 53.17 36.79 53.17 35.96C53.17 35.04 53.89 34.3 54.79 34.3C54.79 34.3 54.79 34.3 54.79 34.3C54.9 34.3 55.44 34.3 56.42 34.3C56.42 30.3 56.42 28.08 56.42 27.64C56.42 26.72 57.15 25.98 58.05 25.98C59.84 25.98 74.15 25.98 75.94 25.98C76.83 25.98 77.56 26.72 77.57 27.64C77.57 28.64 77.57 36.63 77.57 37.63C77.56 38.54 76.83 39.28 75.94 39.28C75.18 39.28 71.38 39.28 64.55 39.28C64.55 42.28 64.55 43.94 64.55 44.28C64.55 45.19 63.83 45.94 62.94 45.94C62.93 45.94 62.93 45.94 62.93 45.94C61.3 45.94 56.42 45.94 54.79 45.94ZM56.42 42.61L61.3 42.61L61.3 37.62L56.42 37.62L56.42 42.61ZM59.67 34.3C61.62 34.3 62.7 34.3 62.92 34.3C63.81 34.3 64.54 35.04 64.54 35.95C64.54 35.95 64.54 35.96 64.54 35.96C65.19 35.96 68.45 35.96 74.3 35.96L74.3 29.3L59.68 29.3L59.67 34.3ZM41.78 39.28C40.89 39.28 40.16 38.53 40.16 37.62C40.16 36.62 40.16 28.63 40.16 27.63C40.16 26.71 40.89 25.97 41.78 25.97C42.6 25.97 49.11 25.97 49.92 25.97C50.82 25.97 51.55 26.71 51.55 27.63C51.55 27.63 51.55 27.63 51.55 27.63C51.55 28.63 51.55 36.62 51.55 37.62C51.55 38.54 50.82 39.28 49.93 39.28C49.93 39.28 49.92 39.28 49.92 39.28C48.3 39.28 43.41 39.28 41.78 39.28ZM43.41 35.96L48.29 35.96L48.29 29.3L43.41 29.3L43.41 35.96Z" id="a1n10aRvdy"></path></defs><g><g><g><use xlink:href="#d1fb2aBcin" opacity="1" fill="#ffffff" fill-opacity="0"></use><g><use xlink:href="#d1fb2aBcin" opacity="1" fill-opacity="0" stroke="#000000" stroke-width="1" stroke-opacity="0"></use></g></g><g><use xlink:href="#a1n10aRvdy" opacity="1" fill="#1d3665" fill-opacity="1"></use><g><use xlink:href="#a1n10aRvdy" opacity="1" fill-opacity="0" stroke="#000000" stroke-width="1" stroke-opacity="0"></use></g></g></g></g></svg>