<svg xmlns="http://www.w3.org/2000/svg" width="113.039" height="111" viewBox="0 0 113.039 111"><g transform="translate(1)"><rect width="111" height="111" transform="translate(0.039)" fill="rgba(255,255,255,0)"/><g transform="translate(0 3.506)"><path d="M0,32.983v-1.1A16.471,16.471,0,0,1,11.632,16.116a8.8,8.8,0,1,1,9.723,0A16.468,16.468,0,0,1,32.982,31.882v1.1Zm2.2-2.2H30.677a14.279,14.279,0,0,0-28.475,0ZM9.9,8.8a6.6,6.6,0,1,0,6.592-6.6A6.609,6.609,0,0,0,9.9,8.8Z" transform="translate(0 63.275)" fill="#172b51" stroke="#172b51" stroke-width="2"/><g transform="translate(-21260.254 -23982.17)" fill="none"><path d="M21342.654,24056.766l-2.707-2.307-2.941-2.49-9.189-7.787h-23.734l-14.8,11.689-.008-2.664v-9.025h-3.262a6.456,6.456,0,0,1-6.512-6.381v-33.926a6.458,6.458,0,0,1,6.512-6.379h59.123a6.461,6.461,0,0,1,6.514,6.379v33.926a6.459,6.459,0,0,1-6.514,6.381h-2.477v12.584Z" stroke="none"/><path d="M 21338.654296875 24048.123046875 L 21338.654296875 24044.181640625 L 21338.654296875 24040.181640625 L 21342.654296875 24040.181640625 L 21345.130859375 24040.181640625 C 21346.517578125 24040.181640625 21347.64453125 24039.11328125 21347.64453125 24037.80078125 L 21347.64453125 24003.875 C 21347.64453125 24002.5625 21346.517578125 24001.49609375 21345.130859375 24001.49609375 L 21286.0078125 24001.49609375 C 21284.623046875 24001.49609375 21283.49609375 24002.5625 21283.49609375 24003.875 L 21283.49609375 24037.80078125 C 21283.49609375 24039.11328125 21284.623046875 24040.181640625 21286.0078125 24040.181640625 L 21289.26953125 24040.181640625 L 21293.26953125 24040.181640625 L 21293.26953125 24044.181640625 L 21293.26953125 24047.623046875 L 21301.603515625 24041.04296875 L 21302.693359375 24040.181640625 L 21304.08203125 24040.181640625 L 21327.81640625 24040.181640625 L 21329.283203125 24040.181640625 L 21330.40234375 24041.130859375 L 21338.654296875 24048.123046875 M 21342.654296875 24056.765625 L 21339.947265625 24054.458984375 L 21337.005859375 24051.96875 L 21327.81640625 24044.181640625 L 21304.08203125 24044.181640625 L 21289.27734375 24055.87109375 L 21289.26953125 24053.20703125 L 21289.26953125 24053.203125 L 21289.26953125 24049.349609375 L 21289.26953125 24044.181640625 L 21286.0078125 24044.181640625 C 21282.41796875 24044.181640625 21279.49609375 24041.318359375 21279.49609375 24037.80078125 L 21279.49609375 24003.875 C 21279.49609375 24000.36328125 21282.41796875 23997.49609375 21286.0078125 23997.49609375 L 21345.130859375 23997.49609375 C 21348.71875 23997.49609375 21351.64453125 24000.36328125 21351.64453125 24003.875 L 21351.64453125 24037.80078125 C 21351.64453125 24041.318359375 21348.71875 24044.181640625 21345.130859375 24044.181640625 L 21342.654296875 24044.181640625 L 21342.654296875 24049.349609375 L 21342.654296875 24053.19921875 L 21342.654296875 24056.765625 Z" stroke="none" fill="#172b51"/></g><g transform="translate(29.136 -0.001)" fill="#172b51"><path d="M 19.19327926635742 52.18164825439453 C 18.84133911132812 52.18164825439453 18.49980926513672 52.11229705810547 18.17816925048828 51.97554016113281 C 17.01556968688965 51.48397064208984 16.376708984375 50.23130035400391 16.66096878051758 48.99776840209961 L 20.72407913208008 31.38892936706543 L 14.39495944976807 31.38892936706543 C 13.44182968139648 31.38892936706543 12.56705951690674 30.86879920959473 12.11201953887939 30.03152847290039 C 11.65688991546631 29.19668960571289 11.69537925720215 28.17958831787109 12.21308994293213 27.37829971313477 L 29.80730056762695 0.1872689425945282 C 30.29022026062012 -0.556251049041748 31.10653877258301 -0.9992810487747192 31.99188041687012 -0.9992810487747192 C 32.34214019775391 -0.9992810487747192 32.68299865722656 -0.9296310544013977 33.00498962402344 -0.7922610640525818 C 34.16735076904297 -0.3007910549640656 34.80688858032227 0.9518789649009705 34.52270889282227 2.185049057006836 L 30.4581127166748 19.79228973388672 L 36.7871208190918 19.79228973388672 C 37.73862838745117 19.79228973388672 38.61357116699219 20.31160926818848 39.07049942016602 21.1475887298584 C 39.52701950073242 21.98757934570312 39.48797988891602 23.00470924377441 38.96976852416992 23.80415916442871 L 21.37636947631836 50.99394989013672 C 20.89391899108887 51.73796081542969 20.07801055908203 52.18164825439453 19.19327926635742 52.18164825439453 Z M 19.17286491394043 26.19004821777344 L 23.99160003662109 26.19004821777344 C 24.78870010375977 26.19004821777344 25.53047943115234 26.54808807373047 26.0267505645752 27.17234802246094 C 26.52154922485352 27.79542922973633 26.70334053039551 28.59721946716309 26.52582931518555 29.37253952026367 L 25.05726623535156 35.736328125 L 32.00930404663086 24.99116897583008 L 27.19047927856445 24.99116897583008 C 26.3946704864502 24.99116897583008 25.65334892272949 24.63429832458496 25.1565990447998 24.0120792388916 C 24.66079902648926 23.38773918151855 24.47895050048828 22.58560943603516 24.65608978271484 21.80936813354492 L 26.12471008300781 15.44619464874268 L 19.17286491394043 26.19004821777344 Z M 46.36616134643555 40.18584823608398 C 45.91003799438477 40.18584823608398 45.46065139770508 40.06510925292969 45.06655883789062 39.83668899536133 L 39.52756881713867 36.6386604309082 C 38.28738021850586 35.92255783081055 37.86040878295898 34.32999801635742 38.57574081420898 33.08855056762695 C 39.03857040405273 32.2852897644043 39.90192794799805 31.78627967834473 40.8288688659668 31.78627967834473 C 41.28514862060547 31.78627967834473 41.73526000976562 31.90805816650391 42.13055038452148 32.138427734375 L 47.66748809814453 35.33527755737305 C 48.26930999755859 35.68203735351562 48.70011138916016 36.24309921264648 48.87979125976562 36.91466903686523 C 49.05936050415039 37.58580017089844 48.9664192199707 38.28643798828125 48.61809921264648 38.88751983642578 C 48.15700149536133 39.68758010864258 47.29364776611328 40.18584823608398 46.36616134643555 40.18584823608398 Z M 4.815909862518311 40.18584823608398 C 3.888419628143311 40.18584823608398 3.025079727172852 39.68758010864258 2.562799692153931 38.88547897338867 C 2.216029644012451 38.28364944458008 2.123789548873901 37.58334732055664 2.30303955078125 36.91346740722656 C 2.482579708099365 36.24246978759766 2.913119554519653 35.68183898925781 3.515339612960815 35.3348388671875 L 9.179619789123535 32.06292724609375 C 9.574859619140625 31.83471870422363 10.02388000488281 31.71413803100586 10.47828960418701 31.71413803100586 C 11.40386009216309 31.71413803100586 12.26678943634033 32.21207046508789 12.73031997680664 33.01361846923828 C 13.44707012176514 34.257568359375 13.01972961425781 35.8503303527832 11.77849960327148 36.56551742553711 L 6.114229679107666 39.83744049072266 C 5.72137975692749 40.06512069702148 5.271989822387695 40.18584823608398 4.815909862518311 40.18584823608398 Z M 49.58263778686523 28.19004821777344 L 43.18487930297852 28.19004821777344 C 41.75154113769531 28.19004821777344 40.5854377746582 27.02394866943359 40.5854377746582 25.59060859680176 C 40.5854377746582 24.15726852416992 41.75154113769531 22.99116897583008 43.18487930297852 22.99116897583008 L 49.58263778686523 22.99116897583008 C 51.0159797668457 22.99116897583008 52.18207931518555 24.15726852416992 52.18207931518555 25.59060859680176 C 52.18207931518555 27.02394866943359 51.0159797668457 28.19004821777344 49.58263778686523 28.19004821777344 Z M 7.997199535369873 28.19004821777344 L 1.59943962097168 28.19004821777344 C 0.1660996526479721 28.19004821777344 -1.000000357627869 27.02394866943359 -1.000000357627869 25.59060859680176 C -1.000000357627869 24.15726852416992 0.1660996526479721 22.99116897583008 1.59943962097168 22.99116897583008 L 7.997199535369873 22.99116897583008 C 9.430540084838867 22.99116897583008 10.59663963317871 24.15726852416992 10.59663963317871 25.59060859680176 C 10.59663963317871 27.02394866943359 9.430540084838867 28.19004821777344 7.997199535369873 28.19004821777344 Z M 10.47793006896973 19.4650993347168 C 10.02180004119873 19.4650993347168 9.572409629821777 19.34436988830566 9.178329467773438 19.1159496307373 L 3.514589548110962 15.84594917297363 C 2.913129568099976 15.49938869476318 2.482579708099365 14.93849849700928 2.30299973487854 14.26702880859375 C 2.123679637908936 13.59652900695801 2.216089725494385 12.89619922637939 2.563199758529663 12.29504871368408 C 3.025339603424072 11.49299907684326 3.888149738311768 10.99427890777588 4.814479827880859 10.99427890777588 C 5.269389629364014 10.99427890777588 5.718989849090576 11.11521911621094 6.114649772644043 11.34402847290039 L 11.77924919128418 14.61452865600586 C 12.38070964813232 14.96107864379883 12.81125926971436 15.52196884155273 12.99083995819092 16.19343948364258 C 13.17015933990479 16.86393928527832 13.07775974273682 17.56426811218262 12.73065948486328 18.16541862487793 C 12.26877975463867 18.96682929992676 11.40542984008789 19.4650993347168 10.47793006896973 19.4650993347168 Z M 40.82889938354492 19.39312934875488 C 39.90139007568359 19.39312934875488 39.03804016113281 18.89484977722168 38.57577896118164 18.09273910522461 C 38.22911834716797 17.49235916137695 38.13697052001953 16.79186820983887 38.31671905517578 16.12101936340332 C 38.4964599609375 15.45019912719727 38.92646789550781 14.88962936401367 39.52754974365234 14.54256916046143 L 45.06803131103516 11.34367847442627 C 45.46197891235352 11.11572933197021 45.91114807128906 10.9949893951416 46.36614990234375 10.9949893951416 C 47.29362869262695 10.9949893951416 48.15700149536133 11.49344921112061 48.61933898925781 12.29583930969238 C 49.3355712890625 13.53628921508789 48.90879058837891 15.12919902801514 47.66751861572266 15.84592914581299 L 42.12702941894531 19.04482841491699 C 41.73439025878906 19.27239990234375 41.28499984741211 19.39312934875488 40.82889938354492 19.39312934875488 Z" stroke="none"/><path d="M 19.19327926635742 51.18164825439453 C 19.72269058227539 51.18164825439453 20.23291015625 50.91933822631836 20.53680038452148 50.45069885253906 L 38.13063812255859 23.26022911071777 C 38.44892883300781 22.76919937133789 38.47291946411133 22.14221954345703 38.19301986694336 21.62719917297363 C 37.91151809692383 21.11217880249023 37.37250900268555 20.79228973388672 36.7871208190918 20.79228973388672 L 29.20096969604492 20.79228973388672 L 33.54824829101562 1.96048891544342 C 33.72259140014648 1.203948974609375 33.32752990722656 0.429828941822052 32.61257934570312 0.1275289505720139 C 32.4116096496582 0.04179032519459724 32.20073318481445 0.0007161761750467122 31.99188423156738 0.0007161761750467122 C 31.46438789367676 0.0007161761750467122 30.95050239562988 0.2630376219749451 30.64686965942383 0.7305189371109009 L 13.05303001403809 27.92098808288574 C 12.73473930358887 28.41361808776855 12.71074962615967 29.04059982299805 12.99064922332764 29.55401802062988 C 13.27054977416992 30.06903839111328 13.80955982208252 30.38892936706543 14.39495944976807 30.38892936706543 L 21.98110008239746 30.38892936706543 L 17.63542938232422 49.22232818603516 C 17.46109008789062 49.97885894775391 17.85454940795898 50.75299072265625 18.56949043273926 51.05527877807617 C 18.77262878417969 51.14165878295898 18.98534965515137 51.18164825439453 19.19327926635742 51.18164825439453 M 28.38045883178711 10.11922931671143 L 25.63102912902832 22.0318489074707 C 25.52225875854492 22.50848960876465 25.63582038879395 23.00751876831055 25.9381103515625 23.38817977905273 C 26.24201011657715 23.76884841918945 26.70265007019043 23.99116897583008 27.19047927856445 23.99116897583008 L 33.84735107421875 23.99116897583008 L 22.80162048339844 41.0635871887207 L 25.55105018615723 29.14935874938965 C 25.65980911254883 28.67432975769043 25.5462589263916 28.17530822753906 25.24395942687988 27.79463958740234 C 24.9400691986084 27.41236877441406 24.47942924499512 27.19004821777344 23.99160003662109 27.19004821777344 L 17.33473014831543 27.19004821777344 L 28.38045883178711 10.11922931671143 M 46.36616134643555 39.18584823608398 C 46.91955947875977 39.18584823608398 47.45697784423828 38.89953994750977 47.75288009643555 38.38612747192383 C 48.19591903686523 37.62159729003906 47.93360900878906 36.64273834228516 47.16748046875 36.20129776000977 L 41.62701797485352 33.00240707397461 C 41.37556457519531 32.85586166381836 41.10049819946289 32.78628158569336 40.8288688659668 32.78628158569336 C 40.27635955810547 32.78628158569336 39.73813629150391 33.07418823242188 39.44218826293945 33.58781051635742 C 39.00074005126953 34.35393905639648 39.2630500793457 35.3311882019043 40.02758026123047 35.77264022827148 L 45.56803894042969 38.97151947021484 C 45.81914901733398 39.11706924438477 46.09426116943359 39.18584823608398 46.36616134643555 39.18584823608398 M 4.815909862518311 39.18584823608398 C 5.086219787597656 39.18584823608398 5.362919807434082 39.11705780029297 5.614039421081543 38.97151947021484 L 11.27924919128418 35.69905853271484 C 12.04537963867188 35.25761795043945 12.30608940124512 34.28036880493164 11.86464977264404 33.51422882080078 C 11.56759738922119 33.00056076049805 11.0305061340332 32.71413421630859 10.47829151153564 32.71413421630859 C 10.20688438415527 32.71413421630859 9.931744575500488 32.78337860107422 9.6798095703125 32.92884826660156 L 4.014589786529541 36.20129776000977 C 3.248459577560425 36.64273834228516 2.987749576568604 37.61998748779297 3.429199695587158 38.38612747192383 C 3.725099563598633 38.89953994750977 4.262509822845459 39.18584823608398 4.815909862518311 39.18584823608398 M 49.58263778686523 27.19004821777344 C 50.46712875366211 27.19004821777344 51.18207931518555 26.4734992980957 51.18207931518555 25.59060859680176 C 51.18207931518555 24.70771980285645 50.46712875366211 23.99116897583008 49.58263778686523 23.99116897583008 L 43.18487930297852 23.99116897583008 C 42.30038833618164 23.99116897583008 41.5854377746582 24.70771980285645 41.5854377746582 25.59060859680176 C 41.5854377746582 26.4734992980957 42.30038833618164 27.19004821777344 43.18487930297852 27.19004821777344 L 49.58263778686523 27.19004821777344 M 7.997199535369873 27.19004821777344 C 8.88008975982666 27.19004821777344 9.596639633178711 26.4734992980957 9.596639633178711 25.59060859680176 C 9.596639633178711 24.70771980285645 8.88008975982666 23.99116897583008 7.997199535369873 23.99116897583008 L 1.59943962097168 23.99116897583008 C 0.7165496349334717 23.99116897583008 -3.424072190227889e-07 24.70771980285645 -3.424072190227889e-07 25.59060859680176 C -3.424072190227889e-07 26.4734992980957 0.7165496349334717 27.19004821777344 1.59943962097168 27.19004821777344 L 7.997199535369873 27.19004821777344 M 10.47793006896973 18.4650993347168 C 11.03133964538574 18.4650993347168 11.56874942779541 18.17880821228027 11.86464977264404 17.6653881072998 C 12.30608940124512 16.90084838867188 12.04537963867188 15.92198848724365 11.27924919128418 15.48054885864258 L 5.614039421081543 12.20969867706299 C 5.361527919769287 12.0636739730835 5.086113452911377 11.99427795410156 4.814477920532227 11.99427795410156 C 4.261950492858887 11.99427795410156 3.725152254104614 12.28146743774414 3.429199695587158 12.79508876800537 C 2.987749576568604 13.5596284866333 3.248459577560425 14.53847885131836 4.014589786529541 14.97992897033691 L 9.6798095703125 18.25077819824219 C 9.930919647216797 18.39632987976074 10.20762920379639 18.4650993347168 10.47793006896973 18.4650993347168 M 40.82889938354492 18.39312934875488 C 41.10081100463867 18.39312934875488 41.37590789794922 18.32434844970703 41.62701797485352 18.17880821228027 L 47.16748046875 14.97992897033691 C 47.93201065063477 14.53847885131836 48.19432067871094 13.55961894989014 47.75288009643555 12.79508876800537 C 47.45690536499023 12.28142070770264 46.91872024536133 11.99498844146729 46.36615371704102 11.99498844146729 C 46.09457397460938 11.99498844146729 45.8194465637207 12.06422805786133 45.56803894042969 12.20969867706299 L 40.02758026123047 15.40857887268066 C 39.2630500793457 15.85001850128174 39.00075149536133 16.82887840270996 39.44218826293945 17.59340858459473 C 39.73807907104492 18.1068286895752 40.27548980712891 18.39312934875488 40.82889938354492 18.39312934875488 M 19.19327926635742 53.18164825439453 C 18.70611953735352 53.18164825439453 18.23292922973633 53.08546829223633 17.7868595123291 52.89579010009766 C 16.17784881591797 52.21548080444336 15.29294967651367 50.48101043701172 15.68651008605957 48.77320861816406 L 19.46706581115723 32.3889274597168 L 14.39495944976807 32.3889274597168 C 14.06554126739502 32.3889274597168 13.74279975891113 32.34403991699219 13.43424510955811 32.25867462158203 C 13.49144458770752 32.34075546264648 13.54543876647949 32.42557907104492 13.5959997177124 32.51300811767578 C 14.58880996704102 34.23608779907227 13.99673938751221 36.44149780273438 12.27775001525879 37.43198013305664 L 6.614419460296631 40.70335006713867 C 6.070639610290527 41.01850891113281 5.447869777679443 41.18584823608398 4.815909862518311 41.18584823608398 C 3.531989574432373 41.18584823608398 2.336659669876099 40.4957389831543 1.696389675140381 39.38481903076172 C 1.216439604759216 38.55186080932617 1.088849663734436 37.58244705200195 1.337019681930542 36.65498733520508 C 1.585729598999023 35.72550964355469 2.182029724121094 34.94895935058594 3.016089677810669 34.46837997436523 L 8.679439544677734 31.19701957702637 C 9.226619720458984 30.88105964660645 9.848559379577637 30.71413803100586 10.47828960418701 30.71413803100586 C 10.80771446228027 30.71413803100586 11.13130283355713 30.75966644287109 11.44133758544922 30.84620666503906 C 11.3664608001709 30.73850631713867 11.29694175720215 30.62595748901367 11.23339939117432 30.5090389251709 C 10.73168277740479 29.58874893188477 10.66314506530762 28.50819396972656 11.01797103881836 27.54602241516113 C 10.37571811676025 28.53476142883301 9.261526107788086 29.19004821777344 7.997199535369873 29.19004821777344 L 1.59943962097168 29.19004821777344 C -0.38530033826828 29.19004821777344 -2.000000238418579 27.57534980773926 -2.000000238418579 25.59060859680176 C -2.000000238418579 23.60586929321289 -0.38530033826828 21.99116897583008 1.59943962097168 21.99116897583008 L 7.997199535369873 21.99116897583008 C 9.981939315795898 21.99116897583008 11.59663963317871 23.60586929321289 11.59663963317871 25.59060859680176 C 11.59663963317871 26.02598190307617 11.51894092559814 26.44355010986328 11.37668323516846 26.83017349243164 L 28.96772956848145 -0.3559810519218445 C 29.63674926757812 -1.386041045188904 30.76658058166504 -1.999281048774719 31.99188041687012 -1.999281048774719 C 32.47641372680664 -1.999281048774719 32.94799423217773 -1.903186917304993 33.39362335205078 -1.713658094406128 C 35.00590515136719 -1.030781030654907 35.89047241210938 0.7028984427452087 35.49716949462891 2.409608840942383 L 31.71526527404785 18.79228973388672 L 36.7871208190918 18.79228973388672 C 37.20006942749023 18.79228973388672 37.60251617431641 18.86289215087891 37.98004531860352 18.99550437927246 C 37.88143920898438 18.86820602416992 37.79091644287109 18.73357009887695 37.70935821533203 18.5920581817627 C 37.22953796386719 17.76105880737305 37.10190963745117 16.79107856750488 37.35078811645508 15.86220932006836 C 37.59965896606445 14.93338871002197 38.19512939453125 14.15717887878418 39.02750778198242 13.67656898498535 L 44.56801986694336 10.47765922546387 C 45.11317825317383 10.16221904754639 45.73553085327148 9.994989395141602 46.36614990234375 9.994989395141602 C 47.65011978149414 9.994989395141602 48.84550094604492 10.68532848358154 49.48579788208008 11.79659938812256 C 50.47729873657227 13.51376914978027 49.8863410949707 15.71947860717773 48.16756057739258 16.71192932128906 L 42.62704086303711 19.91084861755371 C 42.08366775512695 20.22577857971191 41.46088027954102 20.39312934875488 40.82889938354492 20.39312934875488 C 40.41630172729492 20.39312934875488 40.01283645629883 20.32185554504395 39.6340217590332 20.18825912475586 C 39.7501220703125 20.33815383911133 39.85527038574219 20.49835205078125 39.94797897338867 20.66796875 C 40.45016479492188 21.59197998046875 40.51970672607422 22.66977500915527 40.1683235168457 23.62871742248535 C 40.81123733520508 22.64362525939941 41.92333984375 21.99116897583008 43.18487930297852 21.99116897583008 L 49.58263778686523 21.99116897583008 C 51.56737899780273 21.99116897583008 53.18207931518555 23.60586929321289 53.18207931518555 25.59060859680176 C 53.18207931518555 27.57534980773926 51.56737899780273 29.19004821777344 49.58263778686523 29.19004821777344 L 43.18487930297852 29.19004821777344 C 41.20013809204102 29.19004821777344 39.5854377746582 27.57534980773926 39.5854377746582 25.59060859680176 C 39.5854377746582 25.15741539001465 39.66241073608398 24.74172019958496 39.80331039428711 24.35672569274902 L 22.21594047546387 51.53719711303711 C 21.54783058166504 52.56752014160156 20.41826057434082 53.18164825439453 19.19327926635742 53.18164825439453 Z M 25.96809196472168 25.77926826477051 C 26.2830982208252 25.98672485351562 26.56744003295898 26.24552345275879 26.80953979492188 26.55006980895996 C 27.49464988708496 27.41278839111328 27.74629974365234 28.5225887298584 27.5005989074707 29.59571838378906 L 27.31289672851562 30.40910530090332 L 30.17126846313477 25.99116897583008 L 27.19047927856445 25.99116897583008 C 26.76686859130859 25.99116897583008 26.35441970825195 25.91813468933105 25.96809196472168 25.77926826477051 Z M 21.01099967956543 25.19004821777344 L 23.99160003662109 25.19004821777344 C 24.41486930847168 25.19004821777344 24.82695960998535 25.26298141479492 25.21283340454102 25.401611328125 C 24.8994312286377 25.19528961181641 24.61644172668457 24.93828582763672 24.37509918212891 24.63597869873047 L 24.37348937988281 24.63395881652832 L 24.37188911437988 24.63194847106934 C 23.68787002563477 23.77058982849121 23.43610954284668 22.66070938110352 23.68115997314453 21.58688926696777 L 23.86897087097168 20.77314758300781 L 21.01099967956543 25.19004821777344 Z M 46.36616134643555 41.18584823608398 C 45.73414993286133 41.18584823608398 45.11135101318359 41.01848983764648 44.56509017944336 40.70185852050781 L 39.02756118774414 37.50468063354492 C 37.31026077270508 36.51308822631836 36.71891021728516 34.30806732177734 37.70927810668945 32.58929824829102 C 38.35010147094727 31.47715950012207 39.54545974731445 30.78627967834473 40.8288688659668 30.78627967834473 C 41.45967864990234 30.78627967834473 42.08179473876953 30.95392608642578 42.62839508056641 31.27115058898926 L 48.16749954223633 34.46925735473633 C 49.00040054321289 34.94916915893555 49.59698104858398 35.72615814208984 49.84582138061523 36.65620803833008 C 50.09453964233398 37.58583068847656 49.96580123901367 38.55632019042969 49.48331832885742 39.38890838623047 C 48.84542083740234 40.4957389831543 47.65008926391602 41.18584823608398 46.36616134643555 41.18584823608398 Z M 10.47793006896973 20.4650993347168 C 9.84591007232666 20.4650993347168 9.223109245300293 20.29773902893066 8.676859855651855 19.98111915588379 L 3.014579772949219 16.71197891235352 C 2.181999683380127 16.23223876953125 1.585669636726379 15.45537853240967 1.336959600448608 14.52538871765137 C 1.088669657707214 13.59700870513916 1.216599702835083 12.62733936309814 1.697189688682556 11.79501914978027 C 2.336859703063965 10.68487930297852 3.531679630279541 9.994278907775879 4.814479827880859 9.994278907775879 C 5.444919586181641 9.994278907775879 6.067619800567627 10.16166877746582 6.61523962020874 10.47833919525146 L 12.27925968170166 13.74849891662598 C 13.11182975769043 14.22822856903076 13.70815944671631 15.00507926940918 13.95687961578369 15.93507862091064 C 14.20516967773438 16.86345863342285 14.07724952697754 17.8331184387207 13.59666919708252 18.66544914245605 C 12.95720958709717 19.77497863769531 11.76186943054199 20.4650993347168 10.47793006896973 20.4650993347168 Z" stroke="none" fill="#fff"/></g><path d="M0,32.983v-1.1A16.471,16.471,0,0,1,11.632,16.116a8.8,8.8,0,1,1,9.723,0A16.468,16.468,0,0,1,32.982,31.882v1.1Zm2.2-2.2H30.677a14.279,14.279,0,0,0-28.475,0ZM9.9,8.8a6.6,6.6,0,1,0,6.592-6.6A6.609,6.609,0,0,0,9.9,8.8Z" transform="translate(78.057 63.275)" fill="#172b51" stroke="#172b51" stroke-width="2"/></g></g></svg>