<svg xmlns="http://www.w3.org/2000/svg" width="111" height="111" viewBox="0 0 111 111"><rect width="111" height="111" fill="rgba(255,255,255,0)"/><path d="M67.972,98a1.585,1.585,0,0,1-1.586-1.578V93.258a10.448,10.448,0,0,1,.129-1.578H31.488a11.57,11.57,0,0,1,.129,1.578v3.164A1.585,1.585,0,0,1,30.03,98H7.905a1.576,1.576,0,0,1-1.578-1.578V93.258a10.451,10.451,0,0,1,.125-1.578H1.581A1.6,1.6,0,0,1,.39,91.141a1.572,1.572,0,0,1-.375-1.254L7.921,29.828a1.57,1.57,0,0,1,1.563-1.375h6.328V26.867a11.074,11.074,0,0,1,6.578-10.1,9.484,9.484,0,1,1,12.125,0,11.068,11.068,0,0,1,6.578,10.1v1.586H56.9V26.867a11.069,11.069,0,0,1,6.586-10.1,9.482,9.482,0,1,1,12.129,0,11.077,11.077,0,0,1,6.574,10.1v1.586h6.324a1.571,1.571,0,0,1,1.566,1.375l7.9,60.059a1.584,1.584,0,0,1-.371,1.254,1.6,1.6,0,0,1-1.191.539H91.55a10.981,10.981,0,0,1,.129,1.578v3.164A1.579,1.579,0,0,1,90.1,98Zm1.578-4.742v1.578H88.515V93.258a7.917,7.917,0,0,0-7.9-7.906H77.448A7.914,7.914,0,0,0,69.55,93.258Zm-60.066,0v1.578H28.452V93.258a7.911,7.911,0,0,0-7.9-7.906H17.39A7.918,7.918,0,0,0,9.484,93.258ZM88.515,75.871A9.482,9.482,0,0,1,85.1,83.156a11.085,11.085,0,0,1,5.5,5.359H94.62L87.132,31.609H10.87L3.386,88.516h4.02a11.1,11.1,0,0,1,5.5-5.359,9.482,9.482,0,1,1,12.137,0,11.054,11.054,0,0,1,5.488,5.359H67.476a11.069,11.069,0,0,1,5.488-5.359,9.481,9.481,0,1,1,15.551-7.285Zm-15.809,0a6.324,6.324,0,1,0,6.328-6.328A6.332,6.332,0,0,0,72.706,75.871Zm-60.059,0a6.32,6.32,0,1,0,6.316-6.328A6.33,6.33,0,0,0,12.648,75.871ZM74.261,24.98a1.585,1.585,0,0,1-.141,1.012L72.9,28.453h6.137V26.867a7.9,7.9,0,0,0-5.918-7.617Zm-14.2,1.887v1.586h6.141l-1.234-2.461a1.514,1.514,0,0,1-.129-1.012l1.141-5.73A7.892,7.892,0,0,0,60.066,26.867ZM33.159,24.98a1.582,1.582,0,0,1-.133,1.012L31.8,28.453h6.141V26.867a7.9,7.9,0,0,0-5.914-7.617Zm-14.2,1.887v1.586h6.145l-1.227-2.461a1.471,1.471,0,0,1-.137-1.012l1.137-5.73A7.9,7.9,0,0,0,18.964,26.867Zm49.086-1.8,1.5,3.012,1.5-3.012-1.219-6.1h-.566Zm-41.1,0,1.5,3.012,1.5-3.012-1.215-6.1h-.57ZM63.23,9.48a6.32,6.32,0,0,0,12.641,0,6.506,6.506,0,0,0-.074-.789,25.251,25.251,0,0,1-6.246.789,25.173,25.173,0,0,1-6.242-.789A5.805,5.805,0,0,0,63.23,9.48Zm-41.1,0a6.32,6.32,0,1,0,12.641,0,5.243,5.243,0,0,0-.078-.789,48.119,48.119,0,0,1-6.242.789,48.119,48.119,0,0,1-6.242-.789A5.805,5.805,0,0,0,22.132,9.48ZM64.488,5.734a22.7,22.7,0,0,0,10.121,0,6.267,6.267,0,0,0-10.121,0Zm-41.094,0a22.682,22.682,0,0,0,10.117,0,6.263,6.263,0,0,0-10.117,0ZM47.425,77.449a3.162,3.162,0,0,1-3.168-3.164v-2.4a13.317,13.317,0,0,1-1.379-.574l-1.7,1.7a3.173,3.173,0,0,1-4.48,0l-2.23-2.23a3.169,3.169,0,0,1,0-4.477l1.7-1.7c-.215-.449-.4-.91-.574-1.383h-2.4a3.166,3.166,0,0,1-3.164-3.164V56.9a3.171,3.171,0,0,1,3.164-3.164h2.4c.172-.473.359-.926.574-1.375l-1.7-1.7a3.164,3.164,0,0,1,0-4.473l2.23-2.238a3.173,3.173,0,0,1,4.48,0l1.7,1.7a14.182,14.182,0,0,1,1.379-.566v-2.41a3.159,3.159,0,0,1,3.168-3.152h3.152a3.158,3.158,0,0,1,3.164,3.152v2.41a13.906,13.906,0,0,1,1.383.574l1.7-1.707a3.19,3.19,0,0,1,4.477,0l2.23,2.238a3.164,3.164,0,0,1,0,4.473l-1.7,1.7a14.165,14.165,0,0,1,.574,1.375h2.4A3.171,3.171,0,0,1,67.972,56.9v3.164a3.171,3.171,0,0,1-3.164,3.164h-2.4c-.168.465-.359.926-.574,1.375l1.7,1.707a3.155,3.155,0,0,1,0,4.465L61.3,73.016a3.183,3.183,0,0,1-4.477,0l-1.7-1.707a13.033,13.033,0,0,1-1.383.574v2.4a3.161,3.161,0,0,1-3.164,3.164ZM43.39,68a10.634,10.634,0,0,0,2.844,1.184,1.574,1.574,0,0,1,1.191,1.527v3.574h3.152V70.711a1.58,1.58,0,0,1,1.188-1.527,10.874,10.874,0,0,0,2.844-1.176,1.586,1.586,0,0,1,1.922.238l2.531,2.531L61.3,68.539l-2.531-2.52a1.6,1.6,0,0,1-.246-1.93,11.19,11.19,0,0,0,1.18-2.84,1.575,1.575,0,0,1,1.531-1.184h3.574V56.9H61.234A1.584,1.584,0,0,1,59.7,55.719a11.3,11.3,0,0,0-1.18-2.848,1.586,1.586,0,0,1,.246-1.922L61.3,48.426l-2.238-2.238L56.53,48.719a1.586,1.586,0,0,1-1.922.238,11,11,0,0,0-2.844-1.172,1.6,1.6,0,0,1-1.187-1.535V42.672H47.425V46.25a1.578,1.578,0,0,1-1.191,1.527,11.3,11.3,0,0,0-2.844,1.18,1.562,1.562,0,0,1-1.918-.246l-2.527-2.523L36.7,48.418l2.531,2.531a1.583,1.583,0,0,1,.238,1.922A11.612,11.612,0,0,0,38.3,55.719,1.572,1.572,0,0,1,36.773,56.9H33.195v3.164h3.578A1.565,1.565,0,0,1,38.3,61.242a10.979,10.979,0,0,0,1.176,2.848,1.575,1.575,0,0,1-.238,1.918L36.7,68.539l2.242,2.238,2.527-2.531a1.583,1.583,0,0,1,1.113-.461A1.645,1.645,0,0,1,43.39,68Zm-2.3-9.52A7.9,7.9,0,1,1,49,66.391,7.914,7.914,0,0,1,41.093,58.48Zm3.164,0A4.742,4.742,0,1,0,49,53.738,4.75,4.75,0,0,0,44.257,58.48ZM75.87,63.223V60.066h3.164v3.156Zm-56.906,0V60.066h3.168v3.156ZM75.87,56.9V53.738h3.164V56.9Zm-56.906,0V53.738h3.168V56.9ZM69.55,53.738V50.582h3.156v3.156Zm-44.262,0V50.582h3.164v3.156ZM75.87,50.582V47.414h3.164v3.168Zm-56.906,0V47.414h3.168v3.168ZM75.87,44.258V41.094h3.164v3.164Zm-56.906,0V41.094h3.168v3.164ZM75.87,37.93V34.777h3.164V37.93Zm-56.906,0V34.777h3.168V37.93Z" transform="translate(6.005 6.004)" fill="#172b51"/></svg>