<svg xmlns="http://www.w3.org/2000/svg" width="111" height="111" viewBox="0 0 111 111"><rect width="111" height="111" fill="rgba(255,255,255,0)"/><path d="M95.251,61.42a2.461,2.461,0,0,1,.26,1.1v9.843a2.461,2.461,0,0,1-2.461,2.461H61.059V94.511h7.382a2.461,2.461,0,1,1,0,4.922H29.069a2.461,2.461,0,1,1,0-4.922h7.382V74.824H4.461A2.461,2.461,0,0,1,2,72.363V62.52a2.461,2.461,0,0,1,.26-1.1c.007-.015.014-.03.022-.044L21.946,22.047a2.461,2.461,0,0,1,2.2-1.36h2.461V16.853a7.377,7.377,0,0,1,5.049-7.005l9.95-3.317a7.382,7.382,0,1,1,.482,5.027l-8.877,2.959a2.456,2.456,0,0,0-1.682,2.336v3.834H73.364a2.461,2.461,0,0,1,2.2,1.36L95.229,61.375l.023.044Zm-6.183-1.36L71.843,25.608H31.53v7.382a2.461,2.461,0,1,1-4.922,0V25.608h-.94L8.442,60.059Zm1.521,4.922H6.922V69.9H90.589V64.981ZM56.138,94.511V74.824H41.373V94.511ZM46.295,8.423a2.461,2.461,0,1,0,0-.081q0,.041,0,.081ZM62,35.451H45.755L42.064,50.216H69.382ZM73.364,55.138H38.912a2.461,2.461,0,0,1-2.387-3.058l4.922-19.686a2.461,2.461,0,0,1,2.387-1.864H63.52a2.461,2.461,0,0,1,2.2,1.36l9.843,19.686A2.461,2.461,0,0,1,73.364,55.138Z" transform="translate(6.536 5.654)" fill="#1d3665"/></svg>