<svg xmlns="http://www.w3.org/2000/svg" width="240" height="100" viewBox="0 0 240 100"><defs><style>.a{fill:rgba(255,255,255,0);}.b{fill:#01b0ba;}</style></defs><g transform="translate(40 24.975)"><rect class="a" width="240" height="100" transform="translate(-40 -24.975)"/><g transform="translate(-16 2.025)"><path d="M187.908,59.408h-4.033L182.723,56h-5.938l-1.152,3.412H171.6l5.672-15.953h5.1ZM179.754,46.6l-2.127,6.248h4.166Zm16.485,12.807h-4.077V43.455h6.381c4.254,0,6.47,1.95,6.47,5.052a4.71,4.71,0,0,1-3.279,4.609l3.545,6.293h-4.033l-3.191-5.362-1.861.133v5.229Zm1.994-8.242c1.728-.133,2.659-.842,2.659-2.393,0-1.418-.975-2.083-3.013-2.083h-1.684v4.52Zm23.442-3.5a8.034,8.034,0,0,0-4.033-1.152c-2.747,0-4.52,1.861-4.52,4.875s1.684,4.963,4.564,4.963a7.989,7.989,0,0,0,4.21-1.285l.842,3.589a11.681,11.681,0,0,1-5.229,1.152c-5.1,0-8.464-2.925-8.464-8.287,0-5.14,3.324-8.42,8.6-8.42a12.321,12.321,0,0,1,5.273,1.2Zm12.674,12.142c-4.7,0-8.331-2.925-8.331-8.331a8.051,8.051,0,0,1,8.375-8.375c4.742,0,8.331,2.925,8.331,8.287a8.087,8.087,0,0,1-8.375,8.42m0-13.472c-2.7,0-4.254,2.038-4.254,5.008,0,3.058,1.6,5.14,4.3,5.14,2.659,0,4.254-2.083,4.254-5.052,0-3.013-1.6-5.1-4.3-5.1m23.664-2.88h3.811V59.408h-4.387l-6.6-10.325V59.408h-3.811V43.455h4.387l6.647,10.37V43.455Zm8.242,0h4.077V59.408h-4.077Zm21.049,4.21a8.034,8.034,0,0,0-4.033-1.152c-2.748,0-4.52,1.861-4.52,4.875s1.684,4.963,4.564,4.963a7.989,7.989,0,0,0,4.21-1.285l.842,3.589a11.681,11.681,0,0,1-5.229,1.152c-5.1,0-8.464-2.925-8.464-8.287,0-5.14,3.324-8.42,8.6-8.42a12.321,12.321,0,0,1,5.273,1.2Z" transform="translate(-95.556 -24.012)"/><path class="b" d="M45.866,46.367,31.552,38.124,17.238,46.367a1.413,1.413,0,0,1-1.329,0L.665,37.548A1.322,1.322,0,0,1,0,36.4V18.8a1.322,1.322,0,0,1,.665-1.152L30.887.191a1.413,1.413,0,0,1,1.329,0l30.222,17.46A1.322,1.322,0,0,1,63.1,18.8V36.44a1.378,1.378,0,0,1-.665,1.152L47.195,46.411a1.554,1.554,0,0,1-1.329-.044M16.574,43.043l11.743-6.78-11.743-6.78L4.83,36.263Zm31.552-.931,11.743-6.78V21.772l-11.743,6.78Zm-3.191,0V28.552L31.552,20.842l-11.743,6.78Zm-41.7-8.686,10.148-5.85L3.235,21.772Zm13.339-7.711,13.339-7.711V4.445L4.83,18.936Zm29.957,0,11.743-6.78L33.147,4.445v13.56Z" transform="translate(0 -0.025)"/></g></g></svg>