<svg xmlns="http://www.w3.org/2000/svg" width="240" height="100" viewBox="0 0 240 100"><defs><style>.a{fill:rgba(255,255,255,0);}</style></defs><g transform="translate(-54.908 -19)"><rect class="a" width="240" height="100" transform="translate(54.908 19)"/><path d="M14470.354,18759.627a25.731,25.731,0,0,1-5.185-.545c-5.692-1.561-11.384-6.16-13.8-11.15-4.366-8.928-2.846-18.635,3.977-25.5a21.656,21.656,0,1,1,30.449,30.8,19.925,19.925,0,0,1-15.09,6.395C14470.587,18759.629,14470.471,18759.629,14470.354,18759.627Zm-5.185-40.078c-.857.936-4.172,9.941-3.9,10.645.233.623-.391,17.5-.858,22.924l-.233,2.611,1.6.818a21.857,21.857,0,0,0,7.992,1.912l1.871.037-.234-2.611c-.507-5.926-1.442-24.795-1.247-25.537.117-.506-.585-2.494-1.794-5.145-1.053-2.379-2.1-4.758-2.3-5.264-.183-.479-.312-.691-.473-.691C14465.478,18719.248,14465.347,18719.355,14465.169,18719.549Zm116.337,30.8c0-.2.429-.469.975-.586a2.173,2.173,0,0,0,1.364-1.248c.233-.545.39-5.535.39-11.111v-10.1h-2.885a18.576,18.576,0,0,0-4.016.389,3.416,3.416,0,0,0-2.066,2.924c0,.313-.156.586-.39.586s-.391-1.287-.391-3.119a16.529,16.529,0,0,1,.156-3.119,8.552,8.552,0,0,1,1.248.584c.9.469,2.846.586,9.513.586s8.616-.117,9.513-.586a5.427,5.427,0,0,1,1.442-.584c.2,0,.351,1.4.351,3.119,0,1.832-.155,3.119-.39,3.119-.2,0-.39-.352-.39-.742a3.821,3.821,0,0,0-.936-1.871c-.9-1.014-1.17-1.092-4.483-1.209l-3.548-.154v10.486c0,8.85.077,10.605.623,11.346a1.973,1.973,0,0,0,1.365.857c.39,0,.74.2.74.391,0,.232-1.637.389-4.094.389C14583.338,18750.7,14581.506,18750.543,14581.506,18750.35Zm-22.651-4.912c-2.612-2.887-4.835-5.264-4.913-5.264-.039,0-.116,1.949-.116,4.326,0,3.977.077,4.328.779,4.523.429.117.78.467.78.74,0,.391-.585.547-2.145.547-2.223,0-2.729-.43-1.364-1.17.74-.391.779-.74.7-5.77l-.117-5.342-1.053-.508c-1.559-.74-1.325-1.246.585-1.246,1.6.039,1.716.115,6.121,5.068l4.483,4.99.117-4.328c.078-3.549,0-4.367-.507-4.641-1.131-.662-.585-1.09,1.364-1.09,1.871,0,2.612.545,1.364,1.014-.506.193-.584,1.324-.584,6.822,0,3.9-.156,6.588-.391,6.588A55.712,55.712,0,0,1,14558.854,18745.438Zm-40.508,5.145-2.5-.078-1.4-2.027c-.741-1.129-2.145-3.273-3.119-4.834-1.91-3-3.82-4.639-5.536-4.639h-1.092v4.639a39.41,39.41,0,0,0,.234,5.3,3.215,3.215,0,0,0,1.481,1.209c1.131.467.857.506-3.08.545h-4.288l1.364-.7,1.364-.662.117-10.137c.039-5.576,0-10.527-.117-10.994a1.7,1.7,0,0,0-1.17-1.131c-.546-.117-.975-.43-.975-.625,0-.232,1.988-.35,5.381-.232,4.483.076,5.574.232,6.9.936a6.046,6.046,0,0,1,.272,10.6l-1.637.9,1.13.975a26.9,26.9,0,0,1,3.509,4.756c2.925,4.68,3.08,4.875,4.522,5.654l1.17.662Zm-13.646-17.816c0,6.2-.233,5.848,3.47,5.029,2.729-.584,3.938-2.027,3.938-4.756,0-3.314-1.833-5.576-4.679-5.77-.562-.031-1.008-.07-1.363-.07C14504.574,18727.2,14504.7,18727.883,14504.7,18732.766Zm18.909,17.193a8.184,8.184,0,0,1-4.055-4.055,7.653,7.653,0,0,1,2.768-8.693c1.364-.975,1.988-1.131,4.211-1.131,2.183,0,2.846.156,4.21,1.092a7.34,7.34,0,0,1-.857,12.553,7.4,7.4,0,0,1-3.391.924A6.872,6.872,0,0,1,14523.61,18749.959Zm-1.716-9.162c-1.092,3.938.272,7.408,3.314,8.344,1.6.467,1.715.467,3.508-.352,2.105-.975,3.119-3.275,2.769-6.471-.272-2.613-1.364-4.25-3.235-4.875a5.541,5.541,0,0,0-1.724-.283A4.743,4.743,0,0,0,14521.895,18740.8Zm17.232,9.318c-2.3-.975-2.846-2.5-2.846-7.682,0-4.17-.078-4.639-.78-5.068-1.325-.818-.9-1.09,1.755-1.09,2.378,0,3.313.506,1.949,1.014-.78.311-.819,9.746-.039,10.76,1.4,1.871,4.873,1.441,5.691-.662a25.527,25.527,0,0,0,.391-5.459c0-4.094-.078-4.445-.78-4.678-1.56-.508-.7-.975,1.755-.975,2.378,0,3.313.506,1.949,1.014-.468.193-.585,1.246-.585,6.043,0,4.912.078,5.809.585,5.809a.6.6,0,0,1,.585.584c0,.43-.468.586-1.755.586-1.247,0-1.754-.156-1.754-.547,0-.428-.312-.389-1.443.2a4.869,4.869,0,0,1-4.678.156Zm104.406-3.627c-1.13-1.793-2.184-2.807-2.924-2.807a7.725,7.725,0,0,0-.233,2.574c0,2.26.077,2.611.779,2.768,1.56.428.507,1.092-1.871,1.209-1.911.078-2.417,0-2.417-.43a1.042,1.042,0,0,1,.584-.818c.468-.156.585-1.209.585-5.887s-.117-5.732-.585-5.887a1.045,1.045,0,0,1-.584-.82c0-.975,6.276-.506,7.68.508a3.581,3.581,0,0,1,.468,5.574l-.818.742,1.481,2.416a15.546,15.546,0,0,0,2.378,3.119c1.248.975,1.131,1.561-.39,1.561C14646.185,18750.311,14645.482,18749.686,14643.533,18746.488Zm-3.157-6.51c0,2.65.312,3,2.144,2.3.975-.391,1.4-1.912.936-3.158s-1.014-1.678-2.183-1.678C14640.414,18737.443,14640.376,18737.6,14640.376,18739.979Zm-24.017,5.652c-.818-2.572-1.6-4.561-1.754-4.4-.117.2-.9,2.3-1.716,4.717-.779,2.418-1.638,4.367-1.91,4.367s-1.325-2.691-2.534-6.473c-1.638-5.146-2.184-6.51-2.807-6.666-1.521-.43-.43-1.092,1.91-1.209,2.456-.117,3.08.313,1.832,1.248-.468.35-.39.975.7,4.4a25.261,25.261,0,0,0,1.442,4.016,17.24,17.24,0,0,0,1.4-3.664c1.248-3.7,1.209-4.912-.078-4.912-.351,0-.546-.234-.468-.469.234-.662,4.99-.936,4.99-.271a1.494,1.494,0,0,1-.585.9c-.507.389-.429.936.663,4.443.663,2.184,1.364,3.859,1.481,3.705a64.766,64.766,0,0,0,2.729-8.031c0-.156-.273-.273-.624-.273s-.546-.234-.468-.469c.272-.74,3.82-.9,3.82-.2a.892.892,0,0,1-.546.781c-.546.232-2.1,4.016-3.977,9.746-.585,1.871-1.325,3.393-1.6,3.393S14617.179,18748.322,14616.359,18745.631Zm-48.89,4.094a.6.6,0,0,1,.585-.584c.507,0,.585-.9.585-5.809,0-4.8-.117-5.85-.585-6.043-.312-.117-.585-.391-.585-.625s1.442-.389,3.821-.389c4.327,0,6.277.662,7.992,2.689a6.633,6.633,0,0,1-2.066,10.486c-1.442.7-2.339.859-5.73.859C14568.172,18750.311,14567.47,18750.193,14567.47,18749.725Zm3.509-6.705c0,4.172.117,5.73.508,5.887a9.318,9.318,0,0,0,4.873-.584c2.807-1.756,2.689-8.031-.2-9.9a8.645,8.645,0,0,0-3.08-.857l-2.105-.232Zm54.972,6.744c0-.273.352-.623.78-.74.74-.2.779-.547.779-5.459,0-5.613-.156-6.51-1.053-6.51-.312,0-.507-.234-.39-.469.078-.35,1.325-.506,4.405-.506h4.25l.117,1.48c.077,1.053-.039,1.443-.43,1.443-.312,0-.662-.352-.779-.779-.156-.664-.546-.781-2.184-.781h-1.988v5.068h1.521a2.868,2.868,0,0,0,1.988-.584c.819-1.014,1.17-.662,1.17,1.17s-.351,2.184-1.17,1.17a2.913,2.913,0,0,0-2.027-.586h-1.521l.117,2.457.117,2.416,1.91.117c1.638.117,2.066,0,2.612-.779.9-1.17,1.247-.74.818.9l-.312,1.326-4.366.117c-.765.016-1.4.025-1.932.025C14626.454,18750.258,14625.95,18750.131,14625.95,18749.764Zm-31.774-.039a7.371,7.371,0,1,1,7.759-.7c-1.17.857-1.91,1.092-4.016,1.209-.3.012-.583.02-.847.02A6.1,6.1,0,0,1,14594.176,18749.725Zm-.194-11.229c-2.534,2.848-1.755,8.969,1.325,10.293a7.715,7.715,0,0,0,2.729.2,3.549,3.549,0,0,0,3-1.326c1.988-2.221,1.988-6.939-.039-9.162-1.014-1.131-1.287-1.246-3.509-1.246S14595,18737.365,14593.981,18738.5Zm-129.437-3.273a14.792,14.792,0,0,1,.546-3.236c.429-1.443.585-1.6.818-.975.156.428.43,1.17.624,1.676a8.35,8.35,0,0,1,.351,2.418c0,1.48-.077,1.559-1.169,1.559S14464.545,18736.586,14464.545,18735.223Z" transform="translate(-14374 -18669)"/></g></svg>