<svg xmlns="http://www.w3.org/2000/svg" width="240" height="100" viewBox="0 0 240 100"><defs><style>.a{fill:rgba(255,255,255,0);}.b{fill:#034f6e;stroke:#eceef2;}.c{fill:none;}.d{fill:#50595b;}.e{fill:#eceef2;}.f{fill:#fefffe;}</style></defs><g transform="translate(14.779 0.102)"><rect class="a" width="240" height="100" transform="translate(-14.779 -0.102)"/><g transform="translate(0 4)"><path class="b" d="M0,45.639V0H210.236V91.277H0Z"/><path class="c" d="M0,45.639V0H65.173V9.951c0,5.484.053,15.768.123,22.863L65.4,45.726h.561c.315,0,1.051-.053,1.647-.105l1.069-.123V0H210.236V91.277H0ZM47.128,78.032a5.377,5.377,0,0,0,2.207-.526,3.792,3.792,0,0,0,.315-1.314,10.227,10.227,0,0,1,.21-1.3c.07-.175-.175-.158-1.191.105-5.834,1.524-10.056.946-13.035-1.822-1.927-1.787-2.891-4.327-2.891-7.656,0-5.4,2.891-9.461,7.726-10.792a19.53,19.53,0,0,1,7.971.158c.964.245,1.752.438,1.769.42s-.018-.683-.07-1.472l-.07-1.419-1.086-.193c-9.408-1.629-16.171,1.086-18.729,7.551-1.717,4.292-1.384,9.723.806,13.14a12.9,12.9,0,0,0,4.362,3.872C38.666,78.383,41.819,78.716,47.128,78.032Zm46.164-.088,1.086-.193.123-.964a3.906,3.906,0,0,0,.053-1.034,3.87,3.87,0,0,0-1,.193c-4.818,1.3-8.742.035-10.267-3.294a6.245,6.245,0,0,1-.561-3.013A7.462,7.462,0,0,1,87.2,62a13,13,0,0,1,7.446.105c.263.105.28,0,.193-.911a2.347,2.347,0,0,0-.28-1.121,22.019,22.019,0,0,0-5.326-.42c-5.781.578-9.04,4.1-9.04,9.723-.018,4.8,2.733,8.006,7.481,8.777A26.123,26.123,0,0,0,93.292,77.945ZM56.133,76.7c.053-.7.175-4.24.28-7.849s.245-7.1.3-7.744l.105-1.191H54.188L54.066,64c-.158,5.606-.438,11.931-.561,13.052l-.105.911h2.628Zm6.412.876c0-.526.526-13.6.578-14.314.035-.561.473.07,5.116,7.043l5.081,7.656h3.031l.105-.543A21.935,21.935,0,0,0,76.561,75c0-2.015.456-11.983.631-13.893l.105-1.191H74.861l-.228,6.973c-.123,3.819-.263,7.253-.333,7.639l-.105.683-4.38-6.622c-2.418-3.644-4.66-7.1-4.993-7.656l-.613-1.016H61.021L60.9,63.561c-.123,3.592-.333,8.374-.561,12.351l-.123,2.05h1.174C62.458,77.962,62.545,77.927,62.545,77.577Zm37.913-4.117c.14-5.414.42-12.386.543-13.052l.088-.491h-2.8V62.86c0,2.716-.175,7.5-.456,12.877l-.123,2.225h2.628Zm6.412,3.154c0-2.243.368-11.983.491-12.912l.123-.841,4.853,7.236c2.663,3.994,4.905,7.393,4.958,7.568.105.245.368.3,1.734.3h1.612l.315-7.218c.158-3.977.35-8.042.4-9.023l.105-1.8H120.29c-.806,0-1.156.07-1.156.228,0,.105-.123,3.136-.263,6.693-.14,3.574-.263,6.955-.263,7.533v1.051l-3.854-5.781c-2.137-3.171-4.432-6.675-5.116-7.744l-1.226-1.98h-3.294v2.418c0,2.645-.456,13.262-.631,14.717l-.105.911h2.488Zm20.393,1.069a11.665,11.665,0,0,0,.105-1.875c0-2.856.385-12.649.508-12.789.105-.105,9.233,13.438,9.811,14.559.193.35.315.385,1.857.385h1.664V76.088c0-1.962.42-11.738.631-14.541l.123-1.629h-2.313l-.088.578c-.053.3-.175,3.749-.3,7.656-.105,3.907-.228,7.113-.245,7.148-.035.053-8.585-12.842-9.653-14.541l-.508-.841h-3.241v1.717c0,2-.473,12.894-.631,14.927l-.123,1.4H126C126.895,77.962,127.175,77.892,127.263,77.682Zm19.1-1c.315-.7,1.1-2.383,1.769-3.767l1.191-2.488h7.271l.876,2.523c.491,1.4,1.069,3.1,1.279,3.767l.368,1.244h2.716l-2.05-5.554c-1.121-3.066-2.575-7.13-3.259-9.023l-1.209-3.469H153.7a4.247,4.247,0,0,0-1.594.14c.018.07-.806,1.787-1.857,3.8-1.051,2.032-2.61,5.063-3.486,6.745-.858,1.682-2.085,4.03-2.7,5.221l-1.139,2.137h2.856Zm24.177-2.172c.07-1.91.193-5.046.28-6.973.105-1.927.175-4.047.175-4.713V61.634l2.856.053,2.838.07.053-.911.053-.929H163.143l-.105.4a4.68,4.68,0,0,0-.105.929v.543l2.8-.088,2.8-.088v1.559c0,2.032-.491,12.877-.631,13.963l-.105.823h2.628Zm10.512.175c.315-9.268.473-13.35.561-14.016l.105-.753h-2.628l-.105,2.681c-.053,1.454-.175,4.87-.28,7.568s-.228,5.554-.3,6.36l-.105,1.437h2.645ZM2.821,48.915a.477.477,0,0,0-.4.105c-.14.14-.07.158.228.088C2.873,49.037,2.961,48.967,2.821,48.915ZM5.781,48.2c5.308-1.437,14.243-3.311,21.286-4.468,10.179-1.7,19.534-2.786,31.693-3.714l1.559-.123-.105,2.628-.105,2.628,1.1.193a12.457,12.457,0,0,0,1.314.21c.14,0,.193-5.781.193-22.285V1l-.35.315a1.6,1.6,0,0,1-.718.35,3.132,3.132,0,0,0-1.174.876c-.456.456-.736.788-.613.718a1.052,1.052,0,0,1,.736.14l.508.263L61.231,9.5c.105,4.643.088,6.079-.105,7.06l-.245,1.209-3.329,2.26A225.844,225.844,0,0,1,36.966,32.306C30.9,35.565,18.4,41.8,12.141,44.675c-3.013,1.384-5.449,2.54-5.414,2.575.088.088,6.044-2.488,12.982-5.606,18.956-8.515,30.9-14.8,39.156-20.621.911-.631,1.769-1.226,1.892-1.3.193-.123.21.175.14,1.489-.053.911-.193,4.73-.3,8.48-.105,3.767-.263,6.868-.35,6.92a25.186,25.186,0,0,1-2.821.333C41.346,38.3,23.108,41.942,9.723,46.462a31.33,31.33,0,0,1-3.539,1.069c-.245-.018-.35.053-.28.175.053.088.018.123-.07.07a3.718,3.718,0,0,0-1.472.491C2.926,48.967,2.943,48.967,5.781,48.2Zm200.723.578a.355.355,0,0,0-.333-.018c-.14.053-.088.105.105.105C206.469,48.88,206.574,48.827,206.5,48.775Zm-.7-.175a.355.355,0,0,0-.333-.018c-.14.053-.088.105.105.105C205.768,48.7,205.873,48.652,205.8,48.6Zm-5.974-1.489c-25.386-6.5-51.876-14.279-67.381-19.78-16.819-5.957-32.2-13.911-44.062-22.74l-1.752-1.3,1.226,1.261c5.1,5.221,14.524,11.9,23.476,16.609,2.751,1.437,2.628,1.454-.841.105-1.314-.526-2.435-.946-2.47-.946-.158,0-7.428-3.031-10.267-4.292-1.682-.736-5.256-2.418-7.954-3.732L84.918,9.9l.088-3.206c.07-2.908.123-3.241.456-3.7l.368-.491-.981-.21c-.823-.158-1.034-.14-1.472.105l-.508.3-.035,3.013L82.78,8.725l-1.314-.736c-1.069-.6-1.331-.823-1.367-1.209-.053-.491-.123-.526-1.524-.736a26.978,26.978,0,0,1-5.063-2.768c-.245-.175.438-.123,2.8.245,1.717.28,3.276.508,3.451.508.245,0,.3-.158.3-.858,0-.806-.035-.876-.491-.964C79,2.085,71.708,1.051,71.48,1.051c-.105,0-.175.158-.175.35s-.053.35-.105.35A7.6,7.6,0,0,1,69.973.946,7.118,7.118,0,0,0,68.852.228c0,.018.561.508,1.226,1.069A4.459,4.459,0,0,1,71.3,2.558a.283.283,0,0,0,.315.245,11.626,11.626,0,0,1,2.225,1.419c1.454,1.069,1.787,1.4,1.4,1.314-.28-.053-1.069-.175-1.752-.28-.666-.105-1.437-.228-1.717-.28L71.3,4.87V8.795c.018,3.767.018,3.889.315,3.416,1.121-1.822,6.184-2.067,7.849-.4l.578.578.053-1.892L80.152,8.6l1.331.823,1.331.823.123,3.136c.053,1.734.105,7.551.105,12.947v9.793l-.385-.105a8.442,8.442,0,0,0-1.4-.105H80.24V26.56c0-6.587-.053-9.513-.21-9.934-.543-1.647-1.594-2.3-3.819-2.383l-1.489-.053.911.245A2.738,2.738,0,0,1,77.8,16c.3.7.333,1.3.333,10.319V35.88l-1.261.07c-.7.035-2.137.07-3.206.07L71.743,36l-.053-8.97c-.07-9.951-.018-10.512.894-11.563.368-.42.438-.561.193-.4a4.013,4.013,0,0,0-1.3,1.945c-.105.35-.175,4.958-.175,11.51V39.437l.929-.088c.491-.053,3.154-.123,5.9-.14l4.993-.053.053,2.645.053,2.645.718.28a2.884,2.884,0,0,0,1.945.088l1.226-.193L87,41.837l-.123-2.768h1.542c8.655,0,27.646.736,41.049,1.577,9.023.578,14.7,1,24.44,1.84,5.606.491,10.109.911,19.622,1.84.964.088,5.011.526,9.005.964,3.977.438,7.341.771,7.446.718.105-.035.07-.088-.088-.088-.14-.018-4.135-.543-8.847-1.174-36.353-4.87-64.7-7.533-91.365-8.585l-2.926-.123-.105-1.594c-.07-.876-.228-3.994-.368-6.938-.508-10.494-.456-9.793-.946-10.95a5.225,5.225,0,0,1-.4-3l.053-1.962,2.926,1.664a171.454,171.454,0,0,0,33.778,14.226c17.415,5.361,47.759,13.175,73.565,18.921,2.225.508,5.221,1.174,6.657,1.489C206.381,48.9,205.488,48.564,199.829,47.11ZM5.694,47.3c.053-.105-.018-.123-.158-.07-.315.123-.368.245-.123.245A.333.333,0,0,0,5.694,47.3ZM14.541,42.4c2.453-1.419,5.536-3.189,6.833-3.942,5.781-3.346,13.77-8.55,17.94-11.686,8.83-6.64,15.277-13.823,19.815-22.127.841-1.542.718-1.437-.561.473C55.765,9.3,48.354,17.257,43.011,21.829A187.641,187.641,0,0,1,24.352,35.652c-6.675,4.432-8.042,5.291-15.715,9.793A25.657,25.657,0,0,0,6.307,46.9C6.307,47.023,9.706,45.183,14.541,42.4Zm180.4,4.257a.21.21,0,0,0-.245,0c-.053.07,0,.123.123.123S194.994,46.725,194.941,46.655Zm-2.523-.35a.925.925,0,0,0-.438,0c-.123.053-.035.088.21.088S192.523,46.357,192.418,46.3Zm-1.314-.175a1.8,1.8,0,0,0-.613,0c-.175.053-.035.088.3.088S191.262,46.182,191.1,46.129ZM79.592,45.1l.648-.105v-3.5l-3.1.105c-1.717.07-3.767.158-4.555.21l-1.454.105v3.5l3.907-.105C77.174,45.236,79.224,45.148,79.592,45.1Zm12.316-.964a2.106,2.106,0,0,0,.543-2.313,2.375,2.375,0,0,0-1.892-1.349A2.882,2.882,0,0,0,88.684,41.7a2.253,2.253,0,0,0,1.1,2.821A2.369,2.369,0,0,0,91.908,44.132ZM74.231,14.419a.21.21,0,0,0-.245,0c-.053.07,0,.123.123.123S74.283,14.489,74.231,14.419Z"/><path class="d" d="M5071.329,2334.4a1.213,1.213,0,0,1-.438-1.366,1.562,1.562,0,0,1,.473-1.121,1.755,1.755,0,1,1,2.365,2.593A1.713,1.713,0,0,1,5071.329,2334.4Zm.735-.631c0-.666.315-.543.964.368.351.525.508.193.157-.351-.245-.368-.263-.49-.087-.6a.624.624,0,0,0,.158-.561c-.035-.35-.158-.42-.788-.473l-.753-.052v1.156c0,.736.07,1.121.175,1.051C5071.995,2334.26,5072.064,2334.015,5072.064,2333.769Z" transform="translate(-4982.014 -2290.601)"/><path class="d" d="M5140,2381.127c0-.456.123-.508.6-.333.526.21.21.771-.438.771C5140.07,2381.565,5140,2381.372,5140,2381.127Z" transform="translate(-5049.949 -2338.992)"/><path class="e" d="M0,45.639V0H65.173V9.951c0,5.484.053,15.768.123,22.863L65.4,45.726h.561c.315,0,1.051-.053,1.647-.105l1.069-.123V0H210.236V91.277H189c-21.129-.018-21.251-.018-20.393-.35a4.2,4.2,0,0,0,2.68-3.889c.3-3.189-1.787-5.308-4.888-4.976a4.442,4.442,0,0,0-4.17,4.748A4.014,4.014,0,0,0,165,91.032c.543.193-1.91.228-16,.228-14.156,0-16.539-.035-15.89-.245a3.829,3.829,0,0,0,2.418-2.1,4.185,4.185,0,0,0,.456-2.33,4.049,4.049,0,0,0-1.384-3.539,4.858,4.858,0,0,0-6.833.858,5.024,5.024,0,0,0-.753,3.083,3.907,3.907,0,0,0,2.628,4.03c.7.21-.491.245-10.161.245-9.9,0-10.862-.035-10.109-.263a4.092,4.092,0,0,0,2.47-2.435,7.676,7.676,0,0,0,0-4.082,4.519,4.519,0,0,0-5.571-2.243,4.411,4.411,0,0,0-3.136,4.573c-.018,2.207.929,3.644,2.733,4.222.666.193.473.228-2.067.21a13.5,13.5,0,0,1-2.313-.088c.4-.07.473-.158.473-.613,0-.473-.053-.526-.385-.42-2.645.718-4.59-.21-5.046-2.4a4.156,4.156,0,0,1,1.261-4.047,4.407,4.407,0,0,1,3.959-.508c.333.07.385.018.385-.438,0-.526-.018-.526-1.156-.648-3.486-.385-5.676,1.454-5.676,4.713a7.918,7.918,0,0,0,.193,1.734,4.184,4.184,0,0,0,2.786,2.593c.245.07-5.519.123-12.789.123-7.271-.018-13.017-.053-12.772-.088a.573.573,0,0,0,.561-.543,1.234,1.234,0,0,0,.035-.543,2.928,2.928,0,0,0-.858.14c-2.768.7-4.643-.683-4.66-3.416,0-2.786,2.032-4.31,4.958-3.7.631.14.648.123.648-.385,0-.491-.035-.508-1.051-.631a5.619,5.619,0,0,0-3.714.666,4.467,4.467,0,0,0-2.015,3.644c-.193,2.313.753,3.942,2.681,4.625.6.21-4.047.245-34.3.263H0ZM30.922,89.087l.123-2.015h3.644V86.2H31.01v-.911a13.168,13.168,0,0,1,.105-1.577l.123-.666h3.977v-.876h-5.2l-.123,3.907c-.07,2.137-.175,4.152-.228,4.468-.088.543-.07.561.526.561H30.8Zm6.64-.561c.053-1.437.158-3.434.21-4.468l.088-1.892H36.651l-.105,2.593c-.053,1.419-.14,3.416-.193,4.468L36.266,91.1h1.191Zm2.926.613c.018-1.086.07-2.768.14-3.732l.105-1.752,2.33,3.732L45.411,91.1H46.9l.123-3.889c.07-2.155.158-4.17.228-4.468.088-.561.07-.578-.543-.578h-.631l-.018,1.98c-.018,1.069-.07,2.768-.14,3.767l-.105,1.8-2.348-3.767-2.33-3.784H39.647l-.123,3.819c-.07,2.085-.175,4.1-.228,4.468l-.105.648H40.47Zm9.268.158.806-1.787h3.451l.561,1.752.543,1.752.683.053c.578.053.648.018.526-.263-.193-.526-2-5.817-2.47-7.271l-.438-1.367H51.928l-2.085,4.31c-1.156,2.383-2.12,4.4-2.155,4.468-.035.088.245.158.613.158l.666-.018Zm8.812-.42c.07-1.244.123-2.891.123-3.7,0-.841.07-1.419.158-1.349.088.053,1.174,1.7,2.4,3.679L63.491,91.1h1.454l.123-2.663c.053-1.472.158-3.486.21-4.468l.105-1.8h-.508c-.491,0-.543.053-.648.806-.053.456-.105,1.822-.123,3.031a25.188,25.188,0,0,1-.123,2.891l-.123.7-2.137-3.434c-1.191-1.875-2.19-3.556-2.26-3.714-.07-.193-.315-.28-.858-.28H57.85l-.105,1.542c-.053.841-.158,2.838-.21,4.468L57.429,91.1h1.034Zm17.362.964c.053-.7.14-2.716.193-4.468l.088-3.206H75.019l-.105,3.469c-.07,1.892-.158,3.907-.21,4.467l-.105,1h1.226Zm2.768-.526.788-1.8,1.752-.053,1.734-.053.578,1.857.561,1.84h.6c.333,0,.613-.035.613-.088s-.561-1.734-1.244-3.732-1.331-3.942-1.454-4.327c-.193-.666-.245-.7-.981-.753l-.788-.035-2.137,4.468L76.6,91.1h1.3Zm12.929,1.349v-.438H87.563L87.668,88c.07-1.244.158-3.048.21-4.03l.105-1.8H86.775l-.123,2.681c-.053,1.454-.158,3.469-.21,4.467L86.337,91.1h5.291Zm23-1.7c.07-1.156.123-2.856.123-3.749a11.774,11.774,0,0,1,.105-1.892c.088-.228.368-.28,1.332-.28,1.051,0,1.261.053,1.629.438a1.667,1.667,0,0,1-.981,2.716,3.074,3.074,0,0,1-1.139.105c-.228-.07-.42-.07-.42,0a18.458,18.458,0,0,0,.946,1.7c.508.893,1.1,1.945,1.314,2.365.333.648.438.736.981.736.333,0,.613-.053.613-.105s-.543-.981-1.209-2.067l-1.209-1.962.736-.21a3.11,3.11,0,0,0,1.226-.718,2.079,2.079,0,0,0,.6-1.577c.07-.946.035-1.069-.456-1.612l-.526-.6-2.278-.053-2.26-.07-.123,3.837c-.07,2.1-.175,4.117-.228,4.485-.105.648-.088.648.508.648h.613Zm7.008-.088c.07-1.244.123-2.926.123-3.767,0-2.1-.018-2.067,1.419-2.067,1.489,0,1.91.315,1.91,1.419a1.459,1.459,0,0,1-.508,1.226c-.456.438-.648.508-1.489.508-.981,0-1.086.07-.876.6.088.21.35.28,1.051.28a2.666,2.666,0,0,0,2.68-1.454,2.475,2.475,0,0,0,.123-2.313c-.4-.929-1-1.139-3.346-1.139H120.71l-.018,2.155c-.018,1.174-.07,3.189-.14,4.468l-.105,2.313h1.086Zm16.819,1.051c.07-.666.123-2.172.123-3.381s.053-2.488.105-2.838l.123-.666h1.209c1.051,0,1.261.053,1.629.438a1.667,1.667,0,0,1-.981,2.716,3.074,3.074,0,0,1-1.139.105c-.228-.07-.42-.07-.42-.018,0,.035.368.683.806,1.437s1.034,1.822,1.314,2.383c.473.929.561,1,1.139,1,.753,0,.788.07-.613-2.19-1.121-1.8-1.209-2.015-.858-2.015a3.563,3.563,0,0,0,1.945-1.209,3.141,3.141,0,0,0,.3-1.4,1.722,1.722,0,0,0-.508-1.454l-.508-.578-2.278-.053-2.26-.07-.123,4.1c-.07,2.243-.158,4.257-.228,4.485-.088.35-.018.385.508.385h.613Zm6.868-.666.841-1.84h3.381l.6,1.84.6,1.84h.578c.315,0,.578-.053.578-.123,0-.088-.666-2.067-1.472-4.432l-1.472-4.292h-1.489l-2.155,4.432L143.171,91.1h1.314Zm10.617.491c.018-.753.07-2.54.14-3.994l.105-2.628,1.367-.053c1.3-.053,1.349-.07,1.349-.473v-.438h-6.482v.438c0,.42.035.438,1.331.438h1.331l-.105,1.892c-.053,1.034-.14,2.838-.21,4.03l-.105,2.137h1.261Zm4.783-1.4c.053-1.524.158-3.539.21-4.468l.105-1.717h-1.226l-.105,2.943c-.053,1.612-.158,3.609-.21,4.468l-.105,1.524h1.226ZM173.69,89.49c.053-.876.105-2.488.105-3.574a7.6,7.6,0,0,1,.14-2.05,28.824,28.824,0,0,1,2.4,3.574l2.278,3.662h1.454l.105-2.4c.07-1.331.158-3.346.21-4.468l.105-2.067h-1.034l-.123,1.349c-.053.736-.105,2.278-.105,3.451a12.39,12.39,0,0,1-.14,2.348c-.105.14-.894-1-2.418-3.451l-2.26-3.679-.718-.018h-.718l-.105,2.155c-.07,1.174-.175,3.189-.228,4.468l-.123,2.313h1.051ZM47.128,78.032a5.377,5.377,0,0,0,2.207-.526,3.792,3.792,0,0,0,.315-1.314,10.227,10.227,0,0,1,.21-1.3c.07-.175-.175-.158-1.191.105-5.834,1.524-10.056.946-13.035-1.822-1.927-1.787-2.891-4.327-2.891-7.656,0-5.4,2.891-9.461,7.726-10.792a19.53,19.53,0,0,1,7.971.158c.964.245,1.752.438,1.769.42s-.018-.683-.07-1.472l-.07-1.419-1.086-.193c-9.408-1.629-16.171,1.086-18.729,7.551-1.717,4.292-1.384,9.723.806,13.14a12.9,12.9,0,0,0,4.362,3.872C38.666,78.383,41.819,78.716,47.128,78.032Zm46.164-.088,1.086-.193.123-.964a3.906,3.906,0,0,0,.053-1.034,3.87,3.87,0,0,0-1,.193c-4.818,1.3-8.742.035-10.267-3.294a6.245,6.245,0,0,1-.561-3.013A7.462,7.462,0,0,1,87.2,62a13,13,0,0,1,7.446.105c.263.105.28,0,.193-.911a2.347,2.347,0,0,0-.28-1.121,22.019,22.019,0,0,0-5.326-.42c-5.781.578-9.04,4.1-9.04,9.723-.018,4.8,2.733,8.006,7.481,8.777A26.123,26.123,0,0,0,93.292,77.945ZM56.133,76.7c.053-.7.175-4.24.28-7.849s.245-7.1.3-7.744l.105-1.191H54.188L54.066,64c-.158,5.606-.438,11.931-.561,13.052l-.105.911h2.628Zm6.412.876c0-.526.526-13.6.578-14.314.035-.561.473.07,5.116,7.043l5.081,7.656h3.031l.105-.543A21.935,21.935,0,0,0,76.561,75c0-2.015.456-11.983.631-13.893l.105-1.191H74.861l-.228,6.973c-.123,3.819-.263,7.253-.333,7.639l-.105.683-4.38-6.622c-2.418-3.644-4.66-7.1-4.993-7.656l-.613-1.016H61.021L60.9,63.561c-.123,3.592-.333,8.374-.561,12.351l-.123,2.05h1.174C62.458,77.962,62.545,77.927,62.545,77.577Zm37.913-4.117c.14-5.414.42-12.386.543-13.052l.088-.491h-2.8V62.86c0,2.716-.175,7.5-.456,12.877l-.123,2.225h2.628Zm6.412,3.154c0-2.243.368-11.983.491-12.912l.123-.841,4.853,7.236c2.663,3.994,4.905,7.393,4.958,7.568.105.245.368.3,1.734.3h1.612l.315-7.218c.158-3.977.35-8.042.4-9.023l.105-1.8H120.29c-.806,0-1.156.07-1.156.228,0,.105-.123,3.136-.263,6.693-.14,3.574-.263,6.955-.263,7.533v1.051l-3.854-5.781c-2.137-3.171-4.432-6.675-5.116-7.744l-1.226-1.98h-3.294v2.418c0,2.645-.456,13.262-.631,14.717l-.105.911h2.488Zm20.393,1.069a11.665,11.665,0,0,0,.105-1.875c0-2.856.385-12.649.508-12.789.105-.105,9.233,13.438,9.811,14.559.193.35.315.385,1.857.385h1.664V76.088c0-1.962.42-11.738.631-14.541l.123-1.629h-2.313l-.088.578c-.053.3-.175,3.749-.3,7.656-.105,3.907-.228,7.113-.245,7.148-.035.053-8.585-12.842-9.653-14.541l-.508-.841h-3.241v1.717c0,2-.473,12.894-.631,14.927l-.123,1.4H126C126.895,77.962,127.175,77.892,127.263,77.682Zm19.1-1c.315-.7,1.1-2.383,1.769-3.767l1.191-2.488h7.271l.876,2.523c.491,1.4,1.069,3.1,1.279,3.767l.368,1.244h2.716l-2.05-5.554c-1.121-3.066-2.575-7.13-3.259-9.023l-1.209-3.469-1.577.018h-1.577l-.911,1.875c-1,2.067-4.941,9.776-6.99,13.665l-1.314,2.488h2.838Zm24.177-2.172c.07-1.91.193-5.046.28-6.973.105-1.927.175-4.047.175-4.713V61.634l2.856.053,2.838.07.053-.911.053-.929H163.143l-.105.4a4.68,4.68,0,0,0-.105.929v.543l2.8-.088,2.8-.088v1.559c0,2.032-.491,12.877-.631,13.963l-.105.823h2.628Zm10.512.175c.315-9.268.473-13.35.561-14.016l.105-.753h-2.628l-.105,2.681c-.053,1.454-.175,4.87-.28,7.568s-.228,5.554-.3,6.36l-.105,1.437h2.645Zm28.434-25.228a.21.21,0,0,0-.245,0c-.053.07,0,.123.123.123S209.535,49.528,209.482,49.458ZM4.432,48.6a225.767,225.767,0,0,1,22.635-4.87c10.091-1.682,19.517-2.786,31.693-3.714l1.559-.123-.105,2.628-.105,2.628,1.1.193a12.457,12.457,0,0,0,1.314.21c.14,0,.193-5.781.193-22.285V1l-.35.315a1.6,1.6,0,0,1-.718.35,3.132,3.132,0,0,0-1.174.876c-.456.456-.736.788-.613.718a1.052,1.052,0,0,1,.736.14l.508.263L61.231,9.5c.105,4.643.088,6.079-.105,7.06l-.245,1.209-3.329,2.26a256.211,256.211,0,0,1-28.715,16.5C19.9,41.1,3.819,48.67,4.117,48.179c.053-.105-.018-.123-.158-.07-.158.053-.228.193-.158.3.053.088.018.123-.07.07-.105-.07-.613.123-1.121.42-.526.3-.788.491-.6.42S3.294,48.932,4.432,48.6Zm204.349.683a.21.21,0,0,0-.245,0c-.053.07,0,.123.123.123S208.834,49.353,208.782,49.283Zm-.7-.158a.355.355,0,0,0-.333-.018c-.14.053-.088.105.105.105C208.046,49.23,208.151,49.178,208.081,49.125Zm-5.9-1.454c-27.944-7.113-53.225-14.489-69.728-20.34-15.295-5.431-30.607-13.1-41.171-20.638-1.4-1-3.083-2.26-3.767-2.8-1.664-1.349-1.069-.6,1.226,1.542a105.4,105.4,0,0,0,21.076,14.927c1.892,1.051,3.294,1.875,3.1,1.8-1.437-.491-7.411-2.838-10.109-3.959-5.081-2.12-8.059-3.486-13.175-5.992L84.918,9.9l.088-3.206c.07-2.908.123-3.241.456-3.7l.368-.491-.981-.21c-.823-.158-1.034-.14-1.472.105l-.508.3-.035,3.013L82.78,8.725l-1.314-.736c-1.069-.6-1.331-.823-1.367-1.209-.053-.491-.123-.526-1.524-.736a26.978,26.978,0,0,1-5.063-2.768c-.245-.175.438-.123,2.8.245,1.717.28,3.276.508,3.451.508.245,0,.3-.158.3-.858,0-.806-.035-.876-.473-.964-.6-.123-7.884-1.156-8.112-1.156-.105,0-.175.158-.175.35s-.053.35-.105.35A7.6,7.6,0,0,1,69.973.946,7.118,7.118,0,0,0,68.852.228c0,.018.561.508,1.226,1.069A4.459,4.459,0,0,1,71.3,2.558a.283.283,0,0,0,.315.245,11.626,11.626,0,0,1,2.225,1.419c1.454,1.069,1.787,1.4,1.4,1.314-.28-.053-1.069-.175-1.752-.28-.666-.105-1.437-.228-1.717-.28L71.3,4.87V8.795c.018,3.767.018,3.889.315,3.416,1.121-1.822,6.184-2.067,7.849-.4l.578.578.053-1.892L80.152,8.6l1.331.823,1.331.823.123,3.136c.053,1.734.105,7.551.105,12.947v9.793l-.385-.105a8.442,8.442,0,0,0-1.4-.105H80.24V26.56c0-9.671-.018-9.986-.736-11.02-.648-.929-1.594-1.261-3.556-1.261a4.391,4.391,0,0,0-2.628.456,4.038,4.038,0,0,0-1.4,1.191l-.526.753L71.34,28.066l-.053,11.388.929-.105c.508-.053,3.171-.123,5.922-.14l4.993-.053.053,2.645.053,2.645.718.28a2.884,2.884,0,0,0,1.945.088l1.226-.193L87,41.837l-.123-2.768h1.542c2.751,0,15.96.333,20.638.526,9.741.4,20.428,1,30.747,1.752,15.417,1.121,36.966,3.206,50.93,4.906,3.119.385,4.327.438,1.98.088-14.226-2.12-39.542-5.2-56.063-6.833-18.729-1.84-31.132-2.716-46.97-3.346l-2.926-.123-.105-1.594c-.07-.876-.228-3.994-.368-6.938-.508-10.494-.456-9.793-.946-10.95a5.225,5.225,0,0,1-.4-3l.053-1.962,2.926,1.664a177.72,177.72,0,0,0,19.9,9.426c7.341,2.891,17.292,6.009,31.763,9.969,14.033,3.837,40.943,10.512,54.591,13.543,1.629.368,2.12.526,1.84.613s-.21.105.21.053a45.706,45.706,0,0,1,5.606,1.051c2.751.613,5.151,1.1,5.343,1.1S205.12,48.407,202.177,47.671Zm-192.1-2.733c14.454-7.971,26.3-15.54,32.849-21.006A69.433,69.433,0,0,0,56.5,9.023c1.4-2.1,3.854-6.412,2.943-5.168-.175.228-.911,1.261-1.647,2.278-4.485,6.184-11.791,13.49-19.6,19.64A278.779,278.779,0,0,1,8.164,45.691C2.33,49.073,3.171,48.74,10.074,44.938Zm184.972,1.717a1.324,1.324,0,0,0-.526,0c-.175.053-.07.088.21.088C195.029,46.742,195.151,46.707,195.046,46.655ZM79.592,45.1l.648-.105v-3.5l-3.1.105c-1.717.07-3.767.158-4.555.21l-1.454.105v3.5l3.907-.105C77.174,45.236,79.224,45.148,79.592,45.1Zm12.054-.718a2.091,2.091,0,0,0,.368-3.241,2.065,2.065,0,0,0-3.539,1.437A2.1,2.1,0,0,0,91.645,44.377Z"/><path class="e" d="M2910.175,4748c.088-.228.438-1,.806-1.7l.648-1.3.49,1.577c.281.875.508,1.629.508,1.717a3.606,3.606,0,0,1-1.314.123H2910Z" transform="translate(-2859.018 -4661.869)"/><path class="e" d="M4570,4753.171a29.717,29.717,0,0,1,1.472-3.171,8.773,8.773,0,0,1,.525,1.454c.263.789.526,1.542.561,1.665.07.158-.228.21-1.226.21A2.946,2.946,0,0,1,4570,4753.171Z" transform="translate(-4489.935 -4666.782)"/><path class="e" d="M8370.969,4749.188a9.679,9.679,0,0,1,.753-1.7l.753-1.489.491,1.489c.263.806.525,1.577.578,1.7.053.158-.263.21-1.262.21C8371.336,4749.4,8370.951,4749.329,8370.969,4749.188Z" transform="translate(-8224.312 -4662.852)"/><path class="f" d="M8571.7,3541.141a21.5,21.5,0,0,1,1.822-3.276c.123.14,2.261,6.307,2.261,6.535a12.974,12.974,0,0,1-2.892.158H8570Z" transform="translate(-8419.856 -3475.881)"/><path class="f" d="M401.862,2690.79a.211.211,0,0,1,.245,0c.053.07,0,.123-.123.123S401.809,2690.86,401.862,2690.79Z" transform="translate(-394.802 -2643.609)"/><path class="e" d="M429.239,1151.952c.053-.07,2.278-1.051,4.941-2.225,22.057-9.583,37.229-17.4,46.392-23.844.911-.631,1.769-1.226,1.892-1.3.193-.123.21.175.14,1.489-.053.911-.193,4.73-.3,8.48-.105,3.767-.263,6.868-.35,6.92a25.2,25.2,0,0,1-2.821.333,226.552,226.552,0,0,0-40.8,7.376c-2.12.613-7.831,2.365-8.865,2.751C429.291,1151.987,429.186,1152,429.239,1151.952Z" transform="translate(-421.705 -1104.859)"/><path class="e" d="M4100,845.159v-9.6c0-8.795.035-9.5.333-10.179,1-2.26,4.643-2.4,5.624-.21.333.7.351,1.244.351,10.337,0,9.005-.018,9.583-.3,9.583-.175,0-1.594.053-3.153.123A12.944,12.944,0,0,1,4100,845.159Z" transform="translate(-4028.169 -809.173)"/><path class="f" d="M5070.946,2336.82a2.161,2.161,0,0,1-.946-1.629,1.973,1.973,0,0,1,.508-1.016,1.589,1.589,0,0,1,2.417-.088A1.716,1.716,0,0,1,5070.946,2336.82Zm.28-.859c0-.683.21-.666.771.035.491.631.841.561.421-.07-.246-.35-.246-.438,0-.788.35-.561.018-.928-.858-.928h-.684v1.139c0,.648.07,1.139.175,1.139S5071.227,2336.259,5071.227,2335.961Z" transform="translate(-4981.175 -2292.688)"/><path class="f" d="M5140,2390.263c0-.157.158-.263.438-.263s.438.105.438.263-.157.263-.438.263S5140,2390.42,5140,2390.263Z" transform="translate(-5049.949 -2348.128)"/><path class="e" d="M5953.34,4740.336c-2.312-.735-2.856-4.538-.911-6.307a3.2,3.2,0,0,1,5.361,1.332,6.582,6.582,0,0,1,.263,1.349,6.1,6.1,0,0,1-.911,2.715A3.572,3.572,0,0,1,5953.34,4740.336Z" transform="translate(-5846.979 -4650.163)"/><path class="e" d="M7318.348,4741.1a3.07,3.07,0,0,1-1.892-1.419,3.306,3.306,0,0,1-.456-2.05,3.573,3.573,0,0,1,2.575-3.784,4,4,0,0,1,2.856.473c1.506,1,1.682,4.556.3,5.887A3.684,3.684,0,0,1,7318.348,4741.1Z" transform="translate(-7187.827 -4650.826)"/><path class="e" d="M9331.928,4739.444a3.177,3.177,0,0,1-1.928-3.188,3.808,3.808,0,0,1,1.017-3.013,3.4,3.4,0,0,1,4.274-.491c1.963,1.314,1.787,5.414-.28,6.482A4.055,4.055,0,0,1,9331.928,4739.444Z" transform="translate(-9166.542 -4649.305)"/></g></g></svg>