<svg xmlns="http://www.w3.org/2000/svg" width="240" height="100" viewBox="0 0 240 100"><defs><style>.a{fill:rgba(255,255,255,0);}.b{fill:#e51636;}.c{fill:#472380;}</style></defs><g transform="translate(21 26)"><rect class="a" width="240" height="100" transform="translate(-21 -26)"/><path class="b" d="M21.929,32.156a5.691,5.691,0,0,1-3.044,1.2,5.005,5.005,0,0,1-4.512-1.679c-.908-1.088-1.374-2.5-2.26-3.624a6.3,6.3,0,0,0-5.942-2.539,6.339,6.339,0,0,0-4.048,9.825c3.682,5.267,11.962,4.355,16.211.706a20.524,20.524,0,0,0,3.595-3.893m154.386,0a5.68,5.68,0,0,0,3.045,1.205,5,5,0,0,0,4.511-1.678c.908-1.09,1.376-2.5,2.26-3.625a6.182,6.182,0,1,1,9.988,7.286c-3.68,5.266-11.96,4.355-16.207.707a20.546,20.546,0,0,1-3.6-3.9"/><path class="c" d="M161.143,4.064c-.115,0-10.99,0-11.09,0a2.441,2.441,0,0,0-2.234,2.275A2.446,2.446,0,0,0,150.053,8.8c.115,0,10.99,0,11.09,0a2.44,2.44,0,0,0,2.234-2.275,2.446,2.446,0,0,0-2.234-2.462M91.883,27.7a11.207,11.207,0,0,1-.276-1.873c-.007-.9-.007-2.167-.007-3.332.113-4.024.864-11.1-4.593-11.1-3.685,0-5.869,3.1-6.488,4.115-.088-2.827-2.318-4.878-5.725-4.878a4.657,4.657,0,0,0-3.465,1.73,3.6,3.6,0,0,1,2.12,3.584c.023,2.04,0,11.973,0,12.015a3.542,3.542,0,0,0,7.079,0v-8.81c.306-1.44,1.117-2.91,2.338-2.91,1.585,0,1.674,1.763,1.681,1.763l-.007,8.527a5.137,5.137,0,0,0,.091.805,4.4,4.4,0,0,0,.406,1.238A5.521,5.521,0,0,0,90.265,31.4a4.66,4.66,0,0,0,3.464-1.729A3.383,3.383,0,0,1,91.883,27.7m52.457,0a10.786,10.786,0,0,1-.276-1.873l.006-21.106a3.717,3.717,0,1,0-7.434,0l.005,18.692c.019,1.684-.147,3.4.648,4.951a5.985,5.985,0,0,0,5.429,3.043,4.652,4.652,0,0,0,3.467-1.729A3.389,3.389,0,0,1,144.34,27.7M61.283,11.206a10.1,10.1,0,1,0,10.1,10.1,10.1,10.1,0,0,0-10.1-10.1m.074,15.909v0c-.008,0-.015,0-.022,0s-.015,0-.02,0v0c-1.908-.035-2.864-2.226-2.864-5.81s1.211-5.771,2.863-5.81h.043c1.65.04,2.862,2.233,2.862,5.81s-.954,5.775-2.862,5.81"/><path class="c" d="M114.6,27.7a10.72,10.72,0,0,1-.277-1.873l.005-21.106a3.717,3.717,0,1,0-7.434,0l-.015,10a7.47,7.47,0,0,0-5.965-3.348c-8.537,0-9.076,15.2-3.222,18.96a8.162,8.162,0,0,0,6.022.842c1.3-.339,3.35-1.616,3.68-3.142.047.112.1.224.154.334a5.987,5.987,0,0,0,5.43,3.043,4.654,4.654,0,0,0,3.467-1.729A3.389,3.389,0,0,1,114.6,27.7m-11.078-1.228v0h-.043v0c-1.907-.028-2.861-1.94-2.861-5.06s1.21-5.028,2.861-5.063v0c.01,0,.014,0,.023,0s.013,0,.02,0v0c1.654.035,2.864,1.945,2.864,5.062s-.956,5.033-2.864,5.06m30.416-1.313s-1.09,1.494-5.319,1.494-5.136-3.288-5.136-3.288c6.163,0,11.332-.412,11.332-5.4s-5.64-6.635-8.983-6.635c-5.521,0-9.555,4.4-9.555,10.215a9.619,9.619,0,0,0,9.613,9.865c7.68,0,8.048-6.249,8.048-6.249Zm-10.855-5c.217-1.593.6-3.6,2.03-4.53a1.9,1.9,0,0,1,2.882,1.595,2.86,2.86,0,0,1-2.4,2.94,11.207,11.207,0,0,1-2.509,0m40.591,4.995s-1.09,1.494-5.319,1.494-5.136-3.288-5.136-3.288c6.162,0,11.332-.412,11.332-5.4s-5.64-6.635-8.983-6.635c-5.522,0-9.556,4.4-9.556,10.215a9.619,9.619,0,0,0,9.614,9.865c7.68,0,8.048-6.249,8.048-6.249Zm-10.855-4.995c.216-1.593.6-3.6,2.03-4.53a1.9,1.9,0,0,1,2.882,1.595,2.861,2.861,0,0,1-2.4,2.94,11.2,11.2,0,0,1-2.508,0m24.8,5.535h-4.235a43.664,43.664,0,0,0,4.483-3.522c2.72-2.309,7.613-5.64,6.187-9.955l0,.03a3.19,3.19,0,0,0-1.053-1.62,2.229,2.229,0,0,1-1.3,1.214,7.025,7.025,0,0,1-1.232.2c-.338.006-11.837,0-11.837,0a2.861,2.861,0,0,0-2.88,2.724,2.729,2.729,0,0,0,2.788,2.7l6.708.042c-3.11,1.735-6.823,3.788-8.708,6.924-1.077,1.8-2.23,4.575-1.792,6.7a11.413,11.413,0,0,1,8.38-1.979,10.6,10.6,0,0,1,3.263,1.405c5.584,3.493,8.94-3.339,6.27-6.35,0,0-1.522,1.481-5.044,1.481M51.73,29.943c-3.425-3.755-4.5-10-4.707-14.152-.182-3.586.012-9.8,2.838-11.6a5.623,5.623,0,0,0-4.23-1.668c-3.187,0-4.723,2.122-5.812,3.648-.36.5-5.718,7.9-5.718,7.9s-4.507-6.972-5.06-7.81c-.766-1.156-2.2-3.28-4.719-3.647-1.085-.158-3.9-.3-5.43,1.8,2.64,2.112,2.574,7.492,2,11.165-1.72,11.024-6.41,12.04-6.41,12.04,2.4,6.489,8.59,3.925,10.34-1.25a43.985,43.985,0,0,0,2.032-11.15l6.79,10.418s7.69-10.385,7.69-10.376c-1.266,18.366,5.041,23.572,10.557,23.572a8.107,8.107,0,0,0,7.4-5.048,11.2,11.2,0,0,1-7.559-3.833m17.226,5.974a4.666,4.666,0,0,1,.118.8c0,.082,0,9.609,0,9.723a1.591,1.591,0,0,0,3.177,0c0-.11,0-8.69,0-8.69a4.567,4.567,0,0,0-.277-2.118,2.562,2.562,0,0,0-2.323-1.3,1.994,1.994,0,0,0-1.485.74,1.452,1.452,0,0,1,.79.847M169.675,46.354a4.653,4.653,0,0,1-.119-.8c0-.08.005-9.608,0-9.72a1.592,1.592,0,0,0-3.178,0c0,.108,0,8.687,0,8.687a4.6,4.6,0,0,0,.277,2.12,2.564,2.564,0,0,0,2.324,1.3,1.99,1.99,0,0,0,1.484-.74,1.456,1.456,0,0,1-.79-.847m-57.485-7.091a3.61,3.61,0,0,0-2.907,1.843l-.01.007c0-.46,0-.823,0-.841a1.6,1.6,0,0,0-3.176,0c0,.109,0,6.082,0,6.163a1.591,1.591,0,0,0,3.176,0c0-.062,0-2.011,0-3.69l.013-.01c.137-.644.5-1.3,1.048-1.3.71,0,.75.79.753.79l-.007,4.213a1.591,1.591,0,0,0,3.176,0l0-2.2c0-2.264.236-4.981-2.063-4.97m40.607,0a3.612,3.612,0,0,0-2.907,1.843l-.01.007v-.841a1.6,1.6,0,0,0-3.177,0c0,.109,0,6.082,0,6.163a1.591,1.591,0,0,0,3.176,0c0-.062,0-2.011,0-3.69l.013-.01c.136-.644.5-1.3,1.048-1.3.71,0,.749.79.752.79l-.007,4.213a1.591,1.591,0,0,0,3.176,0l0-2.2c0-2.264.237-4.981-2.062-4.97m-72.86,0a3.612,3.612,0,0,0-2.907,1.843l-.009.007c0-.46,0-.823,0-.841a1.6,1.6,0,0,0-3.176,0c0,.109,0,6.082,0,6.163a1.591,1.591,0,0,0,3.176,0c0-.062,0-2.011,0-3.69l.013-.01c.137-.644.5-1.3,1.048-1.3.71,0,.75.79.753.79l-.007,4.213a1.591,1.591,0,0,0,3.176,0l0-2.2c0-2.264.237-4.981-2.062-4.97m61.345-.4a4.524,4.524,0,1,0,4.523,4.524,4.524,4.524,0,0,0-4.523-4.524m.033,7.126v0h-.018v0c-.856-.016-1.283-1-1.283-2.6s.542-2.585,1.283-2.6h.018c.74.017,1.282,1,1.282,2.6s-.427,2.586-1.282,2.6m-16.929-5.827a1.673,1.673,0,0,0-3.34,0c0,.06-.009.19-.009.214a3.351,3.351,0,0,0-2.674-1.5c-3.824,0-4.066,6.81-1.444,8.495a3.667,3.667,0,0,0,2.7.377,2.773,2.773,0,0,0,1.5-1.05,1.751,1.751,0,0,0,1.539,1.212,1.719,1.719,0,0,0,1.729-1.57c0-.113,0-6.1,0-6.178m-4.854,5.48v0h-.019c-.855-.014-1.282-.871-1.282-2.269s.542-2.251,1.282-2.268h.02c.74.017,1.283.872,1.283,2.268s-.43,2.255-1.284,2.269m45.427-5.481a1.673,1.673,0,0,0-3.34,0c0,.06-.009.19-.009.214a3.347,3.347,0,0,0-2.673-1.5c-3.824,0-4.067,6.81-1.444,8.495a3.665,3.665,0,0,0,2.7.377,2.775,2.775,0,0,0,1.5-1.05,1.751,1.751,0,0,0,1.538,1.212,1.719,1.719,0,0,0,1.73-1.57c0-.113,0-6.1,0-6.178m-4.853,5.48v0h-.02c-.854-.014-1.282-.871-1.282-2.269s.542-2.251,1.282-2.268h.02c.74.017,1.283.872,1.283,2.268s-.43,2.255-1.283,2.269m-24.346-4.629a1.558,1.558,0,0,0-1.44-1.474,1.3,1.3,0,0,0-.135-.015,1.619,1.619,0,0,0-1.6,1.385l0,2.93h0c.01.914,0,2.564,0,2.583a1.558,1.558,0,0,0,1.438,1.474,1.082,1.082,0,0,0,.136.014,1.619,1.619,0,0,0,1.6-1.384l0-2.448h0c-.011-.915,0-3.047,0-3.065m-.012-3.962a1.574,1.574,0,1,1-1.574-1.575,1.574,1.574,0,0,1,1.574,1.575m-32.181,2.1c-.943.04-1.41.742-2.052,1.624,0,.007,0-.407,0-.423a1.59,1.59,0,0,0-3.175,0v6.1h0a1.59,1.59,0,0,0,3.174.023h.007V42.613c.048-.567.295-1.274.75-1.27.645.005-.02,1.564,1.458,1.564,2.12,0,2.347-3.857-.158-3.754m-6.478,5.956s-.49.67-2.386.67A2.246,2.246,0,0,1,92.4,44.3c2.765,0,5.084-.186,5.084-2.424S94.95,38.9,93.45,38.9a4.508,4.508,0,0,0,.027,9.007C96.922,47.911,97.087,45.109,97.087,45.109Zm-4.87-2.242a2.776,2.776,0,0,1,.912-2.032.852.852,0,0,1,1.292.715,1.284,1.284,0,0,1-1.078,1.32,4.963,4.963,0,0,1-1.126,0M88.972,46.24A2.714,2.714,0,0,1,83.751,45.2l-.015-4.259H83.31a.624.624,0,0,1-.618-.713.647.647,0,0,1,.664-.7h.377c0-.675,0-1.14,0-1.169a1.6,1.6,0,0,1,3.188,0v1.168h1.345a.713.713,0,0,1-.047,1.418h-1.3v3.549a1.848,1.848,0,0,0,2.057,1.752m42.5,0a2.713,2.713,0,0,1-5.22-1.044c0-.015-.01-2.327-.016-4.259h-.426a.624.624,0,0,1-.617-.713.647.647,0,0,1,.663-.7h.377c0-.675,0-1.14,0-1.169a1.6,1.6,0,0,1,3.187,0v1.168h1.345a.713.713,0,0,1-.047,1.418h-1.3v3.549a1.848,1.848,0,0,0,2.057,1.752"/></g></svg>