<svg xmlns="http://www.w3.org/2000/svg" width="240" height="100" viewBox="0 0 240 100"><defs><style>.a{fill:rgba(255,255,255,0);}.b{fill:#175fab;}</style></defs><g transform="translate(-399 -5198)"><rect class="a" width="240" height="100" transform="translate(399 5198)"/><path class="b" d="M14454.334,18870.51c-.138-.008-.428-.025-.642-.043-3.683-.264-6.289-1.82-7.647-4.58a7.134,7.134,0,0,1-.786-3.314c-.137-3.641,1.367-6.385,4.751-8.656a25.207,25.207,0,0,1,5.717-2.625l1.3-.461v-1.111a19.449,19.449,0,0,1,.948-5.98,9.318,9.318,0,0,1,4.819-5.615,8.567,8.567,0,0,1,4.606-.99,5.574,5.574,0,0,1,2.06.307,7.368,7.368,0,0,1,1.2.5,4.98,4.98,0,0,1,2.777,4.4c-.009,2.5-1.846,4.922-5.315,7.008-.675.4-2.837,1.494-4.29,2.162l-.666.307.06.41a18.529,18.529,0,0,0,2.06,5.777,20.352,20.352,0,0,0,1.743,2.7,5.089,5.089,0,0,0,.88-1.539,6.879,6.879,0,0,0,.453-2.5,2.284,2.284,0,0,0-.735-1.436l-.3-.248h5.427v.334a13.922,13.922,0,0,1-.615,2.947,12.475,12.475,0,0,1-2.538,4.291l-.709.82.5.512a30.791,30.791,0,0,0,8.836,5.631l.812.326h-5.221l-5.222.008-.5-.324a27.126,27.126,0,0,1-2.726-2.248l-.607-.58-.734.494a21.89,21.89,0,0,1-6.905,3.033,20.908,20.908,0,0,1-2.68.295C14454.394,18870.514,14454.36,18870.512,14454.334,18870.51Zm2.974-16.158a14.767,14.767,0,0,0-2.461,1.547,8.022,8.022,0,0,0-3.085,4.289,6.565,6.565,0,0,0,.162,3.1,4.249,4.249,0,0,0,2.581,2.547,7.238,7.238,0,0,0,3.546.2,15.181,15.181,0,0,0,3.461-1.18l.991-.471-.547-.795a31.937,31.937,0,0,1-4.162-8.783c-.1-.416-.123-.551-.226-.551A.815.815,0,0,0,14457.308,18854.352Zm9.716-14.912c-2,.137-3.837,2.752-4.315,6.135a9.179,9.179,0,0,0,.009,3.248c.017,0,.239-.137.5-.3a16.035,16.035,0,0,0,4.948-5.443c.911-2.064.464-3.645-1.006-3.645C14467.118,18839.436,14467.071,18839.436,14467.023,18839.439Zm22.688,31.037a21.676,21.676,0,0,1-7.118-1.539,11.013,11.013,0,0,1-4.033-2.588,14.253,14.253,0,0,1-3.734-8.213,35.771,35.771,0,0,1,.009-6.836,30.732,30.732,0,0,1,2.718-9.23,23.164,23.164,0,0,1,5.016-7.092,26.829,26.829,0,0,1,19.834-7.98,34.918,34.918,0,0,1,8.571,1.008c.982.23,2.965.795,3.024.854s-1.709,5.607-1.794,5.607a2.469,2.469,0,0,1-.513-.377c-.248-.205-.889-.676-1.428-1.033-3.7-2.479-7.554-3.129-10.98-1.863-4.1,1.512-7.751,5.408-10.562,11.262a35.8,35.8,0,0,0-2.35,6.281c-2.436,8.375-2.273,14.109.479,16.75a5.811,5.811,0,0,0,3.247,1.547,14.887,14.887,0,0,0,3.094-.061c.265-.061.111.393,2.205-6.314,1.35-4.316,1.939-6.2,2.452-7.777a5.191,5.191,0,0,0,.41-2.094,2.118,2.118,0,0,0-.2-1.18,3.542,3.542,0,0,0-1.359-1.314l-.5-.283,4.161-.025c2.3-.008,6.042-.008,8.332,0l4.153.025-.847.42a4.635,4.635,0,0,0-1.486,1.068c-.829.828-1.034,1.238-1.8,3.682-.325,1.061-.795,2.539-1.034,3.291s-.521,1.658-.624,2.008-.556,1.76-.982,3.119c-.932,2.947-1.59,5.051-1.667,5.332-.145.5-4.247,2.076-7.221,2.777a32.418,32.418,0,0,1-6.66.791C14490.238,18870.5,14489.965,18870.49,14489.711,18870.477Zm-68.072-.633H14414l.471-.266a7.619,7.619,0,0,0,2.11-2.17c.222-.428.769-2.086,1.752-5.256.094-.307.385-1.23.641-2.051s.547-1.742.641-2.051.385-1.23.642-2.051.547-1.742.641-2.051.393-1.264.666-2.137.854-2.717,1.282-4.1,1.009-3.23,1.282-4.1.675-2.137.889-2.82.6-1.932.862-2.777.564-1.785.658-2.094.385-1.23.642-2.051.606-1.939.777-2.479a5.1,5.1,0,0,0,.316-1.709,1.94,1.94,0,0,0-.752-1.768l-.437-.453H14437c6.289,0,10.245.033,10.8.086,7.033.717,10.674,4.854,9.605,10.912a18.76,18.76,0,0,1-3.743,8.357c-4.093,5.076-11.741,7.742-20.629,7.186l-1.136-.068-.077.205c-.052.1-.573,1.752-1.162,3.658s-1.171,3.752-1.282,4.1-.513,1.623-.889,2.82-.709,2.316-.734,2.486a2.592,2.592,0,0,0,1.1,2.367l.41.273Zm18.894-39.035-1.4.025-.486,1.539c-.273.846-.667,2.094-.881,2.777s-.734,2.357-1.162,3.717-.957,3.033-1.171,3.717-.606,1.949-.88,2.82-.675,2.162-.9,2.863-.47,1.5-.563,1.785a1.536,1.536,0,0,0-.128.539,4.112,4.112,0,0,0,.623.109,10.9,10.9,0,0,0,3.385-.205,9.476,9.476,0,0,0,4.768-2.836,17.34,17.34,0,0,0,3.795-7.221c1.427-4.889.914-7.939-1.53-9.1a6.546,6.546,0,0,0-3.073-.533C14440.8,18830.8,14440.67,18830.807,14440.532,18830.809Z" transform="translate(-13945 -13604)"/></g></svg>