<svg xmlns="http://www.w3.org/2000/svg" width="731.935" height="397.262" viewBox="0 0 731.935 397.262"><defs><style>.a{fill:none;stroke:#1d3665;opacity:0.551;}</style></defs><path class="a" d="M366.768,370.516q-.088-14.388-.414-28.727c-.3-19.145-.719-38.3-1.393-57.451-.652,19.154-1.066,38.307-1.375,57.451-.234,9.561-.344,19.135-.414,28.727l-.246,25.461c-10.691-5.041-21.424-9.971-32.146-14.934l-10.07-4.672,30.143-102.223L314.77,373.641l-19.082-8.826-9.592-4.42,27.441-52.719,3.121-.736.365-.092.236-.279c2.709-3.266,5.5-6.459,8.273-9.674l.514-.6-.4-.705c-1.018-1.807-2.006-3.625-3-5.439l20.627-39.623L321.35,287.773c-.346-.66-.7-1.289-1.066-1.936l-1.4-2.654.879-.043-1.3-2.783c-1.17-2.473-2.244-5-3.324-7.506l39.58-44.684,10.246,7.846,10.256-7.846,39.6,44.684c-1.086,2.508-2.152,5.033-3.316,7.506l-1.3,2.783.869.043-1.395,2.654c-.422.779-.85,1.547-1.3,2.314l-21.689-37.625,20.832,39.2c-1.059,1.947-2.137,3.912-3.2,5.861l-.414.705.533.6c2.77,3.215,5.563,6.408,8.262,9.674l.217.279.375.092,3.854.9,27.7,52.08-10.586,4.891L414.191,374.1l-35.1-99.947L410.24,375.924l-11.078,5.119c-10.711,4.963-21.463,9.893-32.156,14.934Zm53.4-61.953,4.816,1.139,2.543.619-1.176-2.365c-2.568-5.238-4.982-10.553-7.461-15.822,1.465-1.654,2.914-3.312,4.367-4.967.918,1.7,1.848,3.391,2.777,5.1,1.682,3.094,3.408,6.166,5.02,9.289l1.283,2.516.953-2.654,4.238-11.826,34.129,57.957-22.916,10.57ZM259.225,347.977l33.213-58.355,4.24,11.807.938,2.645,1.283-2.508c1.621-3.131,3.354-6.2,5.033-9.3.926-1.7,1.838-3.4,2.754-5.094,1.471,1.668,2.906,3.3,4.381,4.959-2.5,5.283-4.891,10.592-7.463,15.822l-1.164,2.375,2.527-.629,4.061-.949-28.8,48.928Zm184.139-49.832.961-2.625,5.373-15.094.092-.268c1.035,1.9,2.063,3.783,3.111,5.658,1.668,3.094,3.4,6.17,5.012,9.3l1.293,2.516.939-2.666,5.168-14.439L501.6,333.705l-26.148,12.1ZM228.355,333.705l36.283-53.176,5.168,14.439.951,2.666,1.275-2.516c1.621-3.145,3.348-6.209,5.027-9.3,1.029-1.875,2.045-3.762,3.094-5.666l.109.275,5.375,15.082.871,2.438-32.957,47.416Zm185.8-28.934c-2.529-2.875-5.018-5.809-7.488-8.742q2.578-4.447,5.254-8.873l2.295-3.783c2.234.129,4.455.311,6.7.486-1.719,2.318-3.459,4.654-5.178,6.969l-.66.869.461.906c2.453,4.7,4.973,9.393,7.412,14.133ZM314.416,292.6l.455-.906-.645-.869c-1.748-2.314-3.459-4.641-5.187-6.969,2.232-.176,4.438-.357,6.688-.486l2.314,3.783q2.654,4.415,5.258,8.873c-2.482,2.934-4.961,5.867-7.5,8.742L307,306.736C309.434,302,311.953,297.3,314.416,292.6Zm123.117-3.094.5-1.357c1.365,2.486,2.725,4.959,4.029,7.506l1.254,2.4Zm-8.936,1.408c-1.529-3.176-3.1-6.316-4.541-9.543l-.359-.768-1.014-.182c-2.086-.336-4.211-.686-6.326-1.055.609-1.918,1.225-3.854,1.818-5.77,3.961-.121,7.885-.25,11.848-.342,2.176,4.244,4.32,8.484,6.414,12.76l-4.457,11.865C430.834,295.58,429.729,293.244,428.6,290.918Zm-135.1-4.9c2.123-4.275,4.25-8.516,6.424-12.76,3.953.092,7.895.221,11.84.342.6,1.947,1.215,3.852,1.807,5.77-2.094.348-4.207.719-6.322,1.055l-.992.182-.365.768c-1.449,3.227-3.012,6.367-4.543,9.543-1.117,2.326-2.234,4.662-3.381,6.967Zm-5.6,9.639c1.3-2.547,2.678-5,4.035-7.506l.459,1.34-5.146,7.416ZM439.611,285.02c-1.535-3.176-3.074-6.33-4.559-9.545l-.316-.775-1.016-.18c-.141-.021-.27-.039-.4-.061-.486-1-.99-2-1.463-3l-.314-.676-.8-.031c-.82-.021-1.66-.043-2.492-.051.33-1.01.645-2.008.961-3,3.924-.111,7.885-.258,11.818-.332,2.2,4.232,4.328,8.477,6.443,12.738L443,292C441.863,289.668,440.736,287.346,439.611,285.02ZM282.479,280.1c2.109-4.262,4.24-8.506,6.43-12.738,3.941.074,7.9.221,11.828.332.314,1,.645,1.994.938,3-.818.008-1.65.039-2.477.051l-.789.031-.328.676c-.465,1-.977,1.986-1.455,3-.146.021-.242.039-.391.061l-1.014.18-.352.775c-1.441,3.215-3.025,6.383-4.525,9.545-1.127,2.336-2.254,4.648-3.408,6.984Zm172.99,4.373c-1.531-3.168-3.113-6.33-4.547-9.535l-.363-.768-1.01-.168c-.926-.16-1.865-.318-2.822-.482-.734-1.535-1.494-3.064-2.207-4.611l.516-1.723c3.971-.152,7.9-.281,11.836-.371q3.278,6.36,6.436,12.754l-4.469,11.889C457.7,289.131,456.586,286.807,455.469,284.473Zm-188.844-4.9q3.188-6.4,6.436-12.754c3.951.09,7.881.219,11.826.371.2.576.375,1.146.557,1.723-.742,1.547-1.494,3.076-2.244,4.623-.922.152-1.881.311-2.828.471l-.988.168-.355.768c-1.463,3.213-3.023,6.367-4.547,9.535-1.127,2.344-2.229,4.658-3.369,6.984Zm151.865-9.182-38.3-46.352,20.771-17.348,31.986,57.92c-1.648-.068-3.3-.119-4.941-.158l-1.045-.039-.5,1.094c-.75,1.689-1.477,3.387-2.2,5.064ZM303.467,265.5l-.488-1.094-1.027.039q-2.487.059-4.947.158l31.977-57.92,20.783,17.348-38.314,46.352-5.738.182C304.959,268.891,304.217,267.193,303.467,265.5Zm138.316-.654c-1.248-.021-2.51-.061-3.754-.1l-31.98-62.3,4.082-3.426,44.084,65.205c-3.459-.107-6.91-.229-10.377-.326l-1.027-.031-.453,1Zm-154.652-.979-1.035.031c-3.443.107-6.91.219-10.369.326l44.084-65.205,4.09,3.426-31.975,62.3c-1.268.043-2.521.082-3.758.1l-.57.018Zm36.752-69.27-9.506-39.443-.861-3.572L303.061,108.23l-.225-.939-.764-.561L262.031,77.469l-1.088-.8L239.521,61.01V61h-.031L223.262,49.135l-.549-.393h-.652L17.57,47.605c-2.062-2.232-4.111-4.469-6.127-6.773C7.473,36.26,3.578,31.566,0,26.729l165.535.236,42.738.07,21.344.021H234.1a19.871,19.871,0,0,1,1.953.869l2.324,1.2c3.076,1.633,6.186,3.369,9.268,5.135,24.439,14.1,48.639,28.908,72.762,43.666l44.559,57.73,44.6-57.73c24.117-14.758,48.291-29.562,72.748-43.666,3.084-1.766,6.188-3.5,9.268-5.135l2.316-1.2a20.684,20.684,0,0,1,1.938-.869h4.516l21.342-.021,42.7-.07,165.559-.236c-3.578,4.838-7.48,9.531-11.451,14.1-2,2.3-4.043,4.541-6.129,6.773L507.895,48.742h-.682l-.525.393L490.463,61h-.029v.008L469.01,76.672l-1.1.8L427.869,106.73l-.742.561-.227.939-10.453,43.355-.869,3.572L406.07,194.6l-41.109,33.627Zm95.1-29.512,8.965,26c-5.168.889-10.338,1.7-15.555,2.457Zm-117,26,8.982-26,6.563,28.457C312.35,192.787,307.172,191.979,301.982,191.09Zm119.643-37.365,4.773-20.713,39.311,50.482c-11.691,2.758-23.463,5.119-35.289,7.209Zm-157.371,29.77,39.3-50.482,4.781,20.713-8.8,36.979C287.693,188.613,275.924,186.252,264.254,183.494Zm164.3-58.385,3.09-14.793,3.609-2.4,79.676,61.721q-23.092,7.62-46.77,13.262ZM215.014,169.623,294.682,107.9l3.594,2.408,3.115,14.8-39.6,57.777Q238.136,177.224,215.014,169.623ZM440.5,103.736l11.84-7.545L563.2,151.139q-22.456,9.85-45.705,17.623Zm-273.762,47.4L277.617,96.191l11.834,7.545-77,65.025Q189.214,160.992,166.736,151.139ZM457.16,91.3l10.83-8.074,143.582,43.445c-7.832,4.512-15.771,8.834-23.84,12.889-7.2,3.641-14.443,7.1-21.8,10.389Zm-314.947,48.26c-8.064-4.055-16.01-8.377-23.838-12.875L261.949,83.227,272.783,91.3,164.021,149.941Q152.991,145.014,142.213,139.561ZM325.377,75.1c1.561-4.27,2.883-8.643,4.264-12.973l4.576-14.543,9.012-28.836L356.127.646,374.24.189C380.424.018,386.645.078,392.85,0c2.014,1.346,3.932,2.883,5.83,4.43q2.9,2.379,5.592,5.041a43.769,43.769,0,0,1,4.863,5.658,21.144,21.144,0,0,1,2.527,4.73,48.39,48.39,0,0,0-8.043-.705,22.945,22.945,0,0,0-10.088,1.965,10.8,10.8,0,0,0-4.311,3.762,11.367,11.367,0,0,0-1.758,5.52,35.165,35.165,0,0,0,1.344,10.258,139.254,139.254,0,0,0,6.58,18.666c2.293,5.391,4.764,10.691,7.422,15.969L364.15,129.979Zm149.016,3.375,15.18-10.941L666.559,89.664a458.4,458.4,0,0,1-52.4,35.5ZM63.4,89.664,240.391,67.537l15.176,10.941L115.787,125.168A457.063,457.063,0,0,1,63.4,89.664ZM496.578,61.91l12.016-8.975,201.721-3.072c-2.59,2.744-5.217,5.5-7.9,8.164A408.213,408.213,0,0,1,669.02,87.689ZM27.551,58.016c-2.686-2.672-5.334-5.408-7.914-8.152l201.7,3.055,12.035,8.992L60.936,87.689A405.135,405.135,0,0,1,27.551,58.016Z" transform="translate(0.993 0.502)"/></svg>