<svg xmlns="http://www.w3.org/2000/svg" width="240" height="100" viewBox="0 0 240 100"><defs><style>.a{fill:rgba(255,255,255,0);}.b{fill:#0a928a;}.c{fill:#0087bf;}.d{fill:#3e996c;}.e{fill:#72a435;}</style></defs><g transform="translate(-30 38.348)"><rect class="a" width="240" height="100" transform="translate(30 -38.348)"/><g transform="translate(45.923 -11)"><g transform="translate(9.397 15.056)"><path class="b" d="M275.443,828.027a6.81,6.81,0,0,1-4.087-3.557,5.122,5.122,0,0,1-.6-2.465,8.12,8.12,0,0,1,.893-4.451,10.479,10.479,0,0,1,7.33-5.642,7.157,7.157,0,0,1,6.486,1.721c.877.811,1.6,1.986,1.357,2.184-.066.066-.662.579-1.307,1.142a11.2,11.2,0,0,1-1.291,1.026c-.05,0-.1-.116-.1-.248a3.364,3.364,0,0,0-1.291-1.986c-3.111-2.068-8.422,1.158-8.769,5.311a3.3,3.3,0,0,0,1.87,3.557,5.933,5.933,0,0,0,5.113-.711c.331-.232,2.9-2.647,5.692-5.361,5.328-5.179,5.857-5.593,8.091-6.37a7.169,7.169,0,0,1,9.034,3.458,5.364,5.364,0,0,1,.579,2.68,5.926,5.926,0,0,1-.364,2.863,10.67,10.67,0,0,1-7.1,6.817,10.364,10.364,0,0,1-5.278-.232,7.007,7.007,0,0,1-3.276-3.011l-.529-1.009,1.456-1.473,1.473-1.489.116.943a3.415,3.415,0,0,0,1.787,2.78,3.014,3.014,0,0,0,2.118.414,4.973,4.973,0,0,0,2.4-.612c3.375-1.671,5-5.791,3.144-7.992-1.175-1.406-3.359-1.588-5.609-.48-.844.414-1.886,1.357-5.99,5.378-6.519,6.387-7.264,6.867-10.788,6.966A8.48,8.48,0,0,1,275.443,828.027Z" transform="translate(-270.739 -811.725)"/></g><g transform="translate(5 1.652)"><path class="c" d="M22.539,43.884a20.881,20.881,0,0,1-11.351-6.006A20.731,20.731,0,0,1,5.3,26.991a28.073,28.073,0,0,1,0-8.157A21.372,21.372,0,0,1,11.188,7.9a21.178,21.178,0,0,1,29.667-.347A21.1,21.1,0,0,1,47.193,19.4a26.084,26.084,0,0,1,0,7A21.376,21.376,0,0,1,29.687,43.9,27.187,27.187,0,0,1,22.539,43.884Zm6.37-2.283A18.883,18.883,0,0,0,32.235,5.017a20.311,20.311,0,0,0-9.5-.678A19.11,19.11,0,0,0,7.631,19.446a22.638,22.638,0,0,0,0,6.85,18.882,18.882,0,0,0,7.148,11.615A18.612,18.612,0,0,0,28.909,41.6Z" transform="translate(-5 -1.653)"/><path class="c" d="M1359.167,826.6c-.38-.414-.877-.993-1.125-1.274l-.43-.513,1.076-.529c3.342-1.655,4.947-5.791,3.111-7.975-1.142-1.34-3.26-1.572-5.411-.6a13.163,13.163,0,0,0-2.5,1.9l-1.6,1.489-1.142-1.191L1350,816.743l1.621-1.572a11.288,11.288,0,0,1,4.616-2.995,7.168,7.168,0,0,1,9.034,3.458,5.364,5.364,0,0,1,.579,2.68,6.021,6.021,0,0,1-.364,2.879,10.6,10.6,0,0,1-4.468,5.626,6.1,6.1,0,0,1-1.075.579A5.608,5.608,0,0,1,1359.167,826.6Z" transform="translate(-1327.745 -798.321)"/><path class="c" d="M1369.341,604.133l.778-3.442,1.7-.05c1.7-.05,1.7-.05,1.622.331-.05.215-.232,1.042-.38,1.837l-.314,1.473-1.075.711a13.388,13.388,0,0,0-1.986,1.638,6.269,6.269,0,0,1-1.009.927A34.544,34.544,0,0,1,1369.341,604.133Z" transform="translate(-1346.11 -590.709)"/><path class="c" d="M2794.709,745.754c-3.442-.96-3.855-3.9-1.324-9.315,1.489-3.177,3.855-4.55,8.19-4.8,3.789-.2,5.692.893,5.841,3.359l.066,1.059h-4.832v-.579c0-.844-.546-1.142-1.82-1.026-1.687.149-2.25.794-3.276,3.839-1.274,3.739-1.042,5.212.811,5.212a3.372,3.372,0,0,0,2.879-2.383l.3-.761h4.749l-.1.463a8.166,8.166,0,0,1-1.787,3.243c-1.324,1.274-3.673,1.936-6.933,1.9A14.632,14.632,0,0,1,2794.709,745.754Z" transform="translate(-2745.65 -719.54)"/><path class="c" d="M4832.6,971.907a2.829,2.829,0,0,1-2.6-2.912,13.045,13.045,0,0,1,1.241-4.567c1.258-2.134,4.054-3.21,7.2-2.747,2.118.3,3.161,1.042,3.492,2.482.265,1.142.2,1.191-1.919,1.191h-1.87l-.2-.6c-.331-.96-1.274-1.109-2.118-.331a7.883,7.883,0,0,0-1.687,4.1,1.157,1.157,0,0,0,1.208,1.125,2.159,2.159,0,0,0,1.82-1.158l.182-.5h4.1l-.116.463a4.608,4.608,0,0,1-1.373,2.151A9.942,9.942,0,0,1,4832.6,971.907Z" transform="translate(-4750.165 -945.692)"/><path class="c" d="M8171.572,837.264c-1.109-.281-1.572-.745-1.572-1.588,0-.4,2.6-10.49,2.747-10.656.066-.066,4.1-.5,4.169-.43a6.47,6.47,0,0,1-.215,1.092c-.364,1.539-.4,1.473.828,1.473s1.224-.016.86,1.572l-.2.827-1.324.083-1.307.083-.464,1.572c-.612,2.151-.695,2.664-.414,3.028.249.347.711.414,1.638.232l.612-.132-.314,1.109a7.521,7.521,0,0,1-.4,1.175A13.1,13.1,0,0,1,8171.572,837.264Z" transform="translate(-8034.901 -810.967)"/><path class="c" d="M10233.558,971.581c-2.366-.43-3.558-1.6-3.558-3.541a9.475,9.475,0,0,1,1.92-4.9c1.438-1.588,4.334-2.316,7.264-1.8,2.184.381,3.16,1.489,2.994,3.375a10.9,10.9,0,0,1-.265,1.622l-.182.612h-7.4l-.2.563c-.546,1.655,1.323,2.333,2.8.993l.628-.563h1.937a6.649,6.649,0,0,1,1.919.132,7.8,7.8,0,0,1-.629,1.009,5.924,5.924,0,0,1-3.045,2.25A11.941,11.941,0,0,1,10233.558,971.581Zm4.781-6.883a1.224,1.224,0,0,0-.463-1.092,2.279,2.279,0,0,0-1.754.116,2.145,2.145,0,0,0-.745.745l-.265.5h1.572C10237.942,964.963,10238.257,964.913,10238.339,964.7Z" transform="translate(-10060.815 -945.3)"/><path class="c" d="M7421.208,971.147a2,2,0,0,1-1.208-2c0-1.969,1.34-2.945,4.88-3.557a14.82,14.82,0,0,0,2.151-.48c1.225-.529,1.439-1.555.38-1.82a1.314,1.314,0,0,0-1.622.827c-.148.381-.2.4-2,.4h-1.836l.1-.529c.381-1.936,3.293-3.144,6.9-2.9,1.688.116,2.647.546,3.028,1.357.414.86.314,1.506-.827,5.526l-.943,3.326h-2.019a6.555,6.555,0,0,1-2.1-.165c-.033-.1-.4-.066-.959.083A7.07,7.07,0,0,1,7421.208,971.147Zm5-2.2a2.744,2.744,0,0,0,1.076-1.638c0-.248-1.357-.05-2.267.347-.728.314-1.025.86-.711,1.241A2.132,2.132,0,0,0,7426.2,968.946Z" transform="translate(-7297.311 -945.18)"/><path class="c" d="M3683.02,999.481c.033-.165.612-2.366,1.274-4.881l1.191-4.6h4.054l-1.075,4.269c-.579,2.333-1.125,4.534-1.225,4.881l-.166.612h-2.068C3683.1,999.762,3682.937,999.746,3683.02,999.481Z" transform="translate(-3622.146 -973.647)"/><path class="c" d="M4040,975.947c0-.1.563-2.3,1.241-4.881.678-2.6,1.241-4.749,1.241-4.782a57.771,57.771,0,0,1,6.122-.331c2.135.017,3.045.347,3.64,1.324.645,1.042.546,1.688-1.258,7.975l-.248.86h-4.153l.1-.612c.066-.347.413-1.7.761-3.028.877-3.243.91-3.524.579-3.855a1.244,1.244,0,0,0-.827-.281c-.976,0-1.175.331-1.9,3.309-.381,1.506-.794,3.127-.927,3.607l-.248.86h-2.068A5.589,5.589,0,0,1,4040,975.947Z" transform="translate(-3973.236 -949.997)"/><path class="c" d="M5533.021,999.481c.033-.165.612-2.366,1.274-4.881l1.191-4.6h4.054l-1.076,4.269c-.579,2.333-1.125,4.534-1.224,4.881l-.166.612h-2.068C5533.1,999.762,5532.938,999.746,5533.021,999.481Z" transform="translate(-5441.537 -973.647)"/><path class="c" d="M5890,972.229c0-.033.6-2.25,1.291-4.931l1.29-4.881,1.489-.1c.811-.05,2.218-.149,3.128-.232,3.755-.281,5.575.645,5.526,2.846a32.276,32.276,0,0,1-.943,3.938l-.943,3.309-2.118.05-2.117.05.115-.463c.05-.248.431-1.7.827-3.21.977-3.657.96-4.12-.2-4.12-1.059,0-1.274.4-2.218,4.269l-.859,3.508h-2.135C5890.96,972.262,5890,972.245,5890,972.229Z" transform="translate(-5792.626 -946.146)"/><path class="c" d="M6650.1,975.517c.066-.265.646-2.465,1.291-4.931l1.19-4.467,1.8-.149c1.01-.066,2.747-.149,3.889-.165,1.9-.017,2.134.017,2.879.4,1.854.927,1.919,1.6.646,6.2l-.96,3.475-2.118.05a9.582,9.582,0,0,1-2.1-.083c0-.066.381-1.539.828-3.276.859-3.309.942-3.872.628-4.186a1.53,1.53,0,0,0-1.654.132c-.364.281-.546.844-1.308,3.888l-.893,3.557H6650Z" transform="translate(-6540.051 -949.848)"/><path class="c" d="M8643.076,995.51c.578-2.35,1.124-4.55,1.224-4.881l.166-.629h4.153l-.116.48c-.05.265-.6,2.449-1.225,4.848l-1.108,4.352-2.085.05-2.085.05Z" transform="translate(-8499.091 -973.647)"/><path class="c" d="M9340,755.175c0-.083.777-3.177,1.705-6.916l1.72-6.784,4.27-.05c4.8-.05,5.576.066,6.485.96a2.716,2.716,0,0,1,.381,3.475,4.292,4.292,0,0,1-1.8,1.737c-.48.149-.431.3.248.662a2.5,2.5,0,0,1,.909.943c1.125,2.217-1.207,5.311-4.467,5.924A82.493,82.493,0,0,1,9340,755.175Zm8.753-3.276c.729-.728.811-1.291.281-1.8-.381-.4-.529-.43-1.8-.43h-1.407l-.265,1.125c-.149.612-.314,1.241-.364,1.406-.1.3,0,.314,1.49.248C9348.19,752.4,9348.289,752.379,9348.753,751.9Zm.348-5.344a1.831,1.831,0,0,0,1.01-1.9c-.2-.529-.612-.645-1.92-.579l-.976.05-.2.761c-.1.43-.231,1.042-.3,1.373l-.115.6h.959A3.58,3.58,0,0,0,9349.1,746.555Z" transform="translate(-9185.542 -729.175)"/><path class="c" d="M10972.058,753.535c.05-.215.812-3.342,1.7-6.949l1.606-6.585h2.035c1.521,0,2.034.05,2.034.215.017.1-.761,3.226-1.687,6.933l-1.705,6.751h-2.052C10971.958,753.9,10971.958,753.9,10972.058,753.535Z" transform="translate(-10790.563 -727.783)"/><path class="c" d="M11324.605,747.413c.877-3.574,1.655-6.7,1.7-6.949l.116-.463h2.069a7.7,7.7,0,0,1,2.067.132c0,.066-.778,3.16-1.721,6.9l-1.688,6.784-2.084.05-2.068.05Z" transform="translate(-11135.732 -727.783)"/><path class="c" d="M11841.238,734.839c-.38-.529-.33-.893.2-1.456.6-.662,1.373-.811,1.837-.347a1.094,1.094,0,0,1-.132,1.688A1.267,1.267,0,0,1,11841.238,734.839Zm1.639-.215a1.006,1.006,0,0,0,.216-1.373,1.035,1.035,0,0,0-1.44.232c-.414.529-.447.943-.083,1.291C11841.934,735.154,11842.414,735.1,11842.877,734.624Z" transform="translate(-11645.15 -720.67)"/><path class="c" d="M11882.646,761.208c.05-.165.133-.5.2-.745.083-.347.2-.463.5-.463.479,0,.678.4.4.745a.512.512,0,0,0-.1.5c.05.132.017.248-.05.248-.083,0-.182-.116-.248-.248-.05-.132-.166-.248-.266-.248-.082,0-.165.116-.165.248s-.083.248-.183.248S11882.6,761.357,11882.646,761.208Zm1.01-.711c.05-.083-.05-.165-.232-.165-.2,0-.348.083-.348.165,0,.1.1.165.232.165A.417.417,0,0,0,11883.655,760.5Z" transform="translate(-11686.095 -747.452)"/></g><g transform="translate(9.467 15.22)"><path class="d" d="M279.633,837.783a6.859,6.859,0,0,1-4.1-3.574A4.778,4.778,0,0,1,275,831.3a8.594,8.594,0,0,1,.3-2.73,10.918,10.918,0,0,1,6.718-6.618c1.406-.447,1.572-.43,2.019.248a2.19,2.19,0,0,0,.5.579,5.709,5.709,0,0,1,1.588,1.7c.116.248.281.447.381.447a.166.166,0,0,1,.165.165c0,.1-.165.083-.447-.016a6.306,6.306,0,0,0-3.359.116,6.969,6.969,0,0,0-4.583,5.626c-.215,2.532,1.307,4,3.955,3.839,1.936-.132,2.78-.629,5.543-3.309a22.977,22.977,0,0,1,2.565-2.283,9.459,9.459,0,0,1,2.118,2.25,39.089,39.089,0,0,1-5.444,5.162,7.562,7.562,0,0,1-4.815,1.456A8.482,8.482,0,0,1,279.633,837.783Z" transform="translate(-275 -821.645)"/><path class="d" d="M1312.07,1475.229a6.324,6.324,0,0,1-3.624-3.26l-.447-.844.546-.563a2.061,2.061,0,0,1,.728-.562,19.514,19.514,0,0,1,3.557,3.64c0,.083.149.2.331.248s.331.215.331.331a.858.858,0,0,0,.414.513.876.876,0,0,1,.414.579C1314.321,1475.758,1313.377,1475.725,1312.07,1475.229Z" transform="translate(-1290.908 -1459.272)"/><path class="d" d="M1076.414,1140.414c-.066-.331-.017-.414.232-.414.232,0,.314.1.265.364C1076.844,1140.877,1076.5,1140.91,1076.414,1140.414Z" transform="translate(-1063.128 -1134.732)"/></g><g transform="translate(9.397 15.607)"><path class="e" d="M7103.207,1979.862a3.3,3.3,0,0,1-.893-.5c-.231-.232-.231-.3.1-.646l.364-.4.844.414c.794.4.876.414,1.522.182a1.6,1.6,0,0,0,1.042-.894c.38-.695.728-2.25.4-1.688a2.253,2.253,0,0,1-1.654.778c-1.374,0-2.068-1.026-1.953-2.879.166-2.482,1.522-4.236,3.276-4.236a1.335,1.335,0,0,1,1.092.414c.5.5.562.513.562.083,0-.281.116-.331.662-.331a2.052,2.052,0,0,1,.662.05c0,.033-.331,1.7-.745,3.74-.811,4.037-1.208,5.063-2.184,5.659A4.313,4.313,0,0,1,7103.207,1979.862Zm2.913-4.07a4.4,4.4,0,0,0,1.225-2.863c.115-1.34-.133-1.837-.943-1.9-.513-.05-.678.033-1.109.53-.959,1.108-1.374,3.557-.695,4.236A1.087,1.087,0,0,0,7106.119,1975.791Z" transform="translate(-6989.118 -1951.386)"/><path class="e" d="M4162.8,1977a2.474,2.474,0,0,1-.877-.877c-.728-1.291.1-4.352,1.456-5.394a3.468,3.468,0,0,1,2.879-.381c.6.248.6.281.149.761-.3.314-.4.331-.811.182-1.026-.381-1.9.414-2.416,2.167a2.938,2.938,0,0,0,.148,2.482,1.844,1.844,0,0,0,1.622.132c.348-.1.447-.05.613.314.182.4.165.447-.381.678A2.908,2.908,0,0,1,4162.8,1977Z" transform="translate(-4097.27 -1951.567)"/><path class="e" d="M4467.09,1976.867c-.811-.414-1.142-1.142-1.125-2.482a4.821,4.821,0,0,1,1.274-3.359,2.714,2.714,0,0,1,2.267-1.026,1.7,1.7,0,0,1,1.456.563l.612.563v1.473a3.981,3.981,0,0,1-.5,2.449,3.293,3.293,0,0,1-2.68,2.019A2.626,2.626,0,0,1,4467.09,1976.867Zm1.985-1.092a4.009,4.009,0,0,0,1.225-2.829c.1-1.34-.2-1.952-.926-1.952-.96,0-1.688.976-2,2.713C4467.007,1975.675,4467.868,1976.718,4469.076,1975.775Z" transform="translate(-4396.549 -1951.386)"/><path class="e" d="M5644.825,1977a2.7,2.7,0,0,1-1.34-1.588,5.486,5.486,0,0,1,1.108-4.236,2.7,2.7,0,0,1,2.366-1.175,1.769,1.769,0,0,1,1.969,1.787,7.78,7.78,0,0,1-.033,1.423l-.115.6h-3.955v.794c0,1.042.281,1.423,1.059,1.423a1.42,1.42,0,0,0,1.076-.463c.463-.447.5-.447.91-.166l.447.281-.463.5A3.081,3.081,0,0,1,5644.825,1977Zm2.9-4.368a1.816,1.816,0,0,0-.281-1.423c-.231-.3-.976-.265-1.423.05a4.181,4.181,0,0,0-1.025,1.638,5.073,5.073,0,0,0,1.307.083C5647.489,1972.978,5647.621,1972.945,5647.721,1972.631Z" transform="translate(-5554.496 -1951.386)"/><path class="e" d="M6016.125,1977.374a2.212,2.212,0,0,1-1.125-2.234,5.062,5.062,0,0,1,2.25-4.318,3.564,3.564,0,0,1,2.382-.033c.5.215.5.265.066.778-.248.3-.38.348-.512.215a1.593,1.593,0,0,0-1.456-.033c-.877.463-1.688,3.044-1.308,4.12a1.114,1.114,0,0,0,1.588.662c.5-.149.6-.149.794.133.348.447.314.546-.331.811A2.643,2.643,0,0,1,6016.125,1977.374Z" transform="translate(-5919.956 -1951.975)"/><path class="e" d="M8632.919,1977.631c-.894-.381-1.126-1.357-.6-2.515.4-.877,1.226-1.373,2.664-1.6.993-.149,1.142-.215,1.241-.579a1.081,1.081,0,0,0-.166-.794,1.476,1.476,0,0,0-1.92-.116c-.445.265-.5.265-.76.016-.364-.364-.1-.678.877-1.059a2.821,2.821,0,0,1,2.746.265c.529.645.529,1.142.016,3.789l-.479,2.581-.546.05c-.53.05-.547.033-.48-.463l.083-.513-.348.43a2.151,2.151,0,0,1-.926.579A1.5,1.5,0,0,1,8632.919,1977.631Zm1.985-1.125a3.963,3.963,0,0,0,1.076-1.9c0-.3-1.225-.281-1.82.033a1.372,1.372,0,0,0-.828,1.357C8633.332,1976.9,8634.094,1977.151,8634.9,1976.506Z" transform="translate(-8493.694 -1952.134)"/><path class="e" d="M10001.876,1976.848c-.927-.364-1.158-1.969-.431-2.962a4.106,4.106,0,0,1,2.7-1.258l.993-.116v-.612a1.41,1.41,0,0,0-.2-.811,1.968,1.968,0,0,0-1.819.066c-.479.248-.529.248-.844-.066l-.331-.331.844-.43c1.29-.645,2.7-.563,3.293.215.38.5.247,1.9-.546,5.94-.05.281-.183.364-.563.364-.43,0-.5-.066-.5-.447v-.43l-.364.348A2.09,2.09,0,0,1,10001.876,1976.848Zm2.184-1.39a3.4,3.4,0,0,0,.712-1.257l.165-.695-.893.066a1.744,1.744,0,0,0-1.82,1.39C10002.009,1976.07,10003.184,1976.385,10004.06,1975.458Z" transform="translate(-9840.017 -1951.284)"/><path class="e" d="M10807.11,1976.949c-1.423-.579-1.736-2.846-.7-4.9a3.162,3.162,0,0,1,3.046-2.052,1.444,1.444,0,0,1,1.307.563c.513.513.563.646.563,1.539,0,1.771.083,1.7-2.168,1.7h-1.968v.794c0,.877.082,1.059.629,1.34.463.248.975.1,1.538-.43.43-.4.463-.4.877-.116l.447.281-.465.5A2.984,2.984,0,0,1,10807.11,1976.949Zm3.028-4.6c.116-1.142-.844-1.737-1.754-1.092a4.187,4.187,0,0,0-1.025,1.638,4.76,4.76,0,0,0,1.373.05l1.357-.05Z" transform="translate(-10631.485 -1951.386)"/><path class="e" d="M11378.217,1977.662a3.256,3.256,0,0,1-.694-.43c-.265-.232-.248-.265.165-.629.431-.38.446-.38.844-.066a1.461,1.461,0,0,0,1.92-.1,1.3,1.3,0,0,0,.413-.612c0-.4-.5-.96-1.158-1.291-1.258-.645-1.654-1.7-1.01-2.747a2.282,2.282,0,0,1,.895-.778,3.88,3.88,0,0,1,2.8-.017l.5.265-.363.381c-.348.38-.4.38-.91.132-.977-.463-1.97.066-1.87,1.009.033.4.2.579.7.86,1.157.645,1.589,1.175,1.589,1.9a2,2,0,0,1-1.209,1.986A3.924,3.924,0,0,1,11378.217,1977.662Z" transform="translate(-11193.575 -1952.114)"/><path class="e" d="M4832.844,1976.668c.05-.166.314-1.522.6-3.028s.546-2.9.6-3.094c.066-.314.182-.381.711-.381.6,0,.629.017.546.463l-.083.447.4-.348a2.338,2.338,0,0,1,1.754-.728,1.331,1.331,0,0,1,1.34.778c.281.513.231,1.158-.281,3.773l-.447,2.316-.678.05-.662.05.463-2.283c.513-2.548.579-3.193.281-3.491-.513-.513-1.7,0-2.184.927a13.754,13.754,0,0,0-.6,2.267c-.546,2.8-.447,2.564-1.191,2.564C4832.86,1976.949,4832.778,1976.9,4832.844,1976.668Z" transform="translate(-4757.339 -1951.386)"/><path class="e" d="M5233.629,1973.855c.348-1.754.645-3.293.645-3.392,0-.132.249-.215.679-.215.678,0,.678,0,.563.546-.116.53-.116.53.166.149a2.177,2.177,0,0,1,2.978-.447c.546.529.546,1.323-.033,4.252l-.447,2.283h-.629c-.414,0-.629-.083-.629-.232,0-.116.182-1.125.414-2.25.6-2.929.546-3.475-.381-3.475-1.076,0-1.6.811-2.118,3.26-.215,1.075-.431,2.118-.48,2.333-.066.3-.2.364-.728.364H5233Z" transform="translate(-5150.894 -1951.468)"/><path class="e" d="M6341.582,1878.339a.907.907,0,0,1-.364-.877,32.763,32.763,0,0,1,.745-4.269c.083-.331.017-.38-.413-.38-.464,0-.514-.05-.464-.447.033-.381.132-.48.579-.513.5-.05.546-.116.711-.96l.182-.894h1.274l-.149.629c-.248,1.092-.215,1.191.447,1.191.546,0,.579.033.529.463-.05.4-.132.447-.729.5l-.662.05-.364,1.87a21.779,21.779,0,0,0-.364,2.383c0,.546.132.612.894.529.231-.016.281.05.2.248a2.016,2.016,0,0,0-.1.513C6343.534,1878.7,6342.062,1878.687,6341.582,1878.339Z" transform="translate(-6240.629 -1853.04)"/><path class="e" d="M6560,1987.441c.017-.166.3-1.671.629-3.359l.629-3.061.612-.05c.5-.05.612,0,.612.248-.017.166-.3,1.671-.629,3.359l-.628,3.061-.612.05C6560.116,1987.739,6560,1987.69,6560,1987.441Z" transform="translate(-6455.937 -1962.159)"/><path class="e" d="M6733.629,1973.855c.348-1.754.646-3.293.646-3.392,0-.132.248-.215.678-.215.679,0,.679,0,.563.546-.116.53-.116.53.166.149a2.177,2.177,0,0,1,2.978-.447c.546.529.546,1.323-.033,4.252l-.447,2.283h-.629c-.348,0-.628-.05-.628-.116,0-.083.182-1.059.413-2.2.6-3.045.546-3.64-.38-3.64-1.076,0-1.6.811-2.118,3.26-.215,1.075-.43,2.118-.479,2.333-.066.3-.2.364-.728.364H6733Z" transform="translate(-6626.074 -1951.468)"/><path class="e" d="M7757.216,1985.262c0-.844-.05-2.383-.116-3.392l-.1-1.87h1.357l.05,2.581.05,2.581,1.091-2.532,1.093-2.548.612-.05c.4-.033.6.016.612.165.017.116.065,1.324.132,2.7l.1,2.482,1.059-2.7,1.06-2.681h.661c.546,0,.629.05.546.3-.065.149-.728,1.671-1.472,3.392l-1.357,3.094-.744-.033-.745-.05-.082-2.267a18.113,18.113,0,0,0-.166-2.333,12.337,12.337,0,0,0-1.092,2.25l-1.009,2.349-.778.05-.761.05Z" transform="translate(-7633.131 -1961.22)"/><path class="e" d="M8250,1788.994c0-.083.43-2.333.96-5.014l.96-4.881.678-.05.662-.05-.381,1.87c-.5,2.432-.5,2.416.183,1.8a1.763,1.763,0,0,1,2.978.711,27.412,27.412,0,0,1-.86,5.361c-.065.3-.2.364-.744.364s-.629-.05-.562-.281c.05-.166.281-1.34.514-2.614.5-2.631.446-3.061-.4-3.061a2.435,2.435,0,0,0-1.837,1.621c-.083.331-.331,1.456-.529,2.482l-.364,1.853h-.629C8250.281,1789.11,8250,1789.06,8250,1788.994Z" transform="translate(-8117.974 -1763.546)"/><path class="e" d="M9001.582,1878.339a.907.907,0,0,1-.363-.877,32.656,32.656,0,0,1,.744-4.269c.082-.331.016-.38-.414-.38-.463,0-.513-.05-.463-.447.033-.381.133-.48.563-.513.463-.05.546-.132.645-.662.2-1.142.232-1.191.861-1.191h.579l-.116.91-.1.91h.579c.611,0,.711.166.5.728-.066.182-.314.265-.711.265h-.612l-.431,2.184a16.4,16.4,0,0,0-.348,2.4c.05.116.331.215.646.215.629,0,.629-.016.4.563-.133.364-.265.43-.877.43A2.194,2.194,0,0,1,9001.582,1878.339Z" transform="translate(-8856.617 -1853.04)"/><path class="e" d="M9370,1976.451c0-.066.265-1.6.612-3.392l.629-3.276h.646c.629,0,.629,0,.529.546-.082.5-.082.513.149.215a2.109,2.109,0,0,1,2.978-.513,1.287,1.287,0,0,1,.414.678c0,.215.082.165.348-.166,1.059-1.34,3.226-1.191,3.524.232.082.447-.1,1.671-.745,4.931l-.165.86h-.662a3.408,3.408,0,0,1-.646-.033c0-.033.216-1.191.5-2.581.545-2.912.512-3.342-.348-3.342-.381,0-.679.166-1.142.629-.58.579-.629.728-1.076,2.979l-.463,2.349h-.629c-.364,0-.646-.033-.646-.083s.2-1.076.431-2.267c.629-3.21.579-3.607-.431-3.607a1.829,1.829,0,0,0-1.39,1.026,13.131,13.131,0,0,0-.744,2.648l-.447,2.2-.612.05C9370.281,1976.567,9370,1976.534,9370,1976.451Z" transform="translate(-9219.442 -1951.003)"/><path class="e" d="M10362.846,1877.19c-.432-.546-.432-.43.064-2.879.232-1.125.414-2.135.414-2.25,0-.149-.2-.232-.512-.232-.4,0-.5-.05-.414-.265a1.921,1.921,0,0,0,.1-.5c0-.149.182-.232.563-.232.529,0,.545-.017.7-.86.148-.86.148-.877.793-.927l.629-.05-.1.629c-.066.348-.148.761-.2.927-.082.232.018.281.6.281.646,0,.7.033.6.381a3.061,3.061,0,0,0-.1.5c0,.066-.3.116-.646.116-.729,0-.662-.2-1.256,3.045-.266,1.373-.266,1.506-.018,1.688a1,1,0,0,0,.611.116c.3-.083.332-.033.281.381-.049.447-.1.48-.893.529C10363.291,1877.637,10363.16,1877.587,10362.846,1877.19Z" transform="translate(-10195.394 -1852.057)"/><path class="e" d="M10600.5,1878.273c-.43-.43-.414-.86.084-3.309.23-1.125.412-2.052.412-2.085a1.012,1.012,0,0,0-.5-.066c-.314,0-.5-.083-.5-.232,0-.513.215-.761.662-.761.5,0,.563-.1.762-1.191.1-.6.131-.629.76-.629.547,0,.631.05.564.3-.051.149-.133.563-.2.91l-.1.612h.662c.645,0,.662.016.545.463-.1.38-.215.447-.777.5l-.645.05-.381,2.019c-.529,2.846-.529,2.879.514,2.78.3-.033.33.033.182.612-.1.314-.215.364-.91.364A1.435,1.435,0,0,1,10600.5,1878.273Z" transform="translate(-10429.091 -1853.04)"/><path class="e" d="M11169.959,1976.118c-.016-.083.264-1.6.611-3.392l.629-3.276h.646c.629,0,.629,0,.529.53l-.1.53.5-.513c.447-.463,1.391-.861,1.572-.678.049.033.016.281-.051.53a.894.894,0,0,1-.678.662c-1.041.347-1.473,1.125-1.969,3.557l-.447,2.167h-.611C11170.24,1976.234,11169.959,1976.184,11169.959,1976.118Z" transform="translate(-10989.618 -1950.67)"/><path class="e" d="M6650.2,1821.291a.847.847,0,0,1-.2-.546.729.729,0,0,1,.827-.745c.812,0,1.06.6.5,1.158C6650.943,1821.539,6650.5,1821.589,6650.2,1821.291Z" transform="translate(-6544.448 -1803.868)"/><path class="e" d="M275.443,860.752a6.81,6.81,0,0,1-4.087-3.557,5.122,5.122,0,0,1-.6-2.465,8.12,8.12,0,0,1,.893-4.451,10.559,10.559,0,0,1,4.616-4.7l1.092-.579,1.142,1.241a10.369,10.369,0,0,1,1.158,1.406c0,.1-.4.314-.86.48a6.892,6.892,0,0,0-4.716,5.659c-.215,2.531,1.307,4,3.955,3.839,1.853-.116,2.829-.678,4.98-2.763l1.787-1.754,1.158,1.142a9.515,9.515,0,0,1,1.142,1.258,29.409,29.409,0,0,1-4.3,3.954,7.6,7.6,0,0,1-4.8,1.44A8.481,8.481,0,0,1,275.443,860.752Z" transform="translate(-270.739 -845)"/><path class="e" d="M1333.633,1574.443a7.029,7.029,0,0,1-1.986-2.2c-.529-1.026-.132-.778,1.291.761C1334.46,1574.641,1334.758,1575.27,1333.633,1574.443Z" transform="translate(-1313.872 -1559.601)"/></g></g></g></svg>