<svg xmlns="http://www.w3.org/2000/svg" width="240" height="100" viewBox="0 0 240 100"><defs><style>.a{fill:rgba(255,255,255,0);}.b{fill:#d40f41;}</style></defs><g transform="translate(-228.19 -444.895)"><rect class="a" width="240" height="100" transform="translate(228.19 444.895)"/><path class="b" d="M85.188,0a6.625,6.625,0,1,0,6.656,6.625A6.62,6.62,0,0,0,85.188,0Zm25.469,16.344c-5.96,0-12.094,4.405-12.094,10.781,0,6.839,4.175,9.32,9.438,10.969,7.88,2.471,10.156,3.873,10.156,7.031,0,2.654-2.152,4.75-6.219,4.75-4.707,0-8.856-3.824-9.437-9.375H99.188V51.875h3.219s.55-1.76.688-2.187a14.047,14.047,0,0,0,9.156,2.969c6.2,0,9.42-2.553,11.281-5.344a11.453,11.453,0,0,0,1.844-6.781,10.345,10.345,0,0,0-5.219-9.156c-2.685-1.487-5.091-2.1-8.781-3.25s-5.156-3.1-5.156-5.094c0-1.844,1.418-4.125,5.563-4.125s7.3,3.734,8.188,8.031h3.156V17.063h-3.156s-.317,1.468-.406,1.875C117.751,17.557,115.241,16.344,110.656,16.344Zm61.375,0c-5.96,0-12.094,4.405-12.094,10.781,0,6.839,4.178,9.32,9.438,10.969,7.883,2.471,10.156,3.873,10.156,7.031,0,2.654-2.155,4.75-6.219,4.75-4.71,0-8.825-3.824-9.406-9.375h-3.344V51.875h3.219s.583-1.76.719-2.187a13.96,13.96,0,0,0,9.125,2.969c6.2,0,9.419-2.553,11.281-5.344a11.444,11.444,0,0,0,1.844-6.781,10.342,10.342,0,0,0-5.219-9.156c-2.686-1.487-5.091-2.1-8.781-3.25s-5.156-3.1-5.156-5.094c0-1.844,1.451-4.125,5.594-4.125s7.27,3.734,8.156,8.031H184.5V17.063h-3.156s-.315,1.468-.406,1.875C179.126,17.557,176.614,16.344,172.031,16.344ZM0,17.063v2.656H4.281V39.188c0,3.58.361,6.188,1.844,8.344C7.815,49.99,11.334,52.594,18,52.594c7.889,0,10.636-2.355,12.219-5.062,1.233-2.112,1.375-4.671,1.375-8.687V19.719h4.281V17.063H24.031v2.656h4.25V42.156c0,4.686-3.11,6.875-6.531,6.875-3.022,0-4.57-.853-5.594-2.219-.923-1.234-1.219-2.919-1.219-5.219V19.719h4.281V17.063Zm38.125,0v2.656h3.563v29.5H37.406v2.656H49.469V49.219H45V25.844L63.719,51.875h5.25V19.719H73.25V17.063H61.406v2.656h4.25V36.313L51.844,17.063Zm37.594,0v2.656H80v29.5H75.719v2.656H94.938V49.219H90.656v-29.5h4.281V17.063Zm48.875,0v2.656h3.813s8.869,17.268,8.906,17.344c0,.085,0,12.156,0,12.156h-4.875v2.656h20.438V49.219h-4.906s0-12.071,0-12.156c.039-.077,8.906-17.344,8.906-17.344h3.656V17.063H149.406v2.656h3.875l-6.844,13.594L140,19.719h4.25V17.063Z" transform="translate(255.191 468.894)"/></g></svg>