<svg xmlns="http://www.w3.org/2000/svg" xmlns:xlink="http://www.w3.org/1999/xlink" width="240" height="100" viewBox="0 0 240 100"><defs><style>.a{fill:rgba(255,255,255,0);}.b{fill:#c4122e;}.c{clip-path:url(#a);}.d{fill:#15495d;}</style><clipPath id="a"><path d="M873.1-7751.742h139.258v-79.337H873.1Z" transform="translate(-873.097 7831.079)"/></clipPath></defs><g transform="translate(39.248 -2.762)"><rect class="a" width="240" height="100" transform="translate(-39.248 2.762)"/><path class="b" d="M244.063,312.092h-5.7V289.513h5.7Z" transform="translate(-187.05 -228.436)"/><g class="c" transform="translate(11.752 12.761)"><path class="b" d="M1032.909-7549.779a9.962,9.962,0,0,0-4.793-1.206,5.911,5.911,0,0,0-6.239,6.022,5.912,5.912,0,0,0,6.239,6.028,10.1,10.1,0,0,0,4.793-1.2v6.06a18.283,18.283,0,0,1-5.192.8c-6.409,0-12.034-4.418-12.034-11.695,0-6.741,5.089-11.686,12.034-11.686a17.326,17.326,0,0,1,5.192.811Zm-59.471,0a9.9,9.9,0,0,0-4.786-1.206,5.911,5.911,0,0,0-6.244,6.022,5.914,5.914,0,0,0,6.244,6.028,10.03,10.03,0,0,0,4.786-1.2v6.06a18.179,18.179,0,0,1-5.2.8c-6.4,0-12.021-4.418-12.021-11.695,0-6.741,5.089-11.686,12.023-11.686a17.26,17.26,0,0,1,5.2.811Zm77.394-1.121a5.836,5.836,0,0,0-5.891,5.938,5.836,5.836,0,0,0,5.891,5.943,5.841,5.841,0,0,0,5.894-5.943,5.841,5.841,0,0,0-5.894-5.937m11.931,5.938a11.592,11.592,0,0,1-11.929,11.693,11.587,11.587,0,0,1-11.926-11.694,11.589,11.589,0,0,1,11.924-11.686,11.594,11.594,0,0,1,11.931,11.687m-54.188-6.154a19.478,19.478,0,0,0-4.454-.689c-2.283,0-3.525.765-3.525,1.85,0,1.375,1.675,1.855,2.611,2.151l1.572.5c3.7,1.177,5.383,3.708,5.383,6.459,0,5.672-4.988,7.578-9.348,7.578a34.2,34.2,0,0,1-6.149-.617v-5.2a21.343,21.343,0,0,0,5.38.841c2.835,0,4.138-.83,4.138-2.108,0-1.144-1.128-1.8-2.541-2.249-.343-.116-.863-.278-1.216-.394-3.173-1-5.818-2.87-5.818-6.6,0-4.223,3.162-7.059,8.414-7.059a24.36,24.36,0,0,1,5.553.719v4.818Z" transform="translate(-941.707 7604.565)"/><path class="d" d="M894.86-7793.746a2.826,2.826,0,0,0-2.828-2.817,2.827,2.827,0,0,0-2.83,2.815v5.929a2.829,2.829,0,0,0,2.829,2.758,2.83,2.83,0,0,0,2.829-2.758Zm15.537-7.778a2.829,2.829,0,0,0-2.829-2.829,2.829,2.829,0,0,0-2.829,2.829v13.705a2.829,2.829,0,0,0,2.829,2.829,2.829,2.829,0,0,0,2.829-2.829v-13.707Zm15.539-10.645a2.827,2.827,0,0,0-2.828-2.819,2.827,2.827,0,0,0-2.83,2.819v29.982a2.83,2.83,0,0,0,2.829,2.758,2.83,2.83,0,0,0,2.829-2.758Zm15.537,10.645a2.829,2.829,0,0,0-2.829-2.829,2.829,2.829,0,0,0-2.829,2.829v13.705a2.829,2.829,0,0,0,2.829,2.829,2.829,2.829,0,0,0,2.829-2.829v-13.707Zm15.521,7.778a2.815,2.815,0,0,0-2.812-2.817,2.826,2.826,0,0,0-2.828,2.815v5.929a2.82,2.82,0,0,0,2.82,2.819,2.82,2.82,0,0,0,2.82-2.819Zm15.544-7.778a2.821,2.821,0,0,0-2.82-2.75,2.821,2.821,0,0,0-2.82,2.75v13.705a2.82,2.82,0,0,0,2.82,2.819,2.82,2.82,0,0,0,2.82-2.819v-13.707Zm15.548-10.645a2.82,2.82,0,0,0-2.82-2.82,2.82,2.82,0,0,0-2.82,2.82v29.982a2.822,2.822,0,0,0,1.373,2.547,2.824,2.824,0,0,0,2.894,0,2.822,2.822,0,0,0,1.373-2.547Zm15.544,10.645a2.829,2.829,0,0,0-2.855-2.823,2.821,2.821,0,0,0-2.819,2.821v13.707a2.821,2.821,0,0,0,2.819,2.826,2.828,2.828,0,0,0,2.855-2.826v-13.707Zm15.515,7.778a2.823,2.823,0,0,0-2.823-2.823,2.823,2.823,0,0,0-2.823,2.823v5.927a2.824,2.824,0,0,0,2.823,2.828,2.824,2.824,0,0,0,2.821-2.828v-5.927Z" transform="translate(-886.391 7817.798)"/><path class="b" d="M1603.316-7442.036v.354h-1.007v2.619h-.415v-2.617h-1.011v-.355Zm.211,0h.648l.89,2.438h.014l.861-2.437h.635v2.971h-.424v-2.437h-.014l-.9,2.437h-.392l-.881-2.437h-.02v2.437h-.415v-2.972Z" transform="translate(-1473.823 7509.957)"/></g></g></svg>