<svg xmlns="http://www.w3.org/2000/svg" width="240" height="100" viewBox="0 0 240 100"><defs><style>.a{fill:rgba(255,255,255,0);}.b{fill:#264b91;}.b,.c{fill-rule:evenodd;}.c{fill:#a7c954;}</style></defs><g transform="translate(29 -36)"><rect class="a" width="240" height="100" transform="translate(-29 36)"/><g transform="translate(-9 -10)"><path class="b" d="M58.074,93.983a3.485,3.485,0,0,1,3.4,3.69H54.441A3.56,3.56,0,0,1,58.074,93.983Zm7.49,11.022a19.223,19.223,0,0,1-2.288.637,14.1,14.1,0,0,1-2.8.285c-3.084,0-5.5-1.026-5.9-3.471H67.74a15.26,15.26,0,0,0,.27-2.8C68.01,94.1,65.246,89,58.194,89c-6.851,0-10.5,5.372-10.5,11.391,0,6.938,4.851,10.907,11.624,10.907a19.713,19.713,0,0,0,4.027-.366,16.31,16.31,0,0,0,3.277-1.025L65.564,105Zm94.665-11.022a3.486,3.486,0,0,1,3.4,3.69H156.6a3.561,3.561,0,0,1,3.633-3.69Zm7.49,11.022a19.24,19.24,0,0,1-2.289.637,14.1,14.1,0,0,1-2.8.285c-3.084,0-5.5-1.026-5.893-3.471h13.158a15.259,15.259,0,0,0,.27-2.8C170.164,94.1,167.4,89,160.35,89c-6.852,0-10.5,5.372-10.5,11.391,0,6.938,4.85,10.907,11.623,10.907a19.713,19.713,0,0,0,4.027-.366,16.33,16.33,0,0,0,3.277-1.025l-1.06-4.9ZM71.233,81.926v28.915h7.135V81.926ZM92.7,106.006c-2.318,0-3.84-2.291-3.84-5.835,0-2.822,1.021-5.836,3.865-5.836,2.745,0,3.719,3.124,3.719,5.805C96.442,103.7,94.961,106.006,92.7,106.006Zm-.1,5.292c5.567,0,11.2-3.506,11.2-11.337,0-4.662-2.764-10.925-10.854-10.925-8.331,0-11.369,6.069-11.369,11.281C81.583,106.856,86.125,111.3,92.6,111.3ZM106.908,89.5v21.337h7.135V89.5Zm0-7.568v5.539h7.135V81.936ZM119.695,83.7v5.8h-2.742V94.79h2.742v8.741c0,4.808,2.2,7.749,7.215,7.749a20.816,20.816,0,0,0,2.982-.243,16.16,16.16,0,0,0,2.061-.415c.006-.006-.053-5.573-.053-5.594a15.416,15.416,0,0,1-2.438.351,2.762,2.762,0,0,1-2.037-.695,3.211,3.211,0,0,1-.746-2.346V94.79h4.613V89.5h-4.613v-6.59L119.7,83.7Zm16.508,0v5.8h-2.742V94.79H136.2v8.741c0,4.808,2.2,7.749,7.217,7.749a20.812,20.812,0,0,0,2.98-.243,16.16,16.16,0,0,0,2.061-.415c.006-.006-.051-5.573-.051-5.594a15.466,15.466,0,0,1-2.439.351,2.758,2.758,0,0,1-2.035-.695,3.2,3.2,0,0,1-.746-2.346V94.79H147.8V89.5H143.19v-6.59L136.2,83.7Z"/><path class="c" d="M172.432,107.357a3.946,3.946,0,1,1,3.945,3.948A3.946,3.946,0,0,1,172.432,107.357Z"/><path class="b" d="M20.085,110.873H28.16c.547,0,1.208-.014,1.726-.04,11.051-.571,15.649-7.111,15.649-14.664,0-9.434-6.363-14.718-17.344-14.718-2.818,0-5.324.1-8.106.33Zm10.323-5.761q-.513.035-1.028.035H27.117s0-17.77,0-17.77c.783-.07,1.776-.117,2.441-.117,4.148,0,8.568,2.692,8.568,8.908C38.126,102.654,33.972,104.818,30.408,105.112Z"/></g></g></svg>